Fraunces72ptSoft-SemiBoldItalic.ufo
<glyph name="exclam" format="2">
  <advance width="640.0533333333334"/>
  <unicode hex="0021"/>
  <outline>
    <contour>
      <point x="581.7333333333333" y="1477.4933333333333" type="curve" smooth="yes"/>
      <point x="471.99333333333334" y="1477.4933333333333"/>
      <point x="408.3" y="1425.7199999999998"/>
      <point x="384.93333333333334" y="1333.1999999999998" type="curve" smooth="yes"/>
      <point x="377.8066666666667" y="1305.3733333333334"/>
      <point x="373.04" y="1268.8"/>
      <point x="370.34666666666664" y="1228.2199999999998" type="curve" smooth="yes"/>
      <point x="265.66666666666674" y="502.1933333333333" type="line" smooth="yes"/>
      <point x="262.42" y="460.09333333333336"/>
      <point x="275.7133333333333" y="442.49333333333334"/>
      <point x="307.16666666666663" y="442.49333333333334" type="curve" smooth="yes"/>
      <point x="338.78" y="442.49333333333334"/>
      <point x="360.2133333333333" y="459.28000000000003"/>
      <point x="379.3866666666666" y="501.2800000000001" type="curve" smooth="yes"/>
      <point x="673.8" y="1227.14" type="line" smooth="yes"/>
      <point x="695.9072300916113" y="1273.2766437716434"/>
      <point x="712.0066666666668" y="1319.2533333333333"/>
      <point x="715.3933333333333" y="1349.0866666666668" type="curve" smooth="yes"/>
      <point x="728.3" y="1425.8218791946306"/>
      <point x="688.7133333333335" y="1477.4933333333333"/>
    </contour>
    <component base="period" xOffset="22.70666666666667" yOffset="1.7333333333333334"/>
  </outline>
</glyph>
<glyph name="numbersign" format="2">
  <advance width="1257.7466666666667"/>
  <unicode hex="0023"/>
  <outline>
    <contour>
      <point x="558.5666666666666" y="687.5066666666667" type="curve" smooth="yes"/>
      <point x="636.12" y="832.4066666666668"/>
      <point x="832.68" y="1194.5466666666669"/>
      <point x="905.56" y="1327.0666666666668" type="curve" smooth="yes"/>
      <point x="927.7533333333334" y="1367.8066666666668"/>
      <point x="924.16" y="1393.5133333333335"/>
      <point x="893.8333333333334" y="1402.2800000000002" type="curve" smooth="yes"/>
      <point x="863.3799999999999" y="1411.7333333333333"/>
      <point x="834.92" y="1394.3933333333334"/>
      <point x="813.1733333333333" y="1355.1133333333335" type="curve" smooth="yes"/>
      <point x="745.3199999999999" y="1227.706666666667"/>
      <point x="569.78" y="858.3933333333334"/>
      <point x="490.25999999999993" y="711.3466666666666" type="curve" smooth="yes"/>
      <point x="410.87999999999994" y="563.5333333333332"/>
      <point x="196.18000000000004" y="196.25333333333333"/>
      <point x="126.01333333333335" y="67.46666666666665" type="curve" smooth="yes"/>
      <point x="105.61999999999999" y="29.613333333333333"/>
      <point x="109.85999999999999" y="3.793333333333334"/>
      <point x="140.10666666666665" y="-5.213333333333334" type="curve" smooth="yes"/>
      <point x="171.72666666666666" y="-13.46"/>
      <point x="198.42000000000004" y="3.546666666666666"/>
      <point x="219.89333333333337" y="41.26" type="curve" smooth="yes"/>
      <point x="289.3933333333333" y="169.76"/>
      <point x="480.82666666666665" y="543.1266666666666"/>
    </contour>
    <contour>
      <point x="788.4666666666666" y="878.2066666666667" type="curve" smooth="yes"/>
      <point x="906.2333333333333" y="878.2066666666667"/>
      <point x="1173.1866666666667" y="866.8333333333333"/>
      <point x="1278.2800000000002" y="865.66" type="curve" smooth="yes"/>
      <point x="1317.4733333333334" y="866.6333333333333"/>
      <point x="1344.9666666666667" y="884.4133333333334"/>
      <point x="1355.2466666666667" y="918.7399999999999" type="curve" smooth="yes"/>
      <point x="1363.36" y="951.5866666666667"/>
      <point x="1344.9133333333332" y="968.3066666666666"/>
      <point x="1307.2133333333334" y="968.3066666666666" type="curve" smooth="yes"/>
      <point x="1204.7933333333333" y="966.58"/>
      <point x="929.8066666666666" y="953.8666666666667"/>
      <point x="809.7666666666667" y="953.8666666666667" type="curve" smooth="yes"/>
      <point x="684.7466666666667" y="952.3333333333334"/>
      <point x="407.4266666666667" y="973.8066666666667"/>
      <point x="301.6333333333333" y="973.1333333333336" type="curve" smooth="yes"/>
      <point x="264.8066666666667" y="972.6733333333335"/>
      <point x="238.09333333333333" y="956.2133333333334"/>
      <point x="228.58" y="921.9333333333332" type="curve" smooth="yes"/>
      <point x="219.80666666666667" y="888.5799999999999"/>
      <point x="235.96" y="870.2399999999999"/>
      <point x="274.7466666666666" y="871.04" type="curve" smooth="yes"/>
      <point x="382.8666666666666" y="870.2399999999999"/>
      <point x="668.18" y="876.58"/>
    </contour>
    <contour>
      <point x="917.4266666666667" y="687.5066666666667" type="curve" smooth="yes"/>
      <point x="994.7266666666669" y="832.1066666666668"/>
      <point x="1191.9733333333331" y="1194.6866666666667"/>
      <point x="1264.166666666667" y="1326.7666666666669" type="curve" smooth="yes"/>
      <point x="1286.5533333333335" y="1367.5066666666667"/>
      <point x="1283.36" y="1393.5133333333335"/>
      <point x="1252.926666666667" y="1402.2800000000002" type="curve" smooth="yes"/>
      <point x="1222.226666666667" y="1411.7333333333333"/>
      <point x="1194.58" y="1394.2533333333336"/>
      <point x="1172.4999999999998" y="1354.8133333333335" type="curve" smooth="yes"/>
      <point x="1104.226666666667" y="1227.8466666666668"/>
      <point x="929.2800000000001" y="858.6933333333334"/>
      <point x="849.76" y="711.3466666666666" type="curve" smooth="yes"/>
      <point x="769.88" y="563.3933333333333"/>
      <point x="554.7266666666667" y="196.11333333333334"/>
      <point x="484.90666666666664" y="67.46666666666665" type="curve" smooth="yes"/>
      <point x="464.7133333333333" y="29.753333333333334"/>
      <point x="468.72" y="3.793333333333334"/>
      <point x="499.2933333333333" y="-5.213333333333334" type="curve" smooth="yes"/>
      <point x="530.6933333333334" y="-13.46"/>
      <point x="557.7133333333334" y="3.686666666666666"/>
      <point x="579.2400000000001" y="41.26" type="curve" smooth="yes"/>
      <point x="648.04" y="169.92666666666668"/>
      <point x="839.6466666666666" y="543.1266666666666"/>
    </contour>
    <contour>
      <point x="608.9733333333334" y="461.41333333333336" type="curve" smooth="yes"/>
      <point x="726.6466666666666" y="461.41333333333336"/>
      <point x="993.5600000000001" y="450.1666666666667"/>
      <point x="1098.7399999999998" y="448.83333333333337" type="curve" smooth="yes"/>
      <point x="1137.7733333333333" y="449.86"/>
      <point x="1165.8200000000002" y="467.6333333333334"/>
      <point x="1176.5000000000002" y="502.0533333333334" type="curve" smooth="yes"/>
      <point x="1184.2133333333336" y="534.8066666666667"/>
      <point x="1165.1666666666667" y="551.5266666666666"/>
      <point x="1127.8066666666666" y="551.5266666666666" type="curve" smooth="yes"/>
      <point x="1025.8466666666668" y="549.6933333333335"/>
      <point x="750.4999999999999" y="537.0733333333334"/>
      <point x="630.5866666666668" y="537.0733333333334" type="curve" smooth="yes"/>
      <point x="505.8133333333333" y="535.6066666666667"/>
      <point x="228.2333333333333" y="557.0133333333333"/>
      <point x="123.05333333333333" y="556.3533333333334" type="curve" smooth="yes"/>
      <point x="85.50666666666667" y="556.0533333333333"/>
      <point x="58.58000000000001" y="539.58"/>
      <point x="49.433333333333344" y="505.3" type="curve" smooth="yes"/>
      <point x="40.906666666666666" y="471.8066666666667"/>
      <point x="57.04666666666666" y="453.60666666666674"/>
      <point x="95.23333333333333" y="454.2133333333334" type="curve" smooth="yes"/>
      <point x="203.3733333333333" y="453.60666666666674"/>
      <point x="488.44000000000005" y="459.94666666666666"/>
    </contour>
  </outline>
</glyph>
<glyph name="dollar" format="2">
  <advance width="1117.96"/>
  <unicode hex="0024"/>
  <outline>
    <contour>
      <point x="453.55333333333334" y="4.640000000000001" type="curve" smooth="yes"/>
      <point x="739.4951690821256" y="4.640000000000001"/>
      <point x="971.7104249755635" y="136.6248764961776"/>
      <point x="1008.8266666666666" y="354.08666666666664" type="curve" smooth="yes"/>
      <point x="1042.1103943747526" y="511.8164781443368"/>
      <point x="978.5150276838738" y="654.0753297290048"/>
      <point x="724.88" y="803.0666666666667" type="curve" smooth="yes"/>
      <point x="526.4578273119597" y="920.2749190602472"/>
      <point x="472.45317422481395" y="1007.6029538132975"/>
      <point x="498.4933333333334" y="1130.4333333333334" type="curve" smooth="yes"/>
      <point x="523.2556108593268" y="1254.5547256047978"/>
      <point x="645.8752808988763" y="1330.0466666666666"/>
      <point x="792.9066666666666" y="1330.0466666666666" type="curve" smooth="yes"/>
      <point x="927.7800000000001" y="1330.0466666666666"/>
      <point x="980.5141882511066" y="1265.606459456042"/>
      <point x="971.1266666666667" y="1153.8600000000001" type="curve" smooth="yes"/>
      <point x="962.4133333333333" y="1082.8733333333334" type="line" smooth="yes"/>
      <point x="952.96" y="1005.3133333333334"/>
      <point x="995.38" y="964.2399999999999"/>
      <point x="1062.033333333333" y="964.22" type="curve" smooth="yes"/>
      <point x="1139.2599999999998" y="964.3600000000001"/>
      <point x="1194.2733333333333" y="1028.0399999999997"/>
      <point x="1195.7933333333335" y="1117.0733333333337" type="curve" smooth="yes"/>
      <point x="1201.0466666666669" y="1267.1733333333334"/>
      <point x="1075.2733333333333" y="1393.2399999999998"/>
      <point x="801.8066666666667" y="1393.2399999999998" type="curve" smooth="yes"/>
      <point x="495.3133333333334" y="1393.2399999999998"/>
      <point x="292.5333333333333" y="1229.9333333333334"/>
      <point x="256.10666666666674" y="1032.5133333333333" type="curve" smooth="yes"/>
      <point x="217.77999999999997" y="852.5866666666667"/>
      <point x="281.2305196622133" y="714.0857645454664"/>
      <point x="523.52" y="580.3800000000001" type="curve" smooth="yes"/>
      <point x="721.3419594819738" y="468.72210846093134"/>
      <point x="778.8759544699845" y="376.3229441677209"/>
      <point x="753.8133333333334" y="257.2466666666666" type="curve" smooth="yes"/>
      <point x="730.1414767417243" y="139.33977075497626"/>
      <point x="618.9533333333334" y="70.25333333333334"/>
      <point x="466.0266666666667" y="70.25333333333334" type="curve" smooth="yes"/>
      <point x="311.14000000000004" y="70.25333333333334"/>
      <point x="251.50060365358695" y="142.3756642850578"/>
      <point x="262.46666666666664" y="249.6466666666667" type="curve" smooth="yes"/>
      <point x="269.5" y="322.52000000000004" type="line" smooth="yes"/>
      <point x="279.2133333333333" y="399.1866666666667"/>
      <point x="243.08666666666664" y="445.03999999999996"/>
      <point x="176.44666666666672" y="444.47999999999996" type="curve" smooth="yes"/>
      <point x="100.62" y="444.0133333333334"/>
      <point x="40.70666666666668" y="379.2066666666666"/>
      <point x="37.973333333333336" y="280.6466666666667" type="curve" smooth="yes"/>
      <point x="31.026666666666667" y="120.94000000000001"/>
      <point x="165.5866666666667" y="4.640000000000001"/>
    </contour>
    <contour>
      <point x="673.8799999999999" y="740.52" type="line"/>
      <point x="805.1999999999999" y="1216.1133333333335"/>
      <point x="882.3799999999999" y="1388.5200000000002"/>
      <point x="911.5400000000001" y="1499.0533333333333" type="curve" smooth="yes"/>
      <point x="925.1799999999998" y="1548.56"/>
      <point x="905.0066666666668" y="1573.066666666667"/>
      <point x="871.5733333333333" y="1573.066666666667" type="curve" smooth="yes"/>
      <point x="835.4133333333333" y="1573.066666666667"/>
      <point x="804.4399999999998" y="1547.5"/>
      <point x="791.6533333333333" y="1500.8799999999997" type="curve" smooth="yes"/>
      <point x="759.9733333333334" y="1381.553333333333"/>
      <point x="746.2933333333334" y="1213.013333333333"/>
      <point x="614.66" y="740.52" type="curve"/>
    </contour>
    <contour>
      <point x="581.4999999999999" y="667.3999999999999" type="line"/>
      <point x="453.30666666666673" y="204.01999999999998"/>
      <point x="379.4" y="36.986666666666665"/>
      <point x="347.73999999999995" y="-81.56" type="curve" smooth="yes"/>
      <point x="333.5666666666667" y="-133.22666666666666"/>
      <point x="353.2066666666667" y="-158.06666666666666"/>
      <point x="387.76000000000005" y="-158.06666666666666" type="curve" smooth="yes"/>
      <point x="424.46666666666664" y="-158.06666666666666"/>
      <point x="454.3533333333333" y="-132.18"/>
      <point x="467.72" y="-83.49333333333334" type="curve" smooth="yes"/>
      <point x="497.9133333333333" y="29.21333333333333"/>
      <point x="511.5199999999999" y="201.7866666666667"/>
      <point x="640.9200000000001" y="667.3999999999999" type="curve"/>
    </contour>
  </outline>
</glyph>
<glyph name="ampersand" format="2">
  <advance width="1367.0333333333335"/>
  <unicode hex="0026"/>
  <outline>
    <contour>
      <point x="209.25333333333333" y="215.1466666666667" type="line" smooth="yes"/>
      <point x="4.600000000000001" y="56.346666666666664"/>
      <point x="-79.64666666666668" y="-87.80666666666664"/>
      <point x="-79.50666666666667" y="-230.04000000000002" type="curve" smooth="yes"/>
      <point x="-79.20666666666668" y="-349.79333333333335"/>
      <point x="-19.36" y="-408.05333333333334"/>
      <point x="61.45333333333333" y="-407.47333333333336" type="curve" smooth="yes"/>
      <point x="132.01333333333332" y="-406.89333333333343"/>
      <point x="183.16666666666666" y="-356.0466666666666"/>
      <point x="182.9133333333333" y="-295.63999999999993" type="curve" smooth="yes"/>
      <point x="182.28666666666663" y="-224.570303030303"/>
      <point x="111.29999999999998" y="-190.02424242424243"/>
      <point x="111.20666666666665" y="-100.1" type="curve" smooth="yes"/>
      <point x="110.90666666666665" y="-9.513333333333335"/>
      <point x="151.83333333333331" y="77.05999999999999"/>
      <point x="286.74666666666667" y="182.68666666666664" type="curve" smooth="yes"/>
      <point x="1237.9066666666668" y="935.9466666666667" type="line" smooth="yes"/>
      <point x="1439.4266666666665" y="1093.2933333333333"/>
      <point x="1516.8066666666668" y="1210.04"/>
      <point x="1516.3866666666668" y="1350.4266666666667" type="curve" smooth="yes"/>
      <point x="1515.8066666666666" y="1456.3666666666666"/>
      <point x="1457.5399999999997" y="1520.706666666667"/>
      <point x="1374.8266666666664" y="1519.9666666666667" type="curve" smooth="yes"/>
      <point x="1296.853333333333" y="1519.386666666667"/>
      <point x="1247.6933333333332" y="1463.84"/>
      <point x="1248.04" y="1402.56" type="curve" smooth="yes"/>
      <point x="1248.6666666666665" y="1334.842713864307"/>
      <point x="1314.8066666666666" y="1294.0400589970502"/>
      <point x="1314.8066666666666" y="1207.0133333333333" type="curve" smooth="yes"/>
      <point x="1315.2466666666664" y="1128.206666666667"/>
      <point x="1278.68" y="1064.2133333333336"/>
      <point x="1176.4533333333334" y="982.3799999999999" type="curve" smooth="yes"/>
    </contour>
    <contour>
      <point x="1008.2" y="315.82666666666677" type="curve" smooth="yes"/>
      <point x="1004.4600000000002" y="178.82000000000002"/>
      <point x="881.6466666666668" y="75.98666666666665"/>
      <point x="730.9733333333332" y="75.98666666666665" type="curve" smooth="yes"/>
      <point x="535.0608333333333" y="75.98666666666665"/>
      <point x="411.4077834524907" y="238.92518479907133"/>
      <point x="468.7333333333333" y="577.4066666666665" type="curve" smooth="yes"/>
      <point x="517.5287777045708" y="868.2722338300373"/>
      <point x="643.1950943396226" y="1028.4666666666667"/>
      <point x="775.8066666666667" y="1028.4666666666667" type="curve" smooth="yes"/>
      <point x="858.2055045346609" y="1028.4666666666667"/>
      <point x="899.3533273759837" y="962.8814248940621"/>
      <point x="891.9466666666667" y="829.1333333333332" type="curve" smooth="yes"/>
      <point x="885.4933333333333" y="747.5533333333333"/>
      <point x="870.2733333333333" y="690.8933333333334"/>
      <point x="852.8" y="642.42" type="curve"/>
      <point x="961.9133333333333" y="724.2533333333332"/>
      <point x="1036.6799999999998" y="757.4266666666666"/>
      <point x="1106.9733333333334" y="762.3266666666665" type="curve" smooth="yes"/>
      <point x="1156.9133333333334" y="767.5333333333334"/>
      <point x="1176.68" y="803.4599999999998"/>
      <point x="1180.0333333333335" y="860.64" type="curve" smooth="yes"/>
      <point x="1187.8733212317477" y="1000.3578181953119"/>
      <point x="1043.8912110249785" y="1115.12"/>
      <point x="830.4666666666667" y="1115.12" type="curve"/>
      <point x="500.74626506024094" y="1115.12"/>
      <point x="227.74653336669712" y="887.1113439943033"/>
      <point x="163.19333333333336" y="553.7199999999999" type="curve" smooth="yes"/>
      <point x="97.24063350452144" y="209.08990770624524"/>
      <point x="284.51799591002043" y="-22.253333333333334"/>
      <point x="649.6666666666667" y="-22.253333333333334" type="curve" smooth="yes"/>
      <point x="1020.6400000000001" y="-22.253333333333334"/>
      <point x="1253.5733333333333" y="215.41333333333333"/>
      <point x="1260.6799999999998" y="473.46000000000004" type="curve" smooth="yes"/>
      <point x="1263.2333333333333" y="577.2333333333332"/>
      <point x="1207.0066666666667" y="628.6933333333333"/>
      <point x="1124.1666666666667" y="628.6933333333333" type="curve" smooth="yes"/>
      <point x="1034.0066666666664" y="628.6933333333333"/>
      <point x="978.3266666666667" y="564.1"/>
      <point x="976.6333333333334" y="497.12" type="curve" smooth="yes"/>
      <point x="973.9400000000002" y="427.6066666666667"/>
      <point x="1010.7533333333334" y="389.76666666666665"/>
    </contour>
  </outline>
</glyph>
<glyph name="quotesingle" format="2">
  <advance width="344.44666666666666"/>
  <unicode hex="0027"/>
  <outline>
    <contour>
      <point x="278.04666666666674" y="872.2" type="curve" smooth="yes"/>
      <point x="308.0266666666667" y="872.2"/>
      <point x="332.89333333333326" y="888.8533333333332"/>
      <point x="350.6933333333333" y="928.2333333333333" type="curve" smooth="yes"/>
      <point x="539.0933333333335" y="1375.1599999999999" type="line" smooth="yes"/>
      <point x="595.18" y="1497.2266666666665"/>
      <point x="574.5866666666668" y="1568.8"/>
      <point x="472.82" y="1568.8" type="curve" smooth="yes"/>
      <point x="371.72" y="1568.8"/>
      <point x="310.44" y="1499.4733333333334"/>
      <point x="298.65999999999997" y="1374.56" type="curve" smooth="yes"/>
      <point x="239.52666666666667" y="929.1533333333332" type="line" smooth="yes"/>
      <point x="235.55333333333334" y="891.9133333333332"/>
      <point x="252.06000000000003" y="872.2"/>
    </contour>
  </outline>
</glyph>
<glyph name="parenleft" format="2">
  <advance width="695.8533333333332"/>
  <unicode hex="0028"/>
  <outline>
    <contour>
      <point x="208.93333333333337" y="642.6600000000001" type="curve" smooth="yes"/>
      <point x="94.53835116179295" y="219.53267473846782"/>
      <point x="215.64008783563145" y="-118.36064353124786"/>
      <point x="419.64" y="-231.84666666666666" type="curve" smooth="yes"/>
      <point x="456.5133333333333" y="-248.38666666666663"/>
      <point x="484.74" y="-246.64666666666668"/>
      <point x="500.4999999999999" y="-226.18000000000004" type="curve" smooth="yes"/>
      <point x="513.3666666666666" y="-209.94"/>
      <point x="506.46000000000004" y="-189.54666666666668"/>
      <point x="487.5333333333333" y="-159.77999999999997" type="curve" smooth="yes"/>
      <point x="372.38666666666666" y="1.326666666666664"/>
      <point x="337.02000000000004" y="291.87333333333333"/>
      <point x="428.65333333333336" y="631.2266666666667" type="curve" smooth="yes"/>
      <point x="516.1733333333333" y="954.8000000000001"/>
      <point x="691.3181539634523" y="1225.5604039226075"/>
      <point x="900.6266666666667" y="1390.66" type="curve" smooth="yes"/>
      <point x="935.8533333333332" y="1420.5666666666666"/>
      <point x="951.3333333333333" y="1440.9333333333334"/>
      <point x="945.7333333333333" y="1457.6200000000003" type="curve" smooth="yes"/>
      <point x="939.4066666666668" y="1478.3333333333333"/>
      <point x="910.3066666666666" y="1479.3666666666668"/>
      <point x="863.9466666666666" y="1462.4" type="curve" smooth="yes"/>
      <point x="589.2403030560579" y="1346.5890474558792"/>
      <point x="316.82740495944176" y="1044.051208886439"/>
    </contour>
  </outline>
</glyph>
<glyph name="asterisk" format="2">
  <advance width="1163.1066666666668"/>
  <unicode hex="002A"/>
  <outline>
    <contour>
      <point x="723.12" y="1001.7133333333334" type="line"/>
      <point x="773.5096848480343" y="1205.0586407844266"/>
      <point x="911.0348389699253" y="1322.2871696980562"/>
      <point x="940.4066666666666" y="1435.66" type="curve" smooth="yes"/>
      <point x="958.8101466912466" y="1506.4107334562334"/>
      <point x="921.2580392156864" y="1544.0666666666664"/>
      <point x="843.04" y="1544.0666666666664" type="curve" smooth="yes"/>
      <point x="758.9427777777778" y="1544.0666666666664"/>
      <point x="707.152160760201" y="1506.1408038010056"/>
      <point x="688.6933333333334" y="1435.3799999999997" type="curve" smooth="yes"/>
      <point x="659.3712389526081" y="1322.2900267584512"/>
      <point x="738.1763703905043" y="1205.0879308016715"/>
      <point x="688.1800000000001" y="1001.7133333333334" type="curve"/>
    </contour>
    <contour>
      <point x="704.4333333333334" y="1018.02" type="curve"/>
      <point x="706.2133333333333" y="984.5266666666666" type="line"/>
      <point x="905.5601589846586" y="1048.0024196055736"/>
      <point x="1030.26" y="980.8133333333333"/>
      <point x="1145.746666666667" y="1015.7599999999999" type="curve" smooth="yes"/>
      <point x="1217.48" y="1037.78"/>
      <point x="1253.4933333333333" y="1093.506666666667"/>
      <point x="1248.5866666666666" y="1168.7066666666667" type="curve" smooth="yes"/>
      <point x="1244.126666666667" y="1249.4066666666668"/>
      <point x="1202.5733333333333" y="1279.3133333333333"/>
      <point x="1129.5400000000002" y="1256.9399999999998" type="curve" smooth="yes"/>
      <point x="1015.6733333333334" y="1222.246666666667"/>
      <point x="903.887913963535" y="1080.8163464930858"/>
    </contour>
    <contour>
      <point x="715.2800000000001" y="1018.54" type="line"/>
      <point x="546.5145824729806" y="1081.3208668194586"/>
      <point x="507.4004376948033" y="1221.2030261527984"/>
      <point x="411.61333333333334" y="1256.2866666666666" type="curve" smooth="yes"/>
      <point x="350.38141580657134" y="1278.5347198171523"/>
      <point x="291.3280544121887" y="1245.8827754910442"/>
      <point x="247.55333333333334" y="1170.6000000000001" type="curve" smooth="yes"/>
      <point x="200.15459738685996" y="1090.466560082349"/>
      <point x="209.5732993175445" y="1037.2151235835672"/>
      <point x="269.5333333333333" y="1015.1999999999999" type="curve" smooth="yes"/>
      <point x="366.8817478234605" y="980.527448003853"/>
      <point x="527.2898197659667" y="1048.318010953459"/>
      <point x="695.6866666666667" y="985.1400000000001" type="curve"/>
    </contour>
    <contour>
      <point x="693.9333333333333" y="1011.8333333333334" type="line"/>
      <point x="539.4542545064795" y="848.1069283858334"/>
      <point x="378.2391784964827" y="817.625788895785"/>
      <point x="288.2733333333333" y="726.34" type="curve" smooth="yes"/>
      <point x="232.05106942615888" y="668.8865495181418"/>
      <point x="233.4816082203845" y="610.4314597109568"/>
      <point x="284.29333333333335" y="563.7866666666667" type="curve" smooth="yes"/>
      <point x="339.1826367196351" y="514.2024279505628"/>
      <point x="397.687545275528" y="519.4163112045692"/>
      <point x="453.12666666666667" y="576.44" type="curve" smooth="yes"/>
      <point x="542.3604429279404" y="668.0204928353141"/>
      <point x="562.432835474227" y="827.1012272210494"/>
      <point x="716.04" y="991.3933333333333" type="curve"/>
    </contour>
    <contour>
      <point x="688.4266666666665" y="991.18" type="line"/>
      <point x="761.4486027234622" y="826.1234338289022"/>
      <point x="700.7203012526785" y="668.1646103269051"/>
      <point x="741.9466666666667" y="575.7866666666666" type="curve" smooth="yes"/>
      <point x="768.0226005782977" y="518.7372844750764"/>
      <point x="828.1963817764577" y="516.1075393675874"/>
      <point x="903.5133333333333" y="562.6866666666667" type="curve" smooth="yes"/>
      <point x="984.0017196169346" y="612.4734572817622"/>
      <point x="1010.6764211044208" y="668.320329161253"/>
      <point x="985.2266666666666" y="725.3133333333333" type="curve" smooth="yes"/>
      <point x="943.5944430625052" y="816.9556540708209"/>
      <point x="795.6840477962968" y="847.1822157127247"/>
      <point x="721.7066666666667" y="1011.5266666666666" type="curve"/>
    </contour>
  </outline>
</glyph>
<glyph name="plus" format="2">
  <advance width="1067.1399999999999"/>
  <unicode hex="002B"/>
  <outline>
    <contour>
      <point x="480.93999999999994" y="253.30000000000004" type="curve" smooth="yes"/>
      <point x="518.3733333333333" y="252.86000000000004"/>
      <point x="546.5533333333334" y="276.13999999999993"/>
      <point x="554.6933333333333" y="304.1333333333333" type="curve" smooth="yes"/>
      <point x="752.8799999999999" y="1061.5733333333333" type="line" smooth="yes"/>
      <point x="760.72" y="1089.446666666667"/>
      <point x="746.3" y="1113.2933333333333"/>
      <point x="708.48" y="1113.7333333333331" type="curve" smooth="yes"/>
      <point x="671.6066666666668" y="1113.9666666666665"/>
      <point x="642.5199999999999" y="1091.0600000000002"/>
      <point x="634.68" y="1063.0866666666666" type="curve" smooth="yes"/>
      <point x="436.5266666666667" y="306.9133333333333" type="line" smooth="yes"/>
      <point x="428.69333333333327" y="277.99333333333334"/>
      <point x="444.14666666666665" y="253.5333333333334"/>
    </contour>
    <component base="minus" xOffset="-10.77333333333333" yOffset="2.04"/>
  </outline>
</glyph>
<glyph name="comma" format="2">
  <advance width="510.3666666666667"/>
  <unicode hex="002C"/>
  <outline>
    <contour>
      <point x="139.58666666666667" y="4.533333333333332" type="curve" smooth="yes"/>
      <point x="189.71999999999994" y="-2.3866666666666663" type="line" smooth="yes"/>
      <point x="226.50134097626366" y="-7.581981220157347"/>
      <point x="239.65333333333334" y="-14.346666666666668"/>
      <point x="235.7466666666666" y="-45.1" type="curve" smooth="yes"/>
      <point x="225.74666666666667" y="-113.97333333333333"/>
      <point x="143.46666666666667" y="-216.41333333333336"/>
      <point x="-0.7800000000000011" y="-273.8066666666667" type="curve" smooth="yes"/>
      <point x="-42.47333333333333" y="-290.78666666666663"/>
      <point x="-56.49333333333334" y="-311.12"/>
      <point x="-48.62666666666666" y="-334.9333333333333" type="curve" smooth="yes"/>
      <point x="-40.29333333333333" y="-357.44"/>
      <point x="-12.466666666666669" y="-363.78000000000003"/>
      <point x="34.760000000000005" y="-346.5266666666667" type="curve" smooth="yes"/>
      <point x="212.11999999999998" y="-282.94666666666666"/>
      <point x="363.92666666666656" y="-115.22666666666666"/>
      <point x="383.8866666666666" y="97.98666666666668" type="curve"/>
      <point x="395.1666666666666" y="214.24000000000004"/>
      <point x="344.15333333333336" y="283.76666666666665"/>
      <point x="243.47333333333333" y="283.76666666666665" type="curve" smooth="yes"/>
      <point x="132.74" y="283.76666666666665"/>
      <point x="51.033333333333324" y="202.45999999999995"/>
      <point x="46.67333333333333" y="118.23333333333335" type="curve" smooth="yes"/>
      <point x="42.23333333333333" y="57.059999999999995"/>
      <point x="74.83999999999999" y="13.69333333333333"/>
    </contour>
  </outline>
</glyph>
<glyph name="hyphen" format="2">
  <advance width="694.7"/>
  <unicode hex="002D"/>
  <outline>
    <contour>
      <point x="613.1466666666668" y="597.6399999999999" type="curve" smooth="yes"/>
      <point x="165.38666666666666" y="597.6399999999999" type="line" smooth="yes"/>
      <point x="137.05333333333334" y="597.6399999999999"/>
      <point x="121.98666666666666" y="588.6133333333333"/>
      <point x="107.76" y="556.7600000000001" type="curve" smooth="yes"/>
      <point x="75.36666666666669" y="478.3933333333333" type="line" smooth="yes"/>
      <point x="60.54666666666667" y="445.3066666666667"/>
      <point x="70.32666666666667" y="427.26666666666665"/>
      <point x="103.8" y="427.26666666666665" type="curve" smooth="yes"/>
      <point x="550.5600000000001" y="427.26666666666665" type="line" smooth="yes"/>
      <point x="579.2400000000001" y="427.26666666666665"/>
      <point x="594.9799999999999" y="436.6133333333334"/>
      <point x="608.8266666666668" y="468.08000000000004" type="curve" smooth="yes"/>
      <point x="641.7533333333334" y="547.3133333333334" type="line" smooth="yes"/>
      <point x="656.3666666666666" y="580.0133333333333"/>
      <point x="646.5133333333334" y="597.6399999999999"/>
    </contour>
  </outline>
</glyph>
<glyph name="period" format="2">
  <advance width="495.4266666666666"/>
  <unicode hex="002E"/>
  <outline>
    <contour>
      <point x="171.58" y="-18.06666666666667" type="curve" smooth="yes"/>
      <point x="291.99999999999994" y="-18.06666666666667"/>
      <point x="373.8333333333333" y="58.47999999999999"/>
      <point x="378.2733333333333" y="146.2333333333333" type="curve" smooth="yes"/>
      <point x="383.02" y="220.65999999999997"/>
      <point x="337.0666666666666" y="276.8533333333334"/>
      <point x="241.62666666666672" y="276.8533333333334" type="curve" smooth="yes"/>
      <point x="120.31333333333336" y="276.8533333333334"/>
      <point x="35.88" y="198.83333333333334"/>
      <point x="31.226666666666663" y="108.59999999999998" type="curve" smooth="yes"/>
      <point x="26.78666666666666" y="36.693333333333335"/>
      <point x="77.59333333333332" y="-18.06666666666667"/>
    </contour>
  </outline>
</glyph>
<glyph name="slash" format="2">
  <advance width="859.16"/>
  <unicode hex="002F"/>
  <outline>
    <contour>
      <point x="507.07333333333327" y="600.4333333333334" type="curve" smooth="yes"/>
      <point x="621.0609511666635" y="810.1892139045075"/>
      <point x="866.908872622542" y="1243.3033672536528"/>
      <point x="977.6933333333334" y="1451.8266666666666" type="curve" smooth="yes"/>
      <point x="1003.7533333333332" y="1499.62"/>
      <point x="999.5799999999998" y="1538.1333333333334"/>
      <point x="964.6533333333335" y="1551.5533333333333" type="curve" smooth="yes"/>
      <point x="925.4466666666667" y="1566.1133333333332"/>
      <point x="889.2600000000001" y="1545.2533333333333"/>
      <point x="863.3333333333334" y="1500.1399999999996" type="curve" smooth="yes"/>
      <point x="755.3066666666666" y="1297.0533333333333"/>
      <point x="529.8413110248646" y="844.1265207726534"/>
      <point x="416.54666666666674" y="633.4333333333334" type="curve" smooth="yes"/>
      <point x="303.97382132037484" y="423.2105802868419"/>
      <point x="46.92666666666668" y="-14.160000000000002"/>
      <point x="-62.10666666666667" y="-218.65333333333336" type="curve" smooth="yes"/>
      <point x="-89.92666666666668" y="-266.44000000000005"/>
      <point x="-83.64666666666666" y="-302.6"/>
      <point x="-46.266666666666666" y="-316.71333333333337" type="curve" smooth="yes"/>
      <point x="-7.56666666666667" y="-331.62"/>
      <point x="28.580000000000005" y="-311.06"/>
      <point x="54.34000000000001" y="-266.1666666666667" type="curve" smooth="yes"/>
      <point x="164.71333333333334" y="-57.693333333333335"/>
      <point x="394.74181673446384" y="390.4261649682421"/>
    </contour>
  </outline>
</glyph>
<glyph name="zero" format="2">
  <advance width="1305.52"/>
  <unicode hex="0030"/>
  <outline>
    <contour>
      <point x="913.6689753703891" y="1422.9333333333332" type="curve" smooth="yes"/>
      <point x="556.228975370389" y="1422.9333333333332"/>
      <point x="261.44157520099554" y="1148.807549280115"/>
      <point x="149.50490947881474" y="710.18" type="curve" smooth="yes"/>
      <point x="37.46284344207531" y="271.1666666666667"/>
      <point x="165.43769129627756" y="-22.28"/>
      <point x="531.9576912962775" y="-22.28" type="curve" smooth="yes"/>
      <point x="864.8710246296109" y="-22.28"/>
      <point x="1170.548779466234" y="231.93333333333334"/>
      <point x="1290.1895386424023" y="696.8266666666666" type="curve" smooth="yes"/>
      <point x="1401.1660941012867" y="1129.371825577299"/>
      <point x="1271.1356420370557" y="1422.9333333333332"/>
    </contour>
    <contour>
      <point x="986.4404503272804" y="692.0733333333334" type="curve" smooth="yes"/>
      <point x="879.8276443093107" y="274.1280911339087"/>
      <point x="710.0244096902594" y="75.77333333333333"/>
      <point x="552.1857089447853" y="75.77333333333333" type="curve" smooth="yes"/>
      <point x="378.7598265918443" y="75.77333333333333"/>
      <point x="335.9133008029913" y="257.19519393777955"/>
      <point x="455.552690933365" y="723.9333333333334" type="curve" smooth="yes"/>
      <point x="553.8811579174929" y="1106.5499185373994"/>
      <point x="717.550188491112" y="1324.6266666666668"/>
      <point x="886.6209577218813" y="1324.6266666666668" type="curve" smooth="yes"/>
      <point x="1063.5181005790241" y="1324.6266666666668"/>
      <point x="1100.8725036107044" y="1142.6245702924607"/>
    </contour>
  </outline>
</glyph>
<glyph name="one" format="2">
  <advance width="850.66"/>
  <unicode hex="0031"/>
  <outline>
    <contour>
      <point x="348.66666666666663" y="1220.493333333333" type="line" smooth="yes"/>
      <point x="309.53333333333336" y="1220.493333333333"/>
      <point x="294.0666666666667" y="1241.5066666666667"/>
      <point x="300.79999999999995" y="1274.2399999999998" type="curve" smooth="yes"/>
      <point x="307.16" y="1307.446666666667"/>
      <point x="333.12000000000006" y="1334.7733333333333"/>
      <point x="382.03333333333336" y="1334.7733333333333" type="curve" smooth="yes"/>
      <point x="512.16" y="1335.7466666666667" type="line" smooth="yes"/>
      <point x="613.3516083916084" y="1335.9466666666667"/>
      <point x="664.0688581858783" y="1356.2319062826987"/>
      <point x="732.2533333333333" y="1403.3866666666668" type="curve" smooth="yes"/>
      <point x="760.7625095495185" y="1421.995361235508"/>
      <point x="780.88" y="1432.226666666667"/>
      <point x="801.1933333333332" y="1432.226666666667" type="curve" smooth="yes"/>
      <point x="838.3133333333332" y="1432.226666666667"/>
      <point x="855.9" y="1412.0200000000002"/>
      <point x="844.2933333333334" y="1370.3666666666666" type="curve" smooth="yes"/>
      <point x="522.26" y="185.76" type="line" smooth="yes"/>
      <point x="510.4448071663467" y="143.97801021269183"/>
      <point x="515.0866666666666" y="119.85333333333335"/>
      <point x="557.5666666666666" y="113.27333333333334" type="curve" smooth="yes"/>
      <point x="668.5" y="98.11333333333333" type="line" smooth="yes"/>
      <point x="695.4756186670138" y="92.20687999989634"/>
      <point x="706.7799999999999" y="76.55999999999999"/>
      <point x="705.54" y="53.98" type="curve" smooth="yes"/>
      <point x="704.5133333333332" y="19.3078431372549"/>
      <point x="678.8866666666667" y="0.0"/>
      <point x="640.7333333333332" y="0.0" type="curve" smooth="yes"/>
      <point x="31.64666666666667" y="0.0" type="line" smooth="yes"/>
      <point x="-6.966666666666669" y="0.0"/>
      <point x="-22.426666666666666" y="17.34666666666666"/>
      <point x="-21.106666666666666" y="47.41333333333334" type="curve" smooth="yes"/>
      <point x="-19.680000000000003" y="75.11333333333332"/>
      <point x="0.19999999999999973" y="94.7533333333333"/>
      <point x="31.700000000000003" y="100.70000000000002" type="curve" smooth="yes"/>
      <point x="163.06666666666663" y="116.22000000000003" type="line" smooth="yes"/>
      <point x="198.1266666666667" y="121.13333333333335"/>
      <point x="222.2408065845412" y="144.34397661355348"/>
      <point x="235.08666666666667" y="188.48666666666665" type="curve" smooth="yes"/>
      <point x="497.3399999999999" y="1142.4" type="line" smooth="yes"/>
      <point x="514.2443348235099" y="1202.1645189216072"/>
      <point x="502.83120567375886" y="1219.5199999999998"/>
      <point x="460.85333333333335" y="1219.5199999999998" type="curve" smooth="yes"/>
    </contour>
  </outline>
</glyph>
<glyph name="two" format="2">
  <advance width="1169.5399999999997"/>
  <unicode hex="0032"/>
  <outline>
    <contour>
      <point x="188.68666666666667" y="264.3333333333333" type="line"/>
      <point x="549.6066666666666" y="438.38" type="line" smooth="yes"/>
      <point x="996.8068920670424" y="662.6876042679562"/>
      <point x="1176.5844314903259" y="821.9168523048595"/>
      <point x="1229.3600000000001" y="1019.5866666666668" type="curve" smooth="yes"/>
      <point x="1292.8232343147154" y="1255.537700158499"/>
      <point x="1180.7999999999997" y="1425.3999999999999"/>
      <point x="872.0199999999999" y="1425.3999999999999" type="curve" smooth="yes"/>
      <point x="543.3866666666667" y="1425.3999999999999"/>
      <point x="330.51031111173336" y="1245.1204115249384"/>
      <point x="279.73333333333335" y="1057.1466666666665" type="curve" smooth="yes"/>
      <point x="252.05333333333334" y="954.6400000000001"/>
      <point x="291.62666666666667" y="896.1400000000001"/>
      <point x="377.78666666666663" y="896.1400000000001" type="curve"/>
      <point x="460.7799999999999" y="896.1400000000001"/>
      <point x="529.78" y="952.1066666666666"/>
      <point x="555.6333333333334" y="1047.3000000000002" type="curve" smooth="yes"/>
      <point x="581.8666666666667" y="1142.9933333333336" type="line" smooth="yes"/>
      <point x="614.435230269688" y="1259.6064307068177"/>
      <point x="694.6266666666666" y="1341.6733333333332"/>
      <point x="818.1066666666667" y="1341.6733333333332" type="curve" smooth="yes"/>
      <point x="933.9466666666665" y="1341.6733333333332"/>
      <point x="982.2866666666666" y="1239.16"/>
      <point x="924.4333333333333" y="1023.48" type="curve" smooth="yes"/>
      <point x="861.9866666666668" y="789.1333333333332"/>
      <point x="706.2399999999999" y="622.4066666666665"/>
      <point x="391.84" y="447.14" type="curve" smooth="yes"/>
      <point x="166.43999999999997" y="318.12666666666667" type="line"/>
    </contour>
    <contour>
      <point x="-1.6799999999999984" y="126.94" type="curve" smooth="yes"/>
      <point x="-26.046666666666663" y="33.05333333333333"/>
      <point x="10.946666666666662" y="-23.16"/>
      <point x="85.21333333333332" y="-23.16" type="curve" smooth="yes"/>
      <point x="167.92666666666665" y="-23.16"/>
      <point x="227.69333333333336" y="20.733333333333334"/>
      <point x="274.6866666666666" y="149.42666666666665" type="curve" smooth="yes"/>
      <point x="303.07398061999413" y="231.89751899176014"/>
      <point x="332.6466666666667" y="265.3533333333333"/>
      <point x="371.26" y="265.3533333333333" type="curve" smooth="yes"/>
      <point x="409.0666666666666" y="265.3533333333333"/>
      <point x="429.5004149127245" y="243.51106534488542"/>
      <point x="459.9933333333333" y="187.29333333333332" type="curve" smooth="yes"/>
      <point x="501.35999999999996" y="30.413333333333327"/>
      <point x="570.64" y="-24.01333333333333"/>
      <point x="710.5999999999999" y="-24.01333333333333" type="curve" smooth="yes"/>
      <point x="869.2333333333333" y="-24.01333333333333"/>
      <point x="995.0333333333333" y="74.96"/>
      <point x="1091.4066666666665" y="336.52000000000004" type="curve" smooth="yes"/>
      <point x="1110.253333333333" y="387.18"/>
      <point x="1099.36" y="408.5733333333333"/>
      <point x="1070.4133333333334" y="410.9933333333334" type="curve" smooth="yes"/>
      <point x="1050.2733333333335" y="412.9333333333333"/>
      <point x="1029.7133333333331" y="401.5466666666666"/>
      <point x="1007.98" y="370.6333333333334" type="curve" smooth="yes"/>
      <point x="951.7999999999998" y="276.90000000000003"/>
      <point x="896.0533333333333" y="240.31999999999996"/>
      <point x="809.7266666666665" y="240.31999999999996" type="curve" smooth="yes"/>
      <point x="665.62" y="240.31999999999996"/>
      <point x="524.68" y="360.67999999999995"/>
      <point x="350.52000000000004" y="360.67999999999995" type="curve" smooth="yes"/>
      <point x="162.67333333333337" y="360.67999999999995"/>
      <point x="33.86" y="262.49333333333334"/>
    </contour>
  </outline>
</glyph>
<glyph name="three" format="2">
  <advance width="1077.606666666667"/>
  <unicode hex="0033"/>
  <outline>
    <contour>
      <point x="558.8218666666667" y="734.3333333333334" type="line"/>
      <point x="1183.2112" y="1254.7733333333333" type="line" smooth="yes"/>
      <point x="1237.4898666666668" y="1295.9199999999998"/>
      <point x="1263.7836000000002" y="1321.4000000000003"/>
      <point x="1269.5569333333333" y="1350.0533333333333" type="curve" smooth="yes"/>
      <point x="1276.3169333333335" y="1379.32"/>
      <point x="1258.7376" y="1400.0"/>
      <point x="1220.7406666666668" y="1400.0" type="curve" smooth="yes"/>
      <point x="480.8786666666666" y="1400.0" type="line" smooth="yes"/>
      <point x="427.9901333333334" y="1400.0"/>
      <point x="392.2904000000001" y="1372.9266666666665"/>
      <point x="374.3661333333333" y="1327.4866666666667" type="curve" smooth="yes"/>
      <point x="265.4720000000001" y="1043.5866666666666" type="line" smooth="yes"/>
      <point x="248.6898666666667" y="1000.4466666666665"/>
      <point x="266.0604" y="980.9133333333334"/>
      <point x="297.8969333333333" y="980.3066666666667" type="curve" smooth="yes"/>
      <point x="330.04013333333336" y="979.9666666666669"/>
      <point x="352.34226666666666" y="999.3866666666668"/>
      <point x="367.96160000000003" y="1029.34" type="curve" smooth="yes"/>
      <point x="415.38200000000006" y="1115.38" type="line" smooth="yes"/>
      <point x="436.40906666666666" y="1154.4466666666665"/>
      <point x="461.31546666666674" y="1170.42"/>
      <point x="507.1409333333333" y="1170.42" type="curve" smooth="yes"/>
      <point x="1036.3598666666667" y="1170.42" type="line"/>
      <point x="1051.6494666666667" y="1256.7533333333333" type="line"/>
      <point x="496.59159999999997" y="798.1733333333334" type="line" smooth="yes"/>
      <point x="460.9402666666667" y="770.8266666666667"/>
      <point x="439.1188" y="747.5600000000001"/>
      <point x="433.45213333333334" y="719.4000000000001" type="curve" smooth="yes"/>
      <point x="426.17213333333336" y="687.0600000000001"/>
      <point x="444.1504" y="669.9066666666668"/>
      <point x="481.7785333333334" y="669.9066666666668" type="curve" smooth="yes"/>
      <point x="539.9061333333333" y="669.9066666666668" type="line" smooth="yes"/>
      <point x="711.0905333333333" y="669.9066666666668"/>
      <point x="773.1969333333334" y="571.9999999999999"/>
      <point x="714.9890666666668" y="356.9666666666666" type="curve" smooth="yes"/>
      <point x="661.4089333333335" y="159.5666666666667"/>
      <point x="542.5349333333332" y="61.71333333333335"/>
      <point x="416.77959999999996" y="61.62000000000002" type="curve" smooth="yes"/>
      <point x="296.8" y="61.42000000000003"/>
      <point x="247.61159999999998" y="118.78"/>
      <point x="274.76800000000003" y="219.96666666666667" type="curve" smooth="yes"/>
      <point x="295.7358666666667" y="294.1600000000001" type="line" smooth="yes"/>
      <point x="319.3234666666667" y="380.0733333333334"/>
      <point x="284.4132" y="440.9533333333334"/>
      <point x="195.66813333333334" y="440.9533333333334" type="curve" smooth="yes"/>
      <point x="110.54186666666666" y="440.9533333333334"/>
      <point x="37.443066666666674" y="373.97333333333336"/>
      <point x="20.563066666666675" y="271.0266666666667" type="curve" smooth="yes"/>
      <point x="-11.423599999999993" y="108.26"/>
      <point x="106.37973333333333" y="-25.186666666666664"/>
      <point x="390.8432" y="-25.186666666666664" type="curve" smooth="yes"/>
      <point x="698.8357333333335" y="-25.186666666666664"/>
      <point x="939.6884000000003" y="136.41333333333336"/>
      <point x="1008.2485333333333" y="387.32666666666665" type="curve" smooth="yes"/>
      <point x="1074.9922666666666" y="629.5533333333332"/>
      <point x="941.5954666666668" y="780.0533333333333"/>
      <point x="657.2289333333334" y="775.4133333333334" type="curve" smooth="yes"/>
      <point x="620.9344000000001" y="775.1133333333333"/>
      <point x="574.1201333333333" y="770.8133333333333"/>
      <point x="546.4326666666667" y="763.1266666666667" type="curve"/>
    </contour>
  </outline>
</glyph>
<glyph name="four" format="2">
  <advance width="1127.9533333333331"/>
  <unicode hex="0034"/>
  <outline>
    <contour>
      <point x="671.4" y="698.0266666666666" type="curve" smooth="yes"/>
      <point x="528.6133333333332" y="185.67333333333335" type="line" smooth="yes"/>
      <point x="516.8399999999999" y="144.22666666666672"/>
      <point x="493.79999999999995" y="122.99999999999997"/>
      <point x="458.72" y="117.11999999999999" type="curve" smooth="yes"/>
      <point x="357.28" y="100.83999999999999" type="line" smooth="yes"/>
      <point x="324.84666666666664" y="94.20666666666669"/>
      <point x="303.38000000000005" y="75.57333333333334"/>
      <point x="297.59333333333336" y="48.51333333333332" type="curve" smooth="yes"/>
      <point x="291.5133333333333" y="17.733333333333334"/>
      <point x="306.06666666666666" y="0.14"/>
      <point x="345.5333333333333" y="0.14" type="curve" smooth="yes"/>
      <point x="887.8666666666668" y="0.14" type="line" smooth="yes"/>
      <point x="927.8733333333332" y="0.14"/>
      <point x="952.1533333333332" y="18.986666666666665"/>
      <point x="958.4333333333334" y="51.053333333333335" type="curve" smooth="yes"/>
      <point x="964.1133333333335" y="76.11333333333333"/>
      <point x="951.0133333333333" y="91.14666666666668"/>
      <point x="922.3133333333333" y="100.39999999999999" type="curve" smooth="yes"/>
      <point x="842.5266666666666" y="116.23999999999997" type="line" smooth="yes"/>
      <point x="809.6044726107706" y="123.60112311929095"/>
      <point x="797.6752821191553" y="143.86590332072737"/>
      <point x="808.8666666666667" y="183.19333333333336" type="curve" smooth="yes"/>
      <point x="1009.6600000000002" y="919.0333333333334" type="line" smooth="yes"/>
      <point x="1017.9103886724081" y="948.2991374194338"/>
      <point x="1008.1199999999998" y="961.2466666666667"/>
      <point x="988.6800000000002" y="961.2466666666667" type="curve" smooth="yes"/>
      <point x="971.7666666666668" y="961.2466666666667"/>
      <point x="957.1599999999999" y="955.2733333333333"/>
      <point x="926.8733333333333" y="932.6266666666667" type="curve" smooth="yes"/>
      <point x="718.5199999999999" y="768.3600000000001" type="line" smooth="yes"/>
      <point x="695.9333333333333" y="750.9933333333332"/>
      <point x="680.5666666666667" y="730.0066666666667"/>
    </contour>
    <contour>
      <point x="573.6733333333333" y="930.04" type="curve" smooth="yes"/>
      <point x="59.906666666666666" y="482.1533333333333" type="line" smooth="yes"/>
      <point x="16.919999999999998" y="450.78666666666663"/>
      <point x="0.5200000000000019" y="427.11333333333334"/>
      <point x="-3.946666666666665" y="402.7866666666667" type="curve" smooth="yes"/>
      <point x="-11.373333333333331" y="370.31333333333333"/>
      <point x="4.599999999999998" y="347.6466666666666"/>
      <point x="43.34" y="347.6466666666666" type="curve" smooth="yes"/>
      <point x="1008.3466666666667" y="347.3399999999999" type="line" smooth="yes"/>
      <point x="1049.3133333333335" y="347.3399999999999"/>
      <point x="1073.1333333333332" y="368.4729411764706"/>
      <point x="1080.0666666666668" y="402.73333333333335" type="curve" smooth="yes"/>
      <point x="1086.1665995366425" y="433.97590506852146"/>
      <point x="1067.7199999999998" y="448.04"/>
      <point x="1035.4933333333333" y="448.04" type="curve" smooth="yes"/>
      <point x="90.91333333333331" y="448.04" type="line"/>
      <point x="97.34" y="400.78000000000003" type="line"/>
      <point x="805.3133333333334" y="998.9066666666669" type="line" smooth="yes"/>
      <point x="967.3866666666665" y="1126.0666666666666"/>
      <point x="1022.1533333333335" y="1206.0800000000002"/>
      <point x="1037.18" y="1293.56" type="curve" smooth="yes"/>
      <point x="1054.4333333333332" y="1384.1533333333334"/>
      <point x="1001.0066666666668" y="1437.54"/>
      <point x="903.7" y="1437.54" type="curve" smooth="yes"/>
      <point x="786.2466666666667" y="1437.54"/>
      <point x="705.2000000000002" y="1373.14"/>
      <point x="679.8533333333335" y="1279.8533333333332" type="curve" smooth="yes"/>
      <point x="655.9599999999999" y="1190.0"/>
      <point x="708.0400000000001" y="1136.8466666666668"/>
      <point x="687.8666666666667" y="1065.3933333333334" type="curve" smooth="yes"/>
      <point x="675.9" y="1020.4599999999999"/>
      <point x="638.6" y="980.02"/>
    </contour>
  </outline>
</glyph>
<glyph name="five" format="2">
  <advance width="1098.04"/>
  <unicode hex="0035"/>
  <outline>
    <contour>
      <point x="42.739480666666665" y="271.68666666666667" type="curve" smooth="yes"/>
      <point x="10.148704314470454" y="110.14378762922202"/>
      <point x="130.23314733333333" y="-25.186666666666664"/>
      <point x="404.77654466666667" y="-25.186666666666664" type="curve" smooth="yes"/>
      <point x="707.9854619999999" y="-25.186666666666664"/>
      <point x="954.1610714930108" y="140.78770641181336"/>
      <point x="1030.7164513333332" y="413.40000000000003" type="curve" smooth="yes"/>
      <point x="1102.9991980924337" y="672.2735155012381"/>
      <point x="970.3668914901959" y="846.0466666666667"/>
      <point x="700.0585419999999" y="846.0466666666667" type="curve" smooth="yes"/>
      <point x="538.7896633224341" y="846.0466666666667"/>
      <point x="411.9598897465246" y="789.5644061848072"/>
      <point x="277.85391000000004" y="671.92" type="curve"/>
      <point x="314.7506113333333" y="658.0066666666668" type="line"/>
      <point x="485.79325933333314" y="1273.9199999999998" type="line"/>
      <point x="400.60519266666665" y="1192.3333333333333" type="line"/>
      <point x="489.6714470129064" y="1123.9390363352536"/>
      <point x="633.4552130723426" y="1075.5000000000002"/>
      <point x="795.2419193333334" y="1075.5000000000002" type="curve" smooth="yes"/>
      <point x="1019.9839623440861" y="1075.5000000000002"/>
      <point x="1182.821670433931" y="1165.327938665873"/>
      <point x="1269.6741860000002" y="1370.0199999999998" type="curve" smooth="yes"/>
      <point x="1288.932452666667" y="1411.186666666667"/>
      <point x="1280.5885859999999" y="1426.4733333333334"/>
      <point x="1266.4931193333332" y="1431.7399999999998" type="curve" smooth="yes"/>
      <point x="1250.424319333333" y="1438.58"/>
      <point x="1231.5916526666667" y="1430.16"/>
      <point x="1206.6845859999999" y="1412.5933333333332" type="curve" smooth="yes"/>
      <point x="1138.7141856858982" y="1347.0035010668905"/>
      <point x="1038.0403803502825" y="1316.3133333333333"/>
      <point x="902.1703193333333" y="1316.3133333333333" type="curve" smooth="yes"/>
      <point x="773.5166274415254" y="1316.3133333333333"/>
      <point x="666.8987892840473" y="1355.986858438202"/>
      <point x="566.043558" y="1408.46" type="curve" smooth="yes"/>
      <point x="542.4400513333334" y="1418.4066666666665"/>
      <point x="520.9121233333334" y="1423.8666666666666"/>
      <point x="498.0630726666667" y="1423.8666666666666" type="curve" smooth="yes"/>
      <point x="443.9873553333334" y="1423.8666666666666"/>
      <point x="412.8806193333333" y="1393.4"/>
      <point x="398.64946199999997" y="1344.3999999999999" type="curve" smooth="yes"/>
      <point x="200.055878" y="623.7066666666667" type="line" smooth="yes"/>
      <point x="189.7858433333333" y="587.2866666666667"/>
      <point x="205.99587800000003" y="569.1"/>
      <point x="234.340438" y="569.1" type="curve" smooth="yes"/>
      <point x="260.04057666666665" y="569.1"/>
      <point x="279.0106806666667" y="580.5933333333332"/>
      <point x="315.48541399999993" y="601.94" type="curve" smooth="yes"/>
      <point x="409.5290094051501" y="687.6631398200063"/>
      <point x="501.1727040286299" y="732.4266666666665"/>
      <point x="585.5125953333334" y="732.4266666666665" type="curve" smooth="yes"/>
      <point x="733.6820938095236" y="732.4266666666665"/>
      <point x="803.5992241556344" y="620.5462023951145"/>
      <point x="739.2337740000002" y="385.29333333333335" type="curve" smooth="yes"/>
      <point x="676.8464868591358" y="156.251211482854"/>
      <point x="559.9987205023697" y="61.62000000000002"/>
      <point x="437.10195000000004" y="61.62000000000002" type="curve" smooth="yes"/>
      <point x="317.087847676856" y="61.62000000000002"/>
      <point x="268.9811767916472" y="124.12909375826723"/>
      <point x="296.3663153333334" y="223.29333333333332" type="curve" smooth="yes"/>
      <point x="317.38989133333337" y="297.16666666666663" type="line" smooth="yes"/>
      <point x="342.045886" y="384.4333333333333"/>
      <point x="308.07621133333333" y="442.6933333333334"/>
      <point x="220.03924599999996" y="442.6933333333334" type="curve" smooth="yes"/>
      <point x="135.60817133333336" y="442.6933333333334"/>
      <point x="58.95281400000001" y="374.29999999999995"/>
    </contour>
  </outline>
</glyph>
<glyph name="six" format="2">
  <advance width="1193.9666666666667"/>
  <unicode hex="0036"/>
  <outline>
    <contour>
      <point x="943.3733333333333" y="1425.6" type="curve" smooth="yes"/>
      <point x="593.7406387225548" y="1425.6"/>
      <point x="283.5133333333334" y="1178.7266666666667"/>
      <point x="150.73999999999998" y="699.4066666666668" type="curve" smooth="yes"/>
      <point x="27.666666666666668" y="255.23333333333323"/>
      <point x="162.96" y="-24.879999999999995"/>
      <point x="512.02" y="-24.879999999999995" type="curve" smooth="yes"/>
      <point x="812.2599999999999" y="-24.879999999999995"/>
      <point x="1048.1266666666668" y="140.46"/>
      <point x="1120.793333333333" y="404.83333333333337" type="curve" smooth="yes"/>
      <point x="1197.34" y="681.5733333333335"/>
      <point x="1071.226666666667" y="852.6933333333334"/>
      <point x="820.5133333333333" y="852.6933333333334" type="curve" smooth="yes"/>
      <point x="597.1666666666666" y="852.6933333333334"/>
      <point x="385.9466666666666" y="707.2266666666667"/>
      <point x="321.2200000000001" y="511.9266666666666" type="curve"/>
      <point x="365.56666666666666" y="479.29333333333335" type="line"/>
      <point x="417.97333333333336" y="627.2866666666666"/>
      <point x="565.4333333333332" y="735.74"/>
      <point x="694.0933333333332" y="735.74" type="curve" smooth="yes"/>
      <point x="832.4933333333332" y="735.74"/>
      <point x="897.6399999999999" y="627.96"/>
      <point x="837.7666666666668" y="402.21999999999997" type="curve" smooth="yes"/>
      <point x="779.2733333333333" y="184.26666666666665"/>
      <point x="666.0999999999999" y="70.76666666666665"/>
      <point x="530.32" y="70.76666666666665" type="curve" smooth="yes"/>
      <point x="377.82" y="70.76666666666665"/>
      <point x="310.93333333333334" y="209.28666666666666"/>
      <point x="434.38000000000005" y="659.4599999999999" type="curve" smooth="yes"/>
      <point x="569.8333333333333" y="1155.0133333333335"/>
      <point x="743.7866666666666" y="1329.4466666666665"/>
      <point x="897.36" y="1329.4466666666665" type="curve" smooth="yes"/>
      <point x="1002.0333333333332" y="1329.4466666666665"/>
      <point x="1036.8" y="1277.4333333333334"/>
      <point x="1011.7866666666667" y="1185.66" type="curve" smooth="yes"/>
      <point x="995.9799999999999" y="1128.7333333333336" type="line" smooth="yes"/>
      <point x="970.2133333333334" y="1037.6066666666666"/>
      <point x="1006.6733333333334" y="983.1800000000001"/>
      <point x="1104.3733333333332" y="983.1800000000001" type="curve" smooth="yes"/>
      <point x="1190.5933333333332" y="983.1800000000001"/>
      <point x="1262.1133333333335" y="1039.2666666666669"/>
      <point x="1282.9333333333334" y="1137.06" type="curve" smooth="yes"/>
      <point x="1317.0800000000002" y="1288.1266666666666"/>
      <point x="1199.5733333333333" y="1425.6"/>
    </contour>
  </outline>
</glyph>
<glyph name="seven" format="2">
  <advance width="1022.62"/>
  <unicode hex="0037"/>
  <outline>
    <contour>
      <point x="1011.64" y="1174.3333333333333" type="line"/>
      <point x="658.5133333333334" y="787.08" type="line" smooth="yes"/>
      <point x="412.2266666666667" y="553.8399999999998"/>
      <point x="251.2661627965876" y="385.3956093607082"/>
      <point x="202.63333333333333" y="211.8066666666667" type="curve" smooth="yes"/>
      <point x="160.50666666666663" y="60.10666666666666"/>
      <point x="212.78" y="-24.65333333333333"/>
      <point x="336.38666666666666" y="-24.65333333333333" type="curve" smooth="yes"/>
      <point x="451.4933333333333" y="-24.65333333333333"/>
      <point x="534.6066666666667" y="46.65999999999999"/>
      <point x="559.7333333333333" y="138.07333333333332" type="curve" smooth="yes"/>
      <point x="591.2066666666666" y="254.18000000000004"/>
      <point x="521.0578207785435" y="331.0411108694884"/>
      <point x="555.2600000000002" y="450.38" type="curve" smooth="yes"/>
      <point x="586.3109071693887" y="560.2309783633535"/>
      <point x="653.7533333333333" y="650.6666666666667"/>
      <point x="828.4200000000001" y="817.5933333333334" type="curve" smooth="yes"/>
      <point x="1185.6866666666665" y="1229.6666666666667" type="line" smooth="yes"/>
      <point x="1240.6400000000003" y="1275.3866666666668"/>
      <point x="1259.1399999999999" y="1305.0666666666666"/>
      <point x="1265.6066666666666" y="1333.8866666666663" type="curve" smooth="yes"/>
      <point x="1276.0466666666666" y="1373.4533333333334"/>
      <point x="1255.92" y="1400.0"/>
      <point x="1201.8733333333334" y="1400.0" type="curve" smooth="yes"/>
      <point x="434.6933333333333" y="1400.0" type="line" smooth="yes"/>
      <point x="386.79999999999995" y="1400.0"/>
      <point x="354.4666666666667" y="1371.7133333333334"/>
      <point x="337.0" y="1326.74" type="curve" smooth="yes"/>
      <point x="214.11999999999998" y="1015.0866666666666" type="line" smooth="yes"/>
      <point x="197.85333333333335" y="973.0333333333334"/>
      <point x="211.43333333333337" y="952.5066666666667"/>
      <point x="246.14666666666668" y="952.06" type="curve" smooth="yes"/>
      <point x="277.4866666666667" y="951.56"/>
      <point x="301.06" y="970.4066666666668"/>
      <point x="317.24" y="1000.5666666666666" type="curve" smooth="yes"/>
      <point x="372.58" y="1098.5800000000002" type="line" smooth="yes"/>
      <point x="394.2866666666667" y="1137.5600000000002"/>
      <point x="413.46000000000004" y="1153.16"/>
      <point x="461.0866666666667" y="1153.16" type="curve" smooth="yes"/>
      <point x="1044.0866666666668" y="1153.16" type="line"/>
    </contour>
  </outline>
</glyph>
<glyph name="eight" format="2">
  <advance width="1132.2666666666669"/>
  <unicode hex="0038"/>
  <outline>
    <contour>
      <point x="422.8266666666666" y="-25.160000000000004" type="curve" smooth="yes"/>
      <point x="741.6745197740113" y="-25.160000000000004"/>
      <point x="971.868029031157" y="117.49161566420355"/>
      <point x="1029.1666666666665" y="325.37999999999994" type="curve" smooth="yes"/>
      <point x="1077.3466666666666" y="499.4599999999999"/>
      <point x="995.6266666666667" y="627.48"/>
      <point x="750.2333333333332" y="738.34" type="curve" smooth="yes"/>
      <point x="542.0533333333333" y="830.8466666666666"/>
      <point x="479.11333333333334" y="943.1066666666666"/>
      <point x="525.6199999999999" y="1106.28" type="curve" smooth="yes"/>
      <point x="563.196411947216" y="1237.5066729468024"/>
      <point x="680.04" y="1335.6200000000001"/>
      <point x="821.0666666666666" y="1335.6200000000001" type="curve" smooth="yes"/>
      <point x="974.8533333333334" y="1335.6200000000001"/>
      <point x="1036.4333333333334" y="1222.3733333333332"/>
      <point x="978.5266666666666" y="1030.94" type="curve" smooth="yes"/>
      <point x="938.4866666666668" y="893.8733333333334"/>
      <point x="827.7389819595373" y="773.2208988015326"/>
      <point x="697.6999999999999" y="698.6399999999999" type="curve"/>
      <point x="715.1333333333334" y="666.4066666666666" type="line"/>
      <point x="977.3171184682429" y="702.5683862421234"/>
      <point x="1182.4783421202774" y="846.4938975793424"/>
      <point x="1236.2733333333338" y="1033.1333333333332" type="curve" smooth="yes"/>
      <point x="1301.8266666666666" y="1259.8466666666666"/>
      <point x="1162.7133333333336" y="1425.4466666666665"/>
      <point x="869.36" y="1425.4466666666665" type="curve" smooth="yes"/>
      <point x="536.6066666666667" y="1425.4466666666665"/>
      <point x="297.80892880327514" y="1240.5975697520723"/>
      <point x="241.24" y="1029.4999999999998" type="curve" smooth="yes"/>
      <point x="184.44" y="818.7999999999998"/>
      <point x="269.11333333333334" y="689.2799999999999"/>
      <point x="528.7066666666667" y="574.5" type="curve" smooth="yes"/>
      <point x="726.62" y="493.88"/>
      <point x="774.0733333333334" y="401.92"/>
      <point x="735.4200000000001" y="267.32000000000005" type="curve" smooth="yes"/>
      <point x="700.1948081426862" y="144.35864950658146"/>
      <point x="600.0890721649484" y="61.50666666666665"/>
      <point x="469.2866666666667" y="61.50666666666665" type="curve" smooth="yes"/>
      <point x="324.0678431372549" y="61.50666666666665"/>
      <point x="262.20666666666665" y="159.08666666666667"/>
      <point x="313.2" y="330.8666666666666" type="curve" smooth="yes"/>
      <point x="344.79999999999995" y="440.5533333333333"/>
      <point x="425.8733333333334" y="551.5466666666666"/>
      <point x="544.24" y="611.5399999999998" type="curve"/>
      <point x="544.7866666666666" y="642.0466666666666" type="line"/>
      <point x="276.44" y="613.94"/>
      <point x="95.40666666666668" y="479.0666666666666"/>
      <point x="51.96666666666667" y="325.1866666666666" type="curve" smooth="yes"/>
      <point x="-4.046666666666665" y="124.62666666666665"/>
      <point x="108.54786069651743" y="-25.160000000000004"/>
    </contour>
  </outline>
</glyph>
<glyph name="nine" format="2">
  <advance width="1190.78"/>
  <unicode hex="0039"/>
  <outline>
    <contour>
      <point x="402.66666666666663" y="-24.879999999999995" type="curve" smooth="yes"/>
      <point x="752.8266666666666" y="-24.879999999999995"/>
      <point x="1052.9333333333334" y="226.83333333333334"/>
      <point x="1186.9933333333333" y="698.2333333333332" type="curve" smooth="yes"/>
      <point x="1315.8733333333332" y="1151.3000000000002"/>
      <point x="1175.5866666666668" y="1425.6"/>
      <point x="830.3533333333335" y="1425.6" type="curve" smooth="yes"/>
      <point x="534.4434234234234" y="1425.6"/>
      <point x="288.4698851979442" y="1252.8489169845443"/>
      <point x="213.96666666666667" y="981.9799999999999" type="curve" smooth="yes"/>
      <point x="141.12529649547304" y="715.6047817247796"/>
      <point x="269.37047324192827" y="545.4"/>
      <point x="521.1733333333333" y="545.4" type="curve" smooth="yes"/>
      <point x="743.5693308778391" y="545.4"/>
      <point x="952.9941538935242" y="689.23832837803"/>
      <point x="1017.4000000000001" y="882.7400000000001" type="curve"/>
      <point x="973.3866666666668" y="914.6933333333333" type="line"/>
      <point x="921.0868456830126" y="768.6161269654925"/>
      <point x="774.7440213760855" y="662.2599999999998"/>
      <point x="647.22" y="662.2599999999998" type="curve" smooth="yes"/>
      <point x="509.51053333333334" y="662.2599999999998"/>
      <point x="441.0637359942609" y="770.9671025254975"/>
      <point x="501.2733333333333" y="997.9799999999999" type="curve" smooth="yes"/>
      <point x="559.9131632750074" y="1217.5193661462397"/>
      <point x="676.7071150971599" y="1329.9533333333334"/>
      <point x="812.2533333333333" y="1329.9533333333334" type="curve" smooth="yes"/>
      <point x="964.62" y="1329.9533333333334"/>
      <point x="1029.56" y="1184.7666666666667"/>
      <point x="905.4333333333333" y="742.8733333333333" type="curve" smooth="yes"/>
      <point x="767.9933333333333" y="250.40000000000003"/>
      <point x="603.2933333333333" y="71.27333333333333"/>
      <point x="448.61333333333334" y="71.27333333333333" type="curve" smooth="yes"/>
      <point x="342.7996078431372" y="71.27333333333333"/>
      <point x="300.0012594799419" y="123.48593911755538"/>
      <point x="325.2933333333333" y="215.31333333333333" type="curve" smooth="yes"/>
      <point x="341.4866666666666" y="272.81333333333333" type="line" smooth="yes"/>
      <point x="367.1266666666667" y="364.62666666666667"/>
      <point x="330.9933333333334" y="420.0333333333333"/>
      <point x="234.16666666666663" y="420.0333333333333" type="curve" smooth="yes"/>
      <point x="147.55333333333334" y="420.0333333333333"/>
      <point x="76.40666666666667" y="363.43333333333334"/>
      <point x="54.52" y="263.82" type="curve" smooth="yes"/>
      <point x="20.368999093969073" y="112.48147112671776"/>
      <point x="146.30162962962964" y="-24.879999999999995"/>
    </contour>
  </outline>
</glyph>
<glyph name="less" format="2">
  <advance width="987.9666666666665"/>
  <unicode hex="003C"/>
  <outline>
    <contour>
      <point x="294.16666666666663" y="685.0333333333333" type="line"/>
      <point x="815.06" y="328.26" type="line" smooth="yes"/>
      <point x="846.4119418575963" y="307.5048877573704"/>
      <point x="856.4073750984386" y="284.3495003937545"/>
      <point x="850.4799999999999" y="261.7066666666667" type="curve" smooth="yes"/>
      <point x="842.9190183066767" y="233.33631865003727"/>
      <point x="822.7733333333334" y="218.68"/>
      <point x="786.6" y="218.68" type="curve" smooth="yes"/>
      <point x="756.6133333333333" y="218.68"/>
      <point x="731.3811640088069" y="234.35112739930216"/>
      <point x="693.6533333333333" y="257.90000000000003" type="curve" smooth="yes"/>
      <point x="191.59333333333333" y="590.2666666666667" type="line" smooth="yes"/>
      <point x="154.54515025293" y="613.3398749608822"/>
      <point x="141.7" y="645.5933333333332"/>
      <point x="151.95333333333335" y="685.7666666666667" type="curve" smooth="yes"/>
      <point x="162.54" y="725.2133333333335"/>
      <point x="193.29722101611205" y="756.3531607248308"/>
      <point x="242.58666666666667" y="779.1933333333332" type="curve" smooth="yes"/>
      <point x="913.5933333333332" y="1111.9266666666667" type="line" smooth="yes"/>
      <point x="963.7586731364551" y="1135.3260681358283"/>
      <point x="995.3647619047617" y="1149.6933333333332"/>
      <point x="1025.1599999999999" y="1149.6933333333332" type="curve" smooth="yes"/>
      <point x="1058.8533333333332" y="1149.6933333333332"/>
      <point x="1072.8333333333333" y="1118.8199999999997"/>
      <point x="1062.4866666666667" y="1083.8133333333333" type="curve" smooth="yes"/>
      <point x="1055.406865469262" y="1059.3341285437139"/>
      <point x="1032.4066712842773" y="1035.1830204389446"/>
      <point x="988.9199999999998" y="1014.4399999999999" type="curve" smooth="yes"/>
      <point x="288.0533333333333" y="663.4733333333334" type="line"/>
    </contour>
  </outline>
</glyph>
<glyph name="question" format="2">
  <advance width="972.2466666666666"/>
  <unicode hex="003F"/>
  <outline>
    <contour>
      <point x="376.82666666666665" y="638.3266666666666" type="line" smooth="yes"/>
      <point x="383.3892753381044" y="690.1748373594279"/>
      <point x="409.4420061363573" y="727.4115756390801"/>
      <point x="470.0066666666666" y="756.9000000000001" type="curve" smooth="yes"/>
      <point x="535.5000000000001" y="788.56" type="line" smooth="yes"/>
      <point x="676.0692867168107" y="856.8363462903503"/>
      <point x="751.7619741266169" y="960.7479223135905"/>
      <point x="796.4533333333334" y="1122.2333333333333" type="curve" smooth="yes"/>
      <point x="841.3241312109278" y="1285.935912812463"/>
      <point x="792.5334177215188" y="1367.4799999999998"/>
      <point x="694.6133333333332" y="1367.4799999999998" type="curve" smooth="yes"/>
      <point x="596.5138211382114" y="1367.4799999999998"/>
      <point x="530.6026706911841" y="1315.0083771733766"/>
      <point x="503.6133333333333" y="1219.0666666666666" type="curve" smooth="yes"/>
      <point x="482.9000000000001" y="1143.3533333333332" type="line" smooth="yes"/>
      <point x="454.55528008823893" y="1042.201093630137"/>
      <point x="390.5666666666666" y="989.1800000000001"/>
      <point x="300.07333333333327" y="989.1800000000001" type="curve" smooth="yes"/>
      <point x="218.19333333333336" y="989.1800000000001"/>
      <point x="176.2690326519822" y="1052.3383117549815"/>
      <point x="201.18" y="1144.6" type="curve" smooth="yes"/>
      <point x="244.8733333333333" y="1307.0733333333335"/>
      <point x="457.74" y="1459.2800000000004"/>
      <point x="728.7133333333334" y="1459.2800000000004" type="curve" smooth="yes"/>
      <point x="1017.6690590111642" y="1459.2800000000004"/>
      <point x="1147.0830349844812" y="1318.2198961092488"/>
      <point x="1087.56" y="1093.2733333333335" type="curve" smooth="yes"/>
      <point x="1038.3472625368454" y="906.8797272973873"/>
      <point x="891.5079146572114" y="774.2270911808929"/>
      <point x="651.4066666666668" y="708.2800000000001" type="curve" smooth="yes"/>
      <point x="592.6666666666666" y="691.2133333333335" type="line" smooth="yes"/>
      <point x="551.0" y="680.8866666666667"/>
      <point x="535.3866666666667" y="660.9066666666666"/>
      <point x="521.1933333333334" y="625.6800000000001" type="curve" smooth="yes"/>
      <point x="478.1066666666667" y="495.96" type="line" smooth="yes"/>
      <point x="451.09999999999997" y="445.3733333333333"/>
      <point x="428.6266666666666" y="428.0333333333333"/>
      <point x="394.80666666666673" y="428.0333333333333" type="curve" smooth="yes"/>
      <point x="356.26666666666665" y="428.0333333333333"/>
      <point x="341.8066666666666" y="452.25333333333333"/>
      <point x="345.5133333333333" y="496.24" type="curve" smooth="yes"/>
    </contour>
    <component base="period" xOffset="108.30666666666664" yOffset="-1.1533333333333333"/>
  </outline>
</glyph>
<glyph name="at" format="2">
  <advance width="1723.9933333333333"/>
  <unicode hex="0040"/>
  <outline>
    <contour>
      <point x="695.4399999999998" y="415.32" type="curve" smooth="yes"/>
      <point x="713.4533333333333" y="650.5545460715732"/>
      <point x="886.2066666666666" y="924.0933333333334"/>
      <point x="1042.2799999999997" y="924.0933333333334" type="curve" smooth="yes"/>
      <point x="1087.8466666666666" y="924.0933333333334"/>
      <point x="1105.4333333333334" y="889.3266666666667"/>
      <point x="1095.2666666666667" y="827.9133333333333" type="curve" smooth="yes"/>
      <point x="1038.8834519946565" y="529.345707343739"/>
      <point x="877.5066666666667" y="271.24"/>
      <point x="762.5866666666667" y="271.24" type="curve" smooth="yes"/>
      <point x="715.52" y="271.24"/>
      <point x="685.0133333333333" y="308.75333333333333"/>
    </contour>
    <contour>
      <point x="1126.9466666666665" y="132.32" type="curve" smooth="yes"/>
      <point x="1373.5469696969697" y="132.32"/>
      <point x="1608.6059091568118" y="321.47486459708955"/>
      <point x="1684.18" y="611.7533333333332" type="curve" smooth="yes"/>
      <point x="1811.1266666666666" y="1097.686666666667"/>
      <point x="1549.7866666666666" y="1385.7666666666667"/>
      <point x="1121.5600000000002" y="1385.7666666666667" type="curve" smooth="yes"/>
      <point x="640.9733333333335" y="1385.7666666666667"/>
      <point x="229.19333333333333" y="1045.8000000000002"/>
      <point x="112.83999999999999" y="597.6266666666668" type="curve" smooth="yes"/>
      <point x="-25.166666666666657" y="70.15333333333334"/>
      <point x="248.91999999999993" y="-266.90000000000003"/>
      <point x="715.2466666666667" y="-266.90000000000003" type="curve" smooth="yes"/>
      <point x="1019.6933333333334" y="-266.90000000000003"/>
      <point x="1309.5199999999998" y="-150.31333333333328"/>
      <point x="1483.4533333333334" y="19.326666666666675" type="curve" smooth="yes"/>
      <point x="1518.4733333333331" y="48.733333333333334"/>
      <point x="1534.5800000000002" y="80.58666666666667"/>
      <point x="1517.8999999999999" y="100.64" type="curve" smooth="yes"/>
      <point x="1500.6066666666666" y="120.98"/>
      <point x="1465.8866666666665" y="110.51333333333332"/>
      <point x="1434.926666666667" y="89.18666666666668" type="curve" smooth="yes"/>
      <point x="1232.2533333333336" y="-81.24"/>
      <point x="986.4000000000001" y="-176.24666666666664"/>
      <point x="738.4866666666666" y="-176.24666666666664" type="curve" smooth="yes"/>
      <point x="322.7066666666666" y="-176.24666666666664"/>
      <point x="100.11999999999998" y="134.0666666666667"/>
      <point x="220.62000000000003" y="594.5466666666666" type="curve" smooth="yes"/>
      <point x="327.91333333333336" y="1008.7666666666665"/>
      <point x="684.8866666666665" y="1300.4199999999998"/>
      <point x="1096.8266666666668" y="1300.4199999999998" type="curve" smooth="yes"/>
      <point x="1471.22" y="1300.4199999999998"/>
      <point x="1685.2515871578769" y="1038.973015298173"/>
      <point x="1574.1066666666666" y="613.4666666666666" type="curve" smooth="yes"/>
      <point x="1513.4196579848635" y="377.76922750645826"/>
      <point x="1360.4268235294119" y="263.83333333333337"/>
      <point x="1252.5066666666667" y="263.83333333333337" type="curve" smooth="yes"/>
      <point x="1194.541960784314" y="263.83333333333337"/>
      <point x="1178.8057912934594" y="307.01717779061477"/>
      <point x="1208.3666666666666" y="417.57333333333327" type="curve" smooth="yes"/>
      <point x="1316.4466666666663" y="824.4933333333333" type="line" smooth="yes"/>
      <point x="1328.8999999999999" y="868.28"/>
      <point x="1376.6266666666668" y="875.2333333333332"/>
      <point x="1381.0666666666666" y="923.6866666666666" type="curve" smooth="yes"/>
      <point x="1386.4266666666667" y="981.8800000000001"/>
      <point x="1295.4333333333334" y="1026.0266666666669"/>
      <point x="1095.4799999999998" y="1026.0266666666669" type="curve" smooth="yes"/>
      <point x="732.0866666666666" y="1026.0266666666669"/>
      <point x="463.18" y="711.4351974723538"/>
      <point x="445.4333333333334" y="403.74666666666667" type="curve" smooth="yes"/>
      <point x="430.8066666666668" y="217.49999999999997"/>
      <point x="510.9599999999999" y="132.09333333333336"/>
      <point x="641.4" y="132.09333333333336" type="curve" smooth="yes"/>
      <point x="809.6533333333333" y="132.09333333333336"/>
      <point x="941.8866666666667" y="255.9466666666667"/>
      <point x="1046.56" y="494.1066666666667" type="curve"/>
      <point x="1035.5266666666666" y="545.0533333333334" type="line"/>
      <point x="993.8408217899589" y="398.5426912320654"/>
      <point x="979.18" y="329.66"/>
      <point x="976.0533333333333" y="274.03999999999996" type="curve" smooth="yes"/>
      <point x="969.9200000000002" y="187.73999999999998"/>
      <point x="1023.1553959484345" y="132.32"/>
    </contour>
  </outline>
</glyph>
<glyph name="A" format="2">
  <advance width="1270.6333333333334"/>
  <unicode hex="0041"/>
  <anchor x="1030.7666666666667" y="1535.3600000000001" name="center"/>
  <outline>
    <contour>
      <point x="262.4733333333333" y="280.44666666666666" type="curve" smooth="yes"/>
      <point x="712.42" y="1009.38" type="line" smooth="yes"/>
      <point x="790.3733333333333" y="1133.7799999999997"/>
      <point x="838.2066666666666" y="1180.6733333333334"/>
      <point x="875.8666666666668" y="1204.6133333333332" type="curve"/>
      <point x="817.6066666666666" y="1224.1133333333335" type="line"/>
      <point x="815.5200000000001" y="1008.6244047619049"/>
      <point x="792.8119663684407" y="399.4259036327989"/>
      <point x="787.5466666666666" y="225.13333333333327" type="curve" smooth="yes"/>
      <point x="786.1466666666666" y="167.32666666666665"/>
      <point x="768.8600000000001" y="129.61333333333334"/>
      <point x="729.2" y="116.33333333333339" type="curve" smooth="yes"/>
      <point x="669.4533333333334" y="104.20666666666668" type="line" smooth="yes"/>
      <point x="639.0533333333334" y="91.17999999999999"/>
      <point x="622.3266666666665" y="74.33999999999999"/>
      <point x="622.3266666666665" y="47.120000000000005" type="curve" smooth="yes"/>
      <point x="622.2333333333332" y="20.773333333333337"/>
      <point x="636.3333333333334" y="0.0"/>
      <point x="673.08" y="0.0" type="curve" smooth="yes"/>
      <point x="1109.8133333333333" y="0.0" type="line" smooth="yes"/>
      <point x="1150.5066666666667" y="0.0"/>
      <point x="1172.9866666666667" y="21.740000000000002"/>
      <point x="1173.08" y="52.64666666666667" type="curve" smooth="yes"/>
      <point x="1173.08" y="73.60666666666667"/>
      <point x="1163.9666666666665" y="88.51333333333332"/>
      <point x="1143.6200000000001" y="100.82666666666668" type="curve" smooth="yes"/>
      <point x="1074.8200000000002" y="131.08666666666664"/>
      <point x="1064.54" y="156.94666666666666"/>
      <point x="1063.6466666666665" y="227.31999999999994" type="curve" smooth="yes"/>
      <point x="1063.1434373685406" y="366.37302543441564"/>
      <point x="1082.533333333333" y="995.6438202247191"/>
      <point x="1085.1" y="1171.8066666666666" type="curve" smooth="yes"/>
      <point x="1086.92" y="1255.946666666667"/>
      <point x="1119.9" y="1294.44"/>
      <point x="1173.7533333333333" y="1313.9266666666665" type="curve" smooth="yes"/>
      <point x="1198.3266666666666" y="1327.3066666666666"/>
      <point x="1208.7533333333333" y="1344.2333333333333"/>
      <point x="1208.7533333333333" y="1366.6466666666668" type="curve" smooth="yes"/>
      <point x="1208.8466666666668" y="1398.166666666667"/>
      <point x="1185.0533333333333" y="1420.8466666666666"/>
      <point x="1120.1466666666668" y="1420.8466666666666" type="curve" smooth="yes"/>
      <point x="945.5066666666667" y="1420.8466666666666"/>
      <point x="779.6733333333333" y="1309.7399999999998"/>
      <point x="627.4" y="1066.7466666666667" type="curve" smooth="yes"/>
      <point x="147.99333333333334" y="296.71999999999997" type="line" smooth="yes"/>
      <point x="92.5333333333333" y="205.25333333333333"/>
      <point x="38.48666666666665" y="139.33333333333331"/>
      <point x="-9.86" y="120.03999999999999" type="curve" smooth="yes"/>
      <point x="-56.980000000000004" y="95.13333333333333"/>
      <point x="-70.33333333333334" y="76.17999999999998"/>
      <point x="-70.42666666666666" y="48.019999999999996" type="curve" smooth="yes"/>
      <point x="-70.42666666666666" y="17.73333333333333"/>
      <point x="-50.56666666666667" y="0.0"/>
      <point x="-10.626666666666669" y="0.0" type="curve" smooth="yes"/>
      <point x="296.91333333333336" y="0.0" type="line" smooth="yes"/>
      <point x="335.4466666666666" y="0.0"/>
      <point x="360.15333333333336" y="20.333333333333336"/>
      <point x="360.15333333333336" y="54.36000000000001" type="curve" smooth="yes"/>
      <point x="360.24666666666667" y="71.69999999999997"/>
      <point x="350.94666666666666" y="87.77999999999999"/>
      <point x="325.84000000000003" y="99.61999999999998" type="curve" smooth="yes"/>
      <point x="283.03999999999996" y="111.76" type="line" smooth="yes"/>
      <point x="223.22000000000006" y="131.15333333333336"/>
      <point x="206.79333333333332" y="189.04666666666662"/>
    </contour>
    <contour>
      <point x="303.37999999999994" y="446.8333333333333" type="line"/>
      <point x="870.7266666666666" y="446.8333333333333" type="line"/>
      <point x="878.2799999999999" y="539.0066666666667" type="line"/>
      <point x="325.4266666666667" y="539.0066666666667" type="line"/>
    </contour>
  </outline>
</glyph>
<glyph name="B" format="2">
  <advance width="1328.44"/>
  <unicode hex="0042"/>
  <outline>
    <contour>
      <point x="719.9466666666667" y="1190.0866666666666" type="curve" smooth="yes"/>
      <point x="742.0600000000001" y="1271.1799999999998"/>
      <point x="779.0133333333333" y="1303.186666666667"/>
      <point x="870.6666666666667" y="1303.186666666667" type="curve" smooth="yes"/>
      <point x="1009.0600000000003" y="1303.186666666667"/>
      <point x="1089.9263885157789" y="1216.0355159362643"/>
      <point x="1067.4466666666667" y="1052.0533333333335" type="curve" smooth="yes"/>
      <point x="1040.6792361380972" y="838.6866844393181"/>
      <point x="906.9799999999999" y="694.0066666666665"/>
      <point x="716.42" y="694.0066666666665" type="curve" smooth="yes"/>
      <point x="495.49999999999994" y="694.0066666666665" type="line"/>
      <point x="469.32000000000005" y="605.6466666666666" type="line"/>
      <point x="727.0666666666667" y="605.6466666666666" type="line" smooth="yes"/>
      <point x="891.9933333333333" y="605.6466666666666"/>
      <point x="975.4010047507222" y="519.4294312031373"/>
      <point x="948.54" y="358.7866666666667" type="curve" smooth="yes"/>
      <point x="920.5893798628688" y="187.78942039029374"/>
      <point x="800.4133333333334" y="96.54666666666665"/>
      <point x="612.6933333333334" y="96.54666666666665" type="curve" smooth="yes"/>
      <point x="489.28666666666663" y="96.54666666666665"/>
      <point x="439.8666666666667" y="133.26"/>
      <point x="457.9266666666667" y="206.02666666666664" type="curve" smooth="yes"/>
      <point x="499.6866666666666" y="383.1933333333333"/>
      <point x="648.3133333333333" y="930.3266666666667"/>
    </contour>
    <contour>
      <point x="392.0933333333333" y="1400.0" type="line" smooth="yes"/>
      <point x="345.62000000000006" y="1400.0"/>
      <point x="322.4133333333334" y="1376.6800000000003"/>
      <point x="322.32000000000005" y="1344.14" type="curve" smooth="yes"/>
      <point x="322.32000000000005" y="1322.9733333333331"/>
      <point x="334.5199999999999" y="1310.4066666666668"/>
      <point x="359.52" y="1300.2133333333334" type="curve" smooth="yes"/>
      <point x="416.4599999999999" y="1287.3133333333333" type="line" smooth="yes"/>
      <point x="450.5133333333333" y="1274.34"/>
      <point x="452.26000000000005" y="1253.8933333333332"/>
      <point x="440.68666666666667" y="1201.506666666667" type="curve" smooth="yes"/>
      <point x="409.8666666666667" y="1064.1066666666668"/>
      <point x="236.23333333333335" y="414.71999999999997"/>
      <point x="166.16" y="181.7" type="curve" smooth="yes"/>
      <point x="154.74" y="143.30666666666667"/>
      <point x="138.42" y="124.60000000000004"/>
      <point x="102.60666666666667" y="114.19333333333333" type="curve" smooth="yes"/>
      <point x="46.973333333333315" y="101.70666666666668" type="line" smooth="yes"/>
      <point x="15.73333333333333" y="91.3"/>
      <point x="-3.613333333333334" y="71.62666666666667"/>
      <point x="-3.613333333333334" y="46.7" type="curve" smooth="yes"/>
      <point x="-3.613333333333334" y="19.413333333333334"/>
      <point x="9.226666666666668" y="0.0"/>
      <point x="52.853333333333346" y="0.0" type="curve" smooth="yes"/>
      <point x="623.2933333333333" y="0.0" type="line" smooth="yes"/>
      <point x="1001.6466666666668" y="0.0"/>
      <point x="1206.48" y="132.55333333333334"/>
      <point x="1235.2666666666664" y="349.08000000000004" type="curve" smooth="yes"/>
      <point x="1260.5866666666664" y="542.6333333333333"/>
      <point x="1126.646666666667" y="667.0666666666666"/>
      <point x="805.74" y="667.0666666666666" type="curve"/>
      <point x="813.5533333333334" y="652.2933333333333" type="line"/>
      <point x="1110.746666666667" y="652.2933333333333"/>
      <point x="1312.3266666666666" y="816.1466666666666"/>
      <point x="1338.2866666666666" y="1036.6133333333335" type="curve" smooth="yes"/>
      <point x="1364.7" y="1264.34"/>
      <point x="1225.6466666666665" y="1400.0"/>
      <point x="908.8066666666668" y="1400.0" type="curve" smooth="yes"/>
    </contour>
  </outline>
</glyph>
<glyph name="C" format="2">
  <advance width="1274.3533333333332"/>
  <unicode hex="0043"/>
  <anchor x="943.0133333333332" y="1510.0" name="center"/>
  <outline>
    <contour>
      <point x="1176.06" y="432.28666666666663" type="curve" smooth="yes"/>
      <point x="1148.7066666666663" y="443.8066666666666"/>
      <point x="1124.3000000000002" y="428.4666666666667"/>
      <point x="1090.4333333333334" y="388.4666666666667" type="curve" smooth="yes"/>
      <point x="984.1796899370509" y="210.72527263616715"/>
      <point x="854.0742424242422" y="133.56000000000003"/>
      <point x="713.4866666666667" y="133.56000000000003" type="curve" smooth="yes"/>
      <point x="520.7133333333334" y="133.56000000000003"/>
      <point x="393.6866666666668" y="290.5503472222222"/>
      <point x="455.6133333333333" y="661.5866666666666" type="curve" smooth="yes"/>
      <point x="511.2466666666668" y="1031.2570542635658"/>
      <point x="716.1933333333334" y="1315.0733333333333"/>
      <point x="961.44" y="1315.0733333333333" type="curve" smooth="yes"/>
      <point x="1095.0519540229884" y="1315.0733333333333"/>
      <point x="1181.4533333333331" y="1249.1866666666667"/>
      <point x="1226.9399999999998" y="1087.2666666666669" type="curve" smooth="yes"/>
      <point x="1247.4" y="1015.0066666666667" type="line" smooth="yes"/>
      <point x="1257.5733333333333" y="980.9066666666666"/>
      <point x="1276.4533333333334" y="963.7533333333336"/>
      <point x="1305.206666666667" y="963.9400000000002" type="curve" smooth="yes"/>
      <point x="1335.1066666666666" y="964.1400000000002"/>
      <point x="1358.0533333333333" y="982.1"/>
      <point x="1358.3666666666668" y="1018.8533333333334" type="curve" smooth="yes"/>
      <point x="1360.7266666666667" y="1368.8666666666668" type="line" smooth="yes"/>
      <point x="1360.5066666666667" y="1403.6133333333335"/>
      <point x="1340.6866666666665" y="1423.4933333333333"/>
      <point x="1311.2" y="1423.4933333333333" type="curve" smooth="yes"/>
      <point x="1268.8466666666668" y="1423.4933333333333"/>
      <point x="1225.7800000000002" y="1340.7466666666667"/>
      <point x="1187.8999999999996" y="1340.7466666666667" type="curve" smooth="yes"/>
      <point x="1151.8333333333333" y="1340.7466666666667"/>
      <point x="1093.0933333333335" y="1425.7866666666666"/>
      <point x="921.8466666666667" y="1425.7866666666666" type="curve" smooth="yes"/>
      <point x="532.92" y="1425.7866666666666"/>
      <point x="195.94639816695195" y="1074.9939401986976"/>
      <point x="132.51333333333332" y="634.6600000000001" type="curve" smooth="yes"/>
      <point x="67.65385503228455" y="209.9998189000858"/>
      <point x="281.64618556701026" y="-24.52"/>
      <point x="606.6533333333333" y="-24.52" type="curve" smooth="yes"/>
      <point x="863.8272727272727" y="-24.52"/>
      <point x="1071.4301683415742" y="109.77206485717849"/>
      <point x="1178.54" y="330.60666666666674" type="curve" smooth="yes"/>
      <point x="1210.013333333333" y="389.1066666666667"/>
      <point x="1198.9133333333334" y="422.1733333333334"/>
    </contour>
  </outline>
</glyph>
<glyph name="D" format="2">
  <advance width="1472.06"/>
  <unicode hex="0044"/>
  <anchor x="992.2533333333333" y="1485.14" name="center"/>
  <outline>
    <contour>
      <point x="2.360000000000001" y="46.65999999999999" type="curve" smooth="yes"/>
      <point x="2.5000000000000013" y="19.53333333333334"/>
      <point x="14.286666666666669" y="0.0"/>
      <point x="55.67333333333334" y="0.0" type="curve" smooth="yes"/>
      <point x="602.8266666666666" y="0.0" type="line" smooth="yes"/>
      <point x="1042.930359477124" y="0.0"/>
      <point x="1388.933117057403" y="268.4690326636905"/>
      <point x="1459.0866666666668" y="722.64" type="curve" smooth="yes"/>
      <point x="1525.9168001200705" y="1138.8174389954113"/>
      <point x="1275.631313131313" y="1400.0"/>
      <point x="903.1600000000001" y="1400.0" type="curve" smooth="yes"/>
      <point x="388.18666666666667" y="1400.0" type="line" smooth="yes"/>
      <point x="345.26" y="1400.0"/>
      <point x="323.5666666666666" y="1378.56"/>
      <point x="323.4266666666667" y="1345.9666666666667" type="curve" smooth="yes"/>
      <point x="323.5666666666666" y="1322.8399999999997"/>
      <point x="335.59333333333336" y="1310.5000000000002"/>
      <point x="362.8266666666667" y="1300.2533333333333" type="curve" smooth="yes"/>
      <point x="416.03333333333336" y="1286.86" type="line" smooth="yes"/>
      <point x="447.9866666666667" y="1277.58"/>
      <point x="457.5466666666667" y="1258.8"/>
      <point x="448.1533333333333" y="1219.5733333333333" type="curve" smooth="yes"/>
      <point x="413.4133333333333" y="1069.9666666666665"/>
      <point x="229.8266666666667" y="401.36"/>
      <point x="178.31999999999996" y="212.87333333333328" type="curve" smooth="yes"/>
      <point x="157.42" y="142.82666666666665"/>
      <point x="138.96666666666664" y="123.19999999999999"/>
      <point x="104.58000000000001" y="114.11333333333336" type="curve" smooth="yes"/>
      <point x="49.066666666666656" y="102.13333333333335" type="line" smooth="yes"/>
      <point x="19.966666666666665" y="92.39333333333332"/>
      <point x="2.5000000000000013" y="73.26666666666667"/>
    </contour>
    <contour>
      <point x="618.1733333333334" y="104.3333333333333" type="curve" smooth="yes"/>
      <point x="539.9266666666666" y="104.3333333333333" type="line" smooth="yes"/>
      <point x="478.24877192982456" y="104.3333333333333"/>
      <point x="453.91143379384556" y="141.9745858926596"/>
      <point x="470.25999999999993" y="223.82666666666665" type="curve" smooth="yes"/>
      <point x="505.0733333333333" y="395.03333333333325"/>
      <point x="690.5866666666666" y="1052.9"/>
      <point x="729.78" y="1194.8866666666665" type="curve" smooth="yes"/>
      <point x="751.8887037534087" y="1268.4146425844165"/>
      <point x="784.8199999999999" y="1298.0133333333333"/>
      <point x="833.5400000000001" y="1298.0133333333333" type="curve" smooth="yes"/>
      <point x="900.9466666666666" y="1298.0133333333333" type="line" smooth="yes"/>
      <point x="1078.1902347417843" y="1298.0133333333333"/>
      <point x="1221.0676302325105" y="1115.0739953107798"/>
      <point x="1154.2333333333336" y="742.1" type="curve" smooth="yes"/>
      <point x="1086.6733333333334" y="334.42383561643834"/>
      <point x="872.6866666666666" y="104.3333333333333"/>
    </contour>
  </outline>
</glyph>
<glyph name="E" format="2">
  <advance width="1241.6466666666668"/>
  <unicode hex="0045"/>
  <anchor x="873.6666666666667" y="1468.0" name="center"/>
  <outline>
    <contour>
      <point x="479.10666666666657" y="758.2933333333333" type="line"/>
      <point x="454.24666666666667" y="664.84" type="line"/>
      <point x="813.9599999999999" y="664.84" type="line" smooth="yes"/>
      <point x="898.7" y="664.84"/>
      <point x="938.6533333333333" y="638.4933333333332"/>
      <point x="971.6533333333333" y="548.3266666666665" type="curve" smooth="yes"/>
      <point x="982.7066666666666" y="524.9666666666667"/>
      <point x="998.0533333333334" y="510.06"/>
      <point x="1022.5799999999998" y="510.49333333333334" type="curve" smooth="yes"/>
      <point x="1052.5133333333333" y="511.08666666666664"/>
      <point x="1072.8799999999999" y="531.3133333333333"/>
      <point x="1066.64" y="576.8866666666668" type="curve" smooth="yes"/>
      <point x="1027.22" y="872.82" type="line" smooth="yes"/>
      <point x="1023.5200000000001" y="901.66"/>
      <point x="1008.0133333333333" y="919.9533333333333"/>
      <point x="978.5066666666667" y="919.9533333333333" type="curve" smooth="yes"/>
      <point x="958.8866666666667" y="919.9533333333333"/>
      <point x="943.5399999999998" y="909.6999999999999"/>
      <point x="933.8666666666667" y="885.0066666666667" type="curve" smooth="yes"/>
      <point x="917.0866666666667" y="785.3400000000001"/>
      <point x="874.7266666666667" y="758.2933333333333"/>
      <point x="814.18" y="758.2933333333333" type="curve" smooth="yes"/>
    </contour>
    <contour>
      <point x="742.4066666666666" y="0.0" type="line" smooth="yes"/>
      <point x="799.7933333333332" y="0.0"/>
      <point x="836.2133333333334" y="-28.200000000000003"/>
      <point x="884.3600000000001" y="-28.200000000000003" type="curve" smooth="yes"/>
      <point x="1025.4266666666667" y="-28.200000000000003"/>
      <point x="1133.7466666666664" y="124.00666666666666"/>
      <point x="1143.3266666666666" y="331.38" type="curve" smooth="yes"/>
      <point x="1143.9066666666665" y="370.66"/>
      <point x="1127.86" y="393.3333333333334"/>
      <point x="1099.68" y="393.3333333333334" type="curve" smooth="yes"/>
      <point x="1076.8866666666665" y="393.3333333333334"/>
      <point x="1056.7200000000003" y="375.47333333333336"/>
      <point x="1038.1599999999999" y="341.09333333333336" type="curve" smooth="yes"/>
      <point x="943.7533333333333" y="153.24666666666667"/>
      <point x="859.9333333333333" y="93.45333333333332"/>
      <point x="724.0133333333333" y="93.45333333333332" type="curve" smooth="yes"/>
      <point x="540.9466666666667" y="93.45333333333332" type="line" smooth="yes"/>
      <point x="462.36666666666673" y="93.45333333333332"/>
      <point x="441.2866666666666" y="123.45333333333333"/>
      <point x="454.68666666666667" y="182.37333333333333" type="curve" smooth="yes"/>
      <point x="483.45012339737315" y="313.13198980735837"/>
      <point x="701.885975531141" y="1116.6267812645517"/>
      <point x="756.0933333333332" y="1307.1866666666667" type="curve"/>
      <point x="1002.3466666666668" y="1307.1866666666667" type="line" smooth="yes"/>
      <point x="1104.56" y="1307.1866666666667"/>
      <point x="1159.5229005303888" y="1261.1097274539056"/>
      <point x="1209.48" y="1089.506666666667" type="curve" smooth="yes"/>
      <point x="1228.2133333333334" y="1037.6066666666668"/>
      <point x="1251.2466666666667" y="1021.8800000000002"/>
      <point x="1284.493333333333" y="1026.1599999999996" type="curve" smooth="yes"/>
      <point x="1314.1200000000001" y="1029.8200000000002"/>
      <point x="1330.3999999999999" y="1052.9333333333332"/>
      <point x="1323.94" y="1093.246666666667" type="curve" smooth="yes"/>
      <point x="1295.7866666666669" y="1374.1333333333334" type="line" smooth="yes"/>
      <point x="1289.1733333333334" y="1415.9866666666667"/>
      <point x="1269.1999999999998" y="1434.3733333333334"/>
      <point x="1236.4866666666665" y="1434.3733333333334" type="curve" smooth="yes"/>
      <point x="1196.7933333333335" y="1434.3733333333334"/>
      <point x="1157.1066666666663" y="1400.0"/>
      <point x="1084.5133333333333" y="1400.0" type="curve" smooth="yes"/>
      <point x="389.97333333333336" y="1400.0" type="line" smooth="yes"/>
      <point x="348.88666666666666" y="1400.0"/>
      <point x="326.79999999999995" y="1378.08"/>
      <point x="326.79999999999995" y="1345.2466666666667" type="curve" smooth="yes"/>
      <point x="326.79999999999995" y="1321.7333333333336"/>
      <point x="341.66" y="1308.8733333333332"/>
      <point x="362.92" y="1300.44" type="curve" smooth="yes"/>
      <point x="421.7533333333333" y="1286.4866666666667" type="line" smooth="yes"/>
      <point x="448.38" y="1278.2333333333331"/>
      <point x="457.21999999999997" y="1256.1866666666665"/>
      <point x="446.46000000000004" y="1210.4666666666665" type="curve" smooth="yes"/>
      <point x="407.0733333333334" y="1048.44"/>
      <point x="205.58" y="318.3733333333333"/>
      <point x="169.19999999999993" y="188.26" type="curve" smooth="yes"/>
      <point x="154.83333333333331" y="142.29333333333335"/>
      <point x="138.81999999999996" y="124.6133333333333"/>
      <point x="106.15333333333332" y="115.76666666666668" type="curve" smooth="yes"/>
      <point x="44.46666666666667" y="102.16" type="line" smooth="yes"/>
      <point x="19.506666666666668" y="92.97999999999998"/>
      <point x="0.9600000000000009" y="73.98666666666666"/>
      <point x="0.9600000000000009" y="47.34" type="curve" smooth="yes"/>
      <point x="0.8666666666666669" y="20.333333333333336"/>
      <point x="13.200000000000003" y="0.0"/>
      <point x="54.75999999999999" y="0.0" type="curve" smooth="yes"/>
    </contour>
  </outline>
</glyph>
<glyph name="F" format="2">
  <advance width="1177.8533333333332"/>
  <unicode hex="0046"/>
  <outline>
    <contour>
      <point x="325.12000000000006" y="1346.3533333333335" type="curve" smooth="yes"/>
      <point x="324.18666666666667" y="1322.5066666666664"/>
      <point x="337.9133333333334" y="1310.6866666666667"/>
      <point x="364.38666666666666" y="1300.0266666666669" type="curve" smooth="yes"/>
      <point x="418.11333333333334" y="1286.5799999999997" type="line" smooth="yes"/>
      <point x="446.53333333333336" y="1277.14"/>
      <point x="455.33333333333337" y="1258.5533333333337"/>
      <point x="445.43333333333334" y="1215.6" type="curve" smooth="yes"/>
      <point x="403.05999999999995" y="1039.64"/>
      <point x="229.7266666666667" y="397.22666666666663"/>
      <point x="168.97333333333333" y="188.79333333333335" type="curve" smooth="yes"/>
      <point x="155.92666666666665" y="144.57333333333332"/>
      <point x="138.74" y="124.82666666666664"/>
      <point x="106.02" y="115.99333333333337" type="curve" smooth="yes"/>
      <point x="52.45333333333332" y="103.86666666666669" type="line" smooth="yes"/>
      <point x="20.213333333333335" y="93.52666666666664"/>
      <point x="1.8133333333333335" y="74.8"/>
      <point x="1.2933333333333337" y="47.56666666666667" type="curve" smooth="yes"/>
      <point x="0.7733333333333339" y="19.413333333333334"/>
      <point x="13.813333333333336" y="0.0"/>
      <point x="56.12000000000002" y="0.0" type="curve" smooth="yes"/>
      <point x="543.52" y="0.0" type="line" smooth="yes"/>
      <point x="591.7666666666667" y="0.0"/>
      <point x="614.5599999999998" y="23.166666666666668"/>
      <point x="614.5599999999998" y="56.22000000000001" type="curve" smooth="yes"/>
      <point x="614.6533333333334" y="78.77696969696967"/>
      <point x="601.5732522430819" y="95.75850507633757"/>
      <point x="570.46" y="101.50666666666665" type="curve" smooth="yes"/>
      <point x="493.40666666666664" y="111.88" type="line" smooth="yes"/>
      <point x="447.9084752471974" y="120.41410672619551"/>
      <point x="444.6144102285096" y="143.62989735219554"/>
      <point x="456.8066666666666" y="190.41333333333333" type="curve" smooth="yes"/>
      <point x="497.60666666666674" y="358.86"/>
      <point x="691.08" y="1079.706666666667"/>
      <point x="756.0666666666667" y="1307.2333333333331" type="curve"/>
      <point x="973.8666666666664" y="1307.2333333333331" type="line" smooth="yes"/>
      <point x="1080.426666666667" y="1307.2333333333331"/>
      <point x="1131.412154599681" y="1259.043536200957"/>
      <point x="1167.4466666666667" y="1141.92" type="curve" smooth="yes"/>
      <point x="1185.2399999999998" y="1086.6266666666668" type="line" smooth="yes"/>
      <point x="1204.2066666666667" y="1037.5533333333335"/>
      <point x="1225.98" y="1018.5733333333334"/>
      <point x="1260.6266666666668" y="1022.76" type="curve" smooth="yes"/>
      <point x="1291.06" y="1026.42"/>
      <point x="1306.4733333333334" y="1049.3066666666666"/>
      <point x="1300.0266666666666" y="1090.3066666666664" type="curve" smooth="yes"/>
      <point x="1271.1933333333334" y="1376.8666666666666" type="line" smooth="yes"/>
      <point x="1265.0466666666669" y="1416.4933333333336"/>
      <point x="1244.6733333333332" y="1434.3733333333334"/>
      <point x="1213.0800000000002" y="1434.3733333333334" type="curve" smooth="yes"/>
      <point x="1171.8400000000001" y="1434.3733333333334"/>
      <point x="1133.426666666667" y="1399.86"/>
      <point x="1060.4066666666665" y="1399.86" type="curve" smooth="yes"/>
      <point x="391.1466666666667" y="1400.0" type="line" smooth="yes"/>
      <point x="349.1266666666666" y="1400.0"/>
      <point x="326.16" y="1379.08"/>
    </contour>
    <contour>
      <point x="472.1866666666667" y="720.7266666666667" type="line"/>
      <point x="446.85333333333335" y="627.2733333333333" type="line"/>
      <point x="799.0333333333333" y="627.2733333333333" type="line" smooth="yes"/>
      <point x="889.7799999999999" y="627.2733333333333"/>
      <point x="925.7133333333334" y="595.72"/>
      <point x="960.2133333333334" y="510.2333333333333" type="curve" smooth="yes"/>
      <point x="972.3600000000001" y="483.5733333333333"/>
      <point x="987.4533333333334" y="468.5333333333333"/>
      <point x="1012.0599999999997" y="468.96666666666664" type="curve" smooth="yes"/>
      <point x="1041.7266666666665" y="469.56000000000006"/>
      <point x="1062.6000000000001" y="489.55333333333334"/>
      <point x="1056.2199999999998" y="534.3733333333333" type="curve" smooth="yes"/>
      <point x="1013.8800000000001" y="836.76" type="line" smooth="yes"/>
      <point x="1009.7533333333336" y="867.4599999999999"/>
      <point x="994.0066666666665" y="886.3266666666666"/>
      <point x="964.8066666666666" y="886.3266666666666" type="curve" smooth="yes"/>
      <point x="944.0" y="886.3266666666666"/>
      <point x="930.04" y="874.6933333333333"/>
      <point x="920.2933333333334" y="848.7333333333332" type="curve" smooth="yes"/>
      <point x="901.6533333333332" y="750.3000000000001"/>
      <point x="862.5733333333332" y="720.7266666666667"/>
      <point x="799.76" y="720.7266666666667" type="curve" smooth="yes"/>
    </contour>
  </outline>
</glyph>
<glyph name="G" format="2">
  <advance width="1403.6000000000001"/>
  <unicode hex="0047"/>
  <anchor x="972.9733333333334" y="1566.0" name="center"/>
  <outline>
    <contour>
      <point x="916.9933333333332" y="1426.0666666666668" type="curve" smooth="yes"/>
      <point x="526.18" y="1426.0666666666668"/>
      <point x="189.46666666666667" y="1079.8600000000001"/>
      <point x="124.17333333333333" y="629.4666666666667" type="curve" smooth="yes"/>
      <point x="61.233333333333334" y="219.2266666666667"/>
      <point x="256.41999999999996" y="-25.093333333333334"/>
      <point x="587.4933333333335" y="-25.093333333333334" type="curve" smooth="yes"/>
      <point x="784.4733333333332" y="-25.093333333333334"/>
      <point x="873.3733333333334" y="63.00000000000001"/>
      <point x="913.54" y="63.00000000000001" type="curve" smooth="yes"/>
      <point x="954.8533333333332" y="63.00000000000001"/>
      <point x="1018.4066666666664" y="-25.933333333333334"/>
      <point x="1066.9933333333333" y="-25.933333333333334" type="curve" smooth="yes"/>
      <point x="1104.0" y="-25.933333333333334"/>
      <point x="1124.36" y="-6.2666666666666675"/>
      <point x="1140.6466666666668" y="50.6" type="curve" smooth="yes"/>
      <point x="1264.8400000000001" y="490.50000000000006" type="line" smooth="yes"/>
      <point x="1274.2399999999998" y="523.0466666666665"/>
      <point x="1287.6266666666668" y="540.5"/>
      <point x="1316.9533333333336" y="550.2399999999999" type="curve" smooth="yes"/>
      <point x="1363.7866666666664" y="564.14" type="line" smooth="yes"/>
      <point x="1391.18" y="574.1133333333332"/>
      <point x="1410.96" y="592.5666666666666"/>
      <point x="1411.6666666666667" y="619.3866666666667" type="curve" smooth="yes"/>
      <point x="1412.2666666666667" y="647.7933333333334"/>
      <point x="1401.1466666666665" y="666.9400000000002"/>
      <point x="1357.6399999999999" y="666.9400000000002" type="curve" smooth="yes"/>
      <point x="913.5133333333333" y="666.9400000000002" type="line" smooth="yes"/>
      <point x="872.3066666666666" y="666.9400000000002"/>
      <point x="849.2199999999999" y="646.2533333333333"/>
      <point x="849.1266666666666" y="612.7933333333333" type="curve" smooth="yes"/>
      <point x="849.0333333333332" y="589.6"/>
      <point x="859.0933333333332" y="571.0066666666667"/>
      <point x="887.6266666666667" y="565.2866666666666" type="curve" smooth="yes"/>
      <point x="968.54" y="552.8333333333334" type="line" smooth="yes"/>
      <point x="1004.1000000000001" y="547.22"/>
      <point x="1011.3733333333334" y="523.0066666666668"/>
      <point x="999.9066666666666" y="480.8400000000001" type="curve" smooth="yes"/>
      <point x="945.8733333333333" y="278.8333333333333" type="line" smooth="yes"/>
      <point x="912.7599225897709" y="155.68725571185217"/>
      <point x="807.5" y="90.78"/>
      <point x="672.3266666666666" y="90.78" type="curve" smooth="yes"/>
      <point x="489.30666666666673" y="90.78"/>
      <point x="377.4424490885322" y="247.2993474903582"/>
      <point x="439.5333333333333" y="624.38" type="curve" smooth="yes"/>
      <point x="503.5108467071403" y="1039.3875055236695"/>
      <point x="723.66" y="1317.9133333333334"/>
      <point x="989.0733333333334" y="1317.9133333333334" type="curve" smooth="yes"/>
      <point x="1123.8999999999999" y="1317.9133333333334"/>
      <point x="1221.8751099925792" y="1257.2475958549774"/>
      <point x="1275.4666666666667" y="1095.4066666666663" type="curve" smooth="yes"/>
      <point x="1303.5800000000002" y="1011.1533333333333" type="line" smooth="yes"/>
      <point x="1314.3133333333335" y="981.8133333333334"/>
      <point x="1336.8066666666664" y="965.5066666666665"/>
      <point x="1365.3400000000001" y="967.9466666666666" type="curve" smooth="yes"/>
      <point x="1391.7666666666662" y="970.0866666666667"/>
      <point x="1413.2400000000002" y="987.64"/>
      <point x="1410.9533333333336" y="1026.9666666666667" type="curve" smooth="yes"/>
      <point x="1406.2866666666664" y="1353.6866666666667" type="line" smooth="yes"/>
      <point x="1403.1133333333332" y="1400.9066666666668"/>
      <point x="1381.36" y="1423.9199999999998"/>
      <point x="1348.5466666666666" y="1423.9199999999998" type="curve" smooth="yes"/>
      <point x="1304.3328961748632" y="1423.9199999999998"/>
      <point x="1261.12" y="1338.9133333333334"/>
      <point x="1217.5133333333333" y="1338.9133333333334" type="curve" smooth="yes"/>
      <point x="1181.5466666666664" y="1338.9133333333334"/>
      <point x="1112.9120227920228" y="1426.0666666666668"/>
    </contour>
  </outline>
</glyph>
<glyph name="H" format="2">
  <advance width="1551.9666666666667"/>
  <unicode hex="0048"/>
  <anchor x="1047.0333333333333" y="1498.4666666666667" name="center"/>
  <outline>
    <contour>
      <point x="454.3533333333333" y="179.31333333333333" type="curve" smooth="yes"/>
      <point x="481.17333333333323" y="297.6866666666666"/>
      <point x="677.74" y="1033.5866666666668"/>
      <point x="732.0133333333333" y="1218.4199999999998" type="curve" smooth="yes"/>
      <point x="744.8666666666666" y="1260.3999999999996"/>
      <point x="758.6266666666666" y="1274.5199999999998"/>
      <point x="791.2666666666665" y="1283.8066666666666" type="curve" smooth="yes"/>
      <point x="852.6866666666667" y="1298.36" type="line" smooth="yes"/>
      <point x="881.6533333333334" y="1308.0333333333335"/>
      <point x="900.66" y="1326.5666666666666"/>
      <point x="900.66" y="1354.62" type="curve" smooth="yes"/>
      <point x="900.66" y="1381.4733333333334"/>
      <point x="889.08" y="1400.0"/>
      <point x="845.9266666666666" y="1400.0" type="curve" smooth="yes"/>
      <point x="390.8933333333334" y="1400.0" type="line" smooth="yes"/>
      <point x="346.2155555555555" y="1400.0"/>
      <point x="322.0132803433193" y="1379.3992581398024"/>
      <point x="321.92" y="1346.4999999999998" type="curve" smooth="yes"/>
      <point x="321.8266666666667" y="1323.76"/>
      <point x="333.11999999999995" y="1310.86"/>
      <point x="360.6666666666667" y="1300.2533333333333" type="curve" smooth="yes"/>
      <point x="416.0333333333333" y="1286.6733333333332" type="line" smooth="yes"/>
      <point x="447.6333333333333" y="1276.9933333333333"/>
      <point x="454.42666666666673" y="1257.1999999999998"/>
      <point x="446.8333333333333" y="1221.7666666666667" type="curve" smooth="yes"/>
      <point x="406.2266666666667" y="1044.0866666666666"/>
      <point x="215.94" y="350.5333333333333"/>
      <point x="168.72000000000003" y="185.64666666666665" type="curve" smooth="yes"/>
      <point x="155.16" y="141.25333333333333"/>
      <point x="137.70666666666665" y="122.93333333333332"/>
      <point x="103.38000000000001" y="114.19333333333333" type="curve" smooth="yes"/>
      <point x="46.18666666666667" y="102.0266666666667" type="line" smooth="yes"/>
      <point x="19.773333333333333" y="93.38"/>
      <point x="0.33333333333333437" y="74.14666666666665"/>
      <point x="0.7600000000000002" y="46.60666666666667" type="curve" smooth="yes"/>
      <point x="0.7600000000000002" y="19.279999999999998"/>
      <point x="13.040000000000003" y="0.0"/>
      <point x="56.48000000000001" y="0.0" type="curve" smooth="yes"/>
      <point x="513.8599999999998" y="0.0" type="line" smooth="yes"/>
      <point x="554.32" y="0.0"/>
      <point x="579.26" y="21.01333333333334"/>
      <point x="579.26" y="53.92" type="curve" smooth="yes"/>
      <point x="579.3533333333334" y="76.47333333333331"/>
      <point x="567.3333333333333" y="89.42000000000002"/>
      <point x="541.04" y="99.78000000000002" type="curve" smooth="yes"/>
      <point x="483.9733333333334" y="112.46666666666668" type="line" smooth="yes"/>
      <point x="455.51333333333326" y="120.47999999999999"/>
      <point x="445.53333333333336" y="140.2"/>
    </contour>
    <contour>
      <point x="473.37333333333333" y="712.4933333333332" type="line"/>
      <point x="445.28666666666663" y="609.4600000000002" type="line"/>
      <point x="1200.3" y="609.4600000000002" type="line"/>
      <point x="1228.1" y="712.4933333333332" type="line"/>
    </contour>
    <contour>
      <point x="1251.3933333333334" y="179.22000000000003" type="curve" smooth="yes"/>
      <point x="1277.9466666666667" y="297.5933333333333"/>
      <point x="1474.46" y="1033.4933333333333"/>
      <point x="1528.9466666666665" y="1218.3266666666668" type="curve" smooth="yes"/>
      <point x="1541.7466666666667" y="1260.3066666666666"/>
      <point x="1555.6666666666667" y="1274.4266666666665"/>
      <point x="1588.2" y="1283.7133333333331" type="curve" smooth="yes"/>
      <point x="1649.833333333333" y="1298.2666666666667" type="line" smooth="yes"/>
      <point x="1678.7696075407894" y="1307.9960009922092"/>
      <point x="1697.5" y="1326.38"/>
      <point x="1697.5933333333335" y="1354.3399999999997" type="curve" smooth="yes"/>
      <point x="1697.6866666666667" y="1381.1"/>
      <point x="1685.8266666666668" y="1399.9066666666668"/>
      <point x="1642.9666666666667" y="1399.9066666666668" type="curve" smooth="yes"/>
      <point x="1186.9866666666665" y="1399.9066666666668" type="line" smooth="yes"/>
      <point x="1142.6721212121213" y="1399.9066666666668"/>
      <point x="1119.048553885645" y="1379.2445338467148"/>
      <point x="1118.9600000000003" y="1346.4999999999998" type="curve" smooth="yes"/>
      <point x="1118.8629548741853" y="1323.898413364405"/>
      <point x="1129.8958791839736" y="1310.798951455737"/>
      <point x="1157.6" y="1300.16" type="curve" smooth="yes"/>
      <point x="1212.8066666666664" y="1286.5799999999997" type="line" smooth="yes"/>
      <point x="1244.4066666666668" y="1276.9"/>
      <point x="1251.3066666666666" y="1257.1066666666666"/>
      <point x="1243.6066666666668" y="1221.6733333333334" type="curve" smooth="yes"/>
      <point x="1202.8400000000004" y="1043.9933333333333"/>
      <point x="1012.7133333333334" y="350.44"/>
      <point x="965.6533333333332" y="185.55333333333337" type="curve" smooth="yes"/>
      <point x="951.9333333333334" y="141.16"/>
      <point x="934.7466666666668" y="122.74666666666666"/>
      <point x="900.4200000000001" y="114.10000000000002" type="curve" smooth="yes"/>
      <point x="842.2933333333334" y="101.93333333333335" type="line" smooth="yes"/>
      <point x="815.88" y="93.28666666666663"/>
      <point x="796.44" y="74.05333333333331"/>
      <point x="796.76" y="46.513333333333335" type="curve" smooth="yes"/>
      <point x="796.76" y="19.18666666666667"/>
      <point x="809.1466666666665" y="-0.09333333333333334"/>
      <point x="852.5866666666667" y="-0.09333333333333334" type="curve" smooth="yes"/>
      <point x="1310.6333333333337" y="-0.09333333333333334" type="line" smooth="yes"/>
      <point x="1351.1999999999998" y="-0.09333333333333334"/>
      <point x="1376.1399999999999" y="20.920000000000005"/>
      <point x="1376.1399999999999" y="53.826666666666675" type="curve" smooth="yes"/>
      <point x="1376.2333333333333" y="76.37999999999997"/>
      <point x="1364.2666666666669" y="89.32666666666667"/>
      <point x="1337.8133333333333" y="99.68666666666667" type="curve" smooth="yes"/>
      <point x="1281.013333333333" y="112.37333333333333" type="line" smooth="yes"/>
      <point x="1252.4466666666667" y="120.38666666666667"/>
      <point x="1242.4666666666665" y="140.10666666666668"/>
    </contour>
  </outline>
</glyph>
<glyph name="I" format="2">
  <advance width="761.4666666666666"/>
  <unicode hex="0049"/>
  <anchor x="668.2866666666666" y="1468.0" name="center"/>
  <outline>
    <contour>
      <point x="457.5533333333334" y="179.31333333333333" type="curve" smooth="yes"/>
      <point x="484.10666666666674" y="297.6866666666666"/>
      <point x="680.5733333333332" y="1033.6933333333332"/>
      <point x="734.5266666666668" y="1218.4199999999998" type="curve" smooth="yes"/>
      <point x="747.3266666666666" y="1260.3999999999996"/>
      <point x="761.2466666666668" y="1274.5199999999998"/>
      <point x="793.78" y="1283.8066666666666" type="curve" smooth="yes"/>
      <point x="855.3066666666667" y="1298.36" type="line" smooth="yes"/>
      <point x="884.3533333333332" y="1308.1266666666666"/>
      <point x="903.1733333333334" y="1326.6599999999996"/>
      <point x="903.1733333333334" y="1354.8066666666664" type="curve" smooth="yes"/>
      <point x="903.1733333333334" y="1381.6599999999999"/>
      <point x="891.5933333333335" y="1400.0"/>
      <point x="848.5466666666666" y="1400.0" type="curve" smooth="yes"/>
      <point x="394.16666666666663" y="1400.0" type="line" smooth="yes"/>
      <point x="348.78666666666675" y="1400.0"/>
      <point x="324.63333333333327" y="1379.68"/>
      <point x="324.54" y="1346.4999999999998" type="curve" smooth="yes"/>
      <point x="324.54" y="1323.76"/>
      <point x="335.47333333333336" y="1310.86"/>
      <point x="363.18" y="1300.2533333333333" type="curve" smooth="yes"/>
      <point x="418.4933333333333" y="1286.6733333333332" type="line" smooth="yes"/>
      <point x="449.9866666666667" y="1276.9933333333333"/>
      <point x="456.88666666666666" y="1257.1999999999998"/>
      <point x="449.2933333333334" y="1221.7666666666667" type="curve" smooth="yes"/>
      <point x="408.74" y="1043.8733333333332"/>
      <point x="218.97999999999996" y="350.5333333333333"/>
      <point x="171.65333333333334" y="185.64666666666665" type="curve" smooth="yes"/>
      <point x="158.0933333333333" y="141.25333333333333"/>
      <point x="140.9066666666667" y="122.93333333333332"/>
      <point x="106.58000000000001" y="114.19333333333333" type="curve" smooth="yes"/>
      <point x="49.386666666666656" y="102.0266666666667" type="line" smooth="yes"/>
      <point x="22.973333333333333" y="93.38"/>
      <point x="3.5333333333333323" y="74.14666666666665"/>
      <point x="3.959999999999998" y="46.60666666666667" type="curve" smooth="yes"/>
      <point x="3.959999999999998" y="19.279999999999998"/>
      <point x="16.239999999999995" y="0.0"/>
      <point x="59.57333333333333" y="0.0" type="curve" smooth="yes"/>
      <point x="516.9" y="0.0" type="line" smooth="yes"/>
      <point x="557.3599999999999" y="0.0"/>
      <point x="582.3" y="21.01333333333334"/>
      <point x="582.3" y="53.92" type="curve" smooth="yes"/>
      <point x="582.3933333333332" y="76.47333333333331"/>
      <point x="570.4266666666666" y="89.42000000000002"/>
      <point x="543.9733333333334" y="99.78000000000002" type="curve" smooth="yes"/>
      <point x="487.0666666666667" y="112.46666666666668" type="line" smooth="yes"/>
      <point x="458.60666666666674" y="120.47999999999999"/>
      <point x="448.46666666666664" y="140.2"/>
    </contour>
  </outline>
</glyph>
<glyph name="J" format="2">
  <advance width="743.2733333333332"/>
  <unicode hex="004A"/>
  <anchor x="664.3066666666667" y="1468.2800000000002" name="center"/>
  <outline>
    <contour>
      <point x="719.74" y="1174.4733333333336" type="curve" smooth="yes"/>
      <point x="744.2333333333332" y="1258.4600000000003"/>
      <point x="756.0933333333335" y="1271.9066666666668"/>
      <point x="792.6600000000001" y="1283.6999999999998" type="curve" smooth="yes"/>
      <point x="853.5" y="1298.7733333333333" type="line" smooth="yes"/>
      <point x="878.3586541423426" y="1307.9426220398723"/>
      <point x="898.1266963252158" y="1326.4737188944723"/>
      <point x="898.2199999999999" y="1354.3266666666666" type="curve" smooth="yes"/>
      <point x="898.2199999999999" y="1381.3666666666668"/>
      <point x="886.5248275862068" y="1400.0"/>
      <point x="843.7200000000001" y="1400.0" type="curve" smooth="yes"/>
      <point x="384.53333333333336" y="1400.0" type="line" smooth="yes"/>
      <point x="339.37999999999994" y="1400.0"/>
      <point x="317.1932666991753" y="1378.4057337884544"/>
      <point x="317.09999999999997" y="1345.9666666666667" type="curve" smooth="yes"/>
      <point x="316.91344926740607" y="1323.7480578755399"/>
      <point x="328.6496306856201" y="1310.4929099020542"/>
      <point x="354.56666666666666" y="1300.5333333333335" type="curve" smooth="yes"/>
      <point x="413.7733333333333" y="1287.0733333333333" type="line" smooth="yes"/>
      <point x="451.31333333333333" y="1275.966666666667"/>
      <point x="456.6333333333333" y="1259.3066666666668"/>
      <point x="441.2200000000001" y="1194.6133333333335" type="curve" smooth="yes"/>
      <point x="413.84769209044407" y="1080.877024858932"/>
      <point x="194.16786094993836" y="277.1923558636526"/>
      <point x="166.54000000000002" y="172.85999999999999" type="curve" smooth="yes"/>
      <point x="131.60559542369757" y="43.82239344144946"/>
      <point x="246.86666666666665" y="-32.840900900900905"/>
      <point x="246.02666666666676" y="-105.66666666666667" type="curve" smooth="yes"/>
      <point x="243.74711236512013" y="-185.28941983853403"/>
      <point x="209.2948717948718" y="-216.17333333333335"/>
      <point x="161.14" y="-216.17333333333335" type="curve" smooth="yes"/>
      <point x="98.50357327427095" y="-216.17333333333335"/>
      <point x="26.505714285714287" y="-143.30666666666667"/>
      <point x="-47.31333333333333" y="-143.30666666666667" type="curve" smooth="yes"/>
      <point x="-118.52666666666666" y="-143.30666666666667"/>
      <point x="-161.56666666666663" y="-192.4466666666667"/>
      <point x="-161.66" y="-253.38" type="curve" smooth="yes"/>
      <point x="-161.7533333333333" y="-326.34"/>
      <point x="-105.49415807560138" y="-384.35999999999996"/>
      <point x="7.493333333333332" y="-384.35999999999996" type="curve" smooth="yes"/>
      <point x="198.65939939939935" y="-384.35999999999996"/>
      <point x="344.24500487772127" y="-267.5431524105101"/>
      <point x="400.9200000000001" y="-27.046666666666667" type="curve" smooth="yes"/>
      <point x="451.1750436731214" y="173.1540478034783"/>
      <point x="688.8202455420054" y="1070.2891206245042"/>
    </contour>
  </outline>
</glyph>
<glyph name="K" format="2">
  <advance width="1434.06"/>
  <unicode hex="004B"/>
  <anchor x="674.8866666666667" y="1486.1600000000003" name="center"/>
  <outline>
    <contour>
      <point x="446.2066666666667" y="174.6866666666666" type="curve" smooth="yes"/>
      <point x="471.65333333333325" y="291.23333333333335"/>
      <point x="676.4666666666667" y="1047.3066666666666"/>
      <point x="726.4600000000002" y="1219.7800000000002" type="curve" smooth="yes"/>
      <point x="738.1733333333334" y="1260.2133333333334"/>
      <point x="755.4466666666667" y="1275.92"/>
      <point x="785.4466666666666" y="1284.2066666666667" type="curve" smooth="yes"/>
      <point x="847.2066666666667" y="1299.1533333333336" type="line" smooth="yes"/>
      <point x="878.2266666666667" y="1310.886666666667"/>
      <point x="896.56" y="1326.08"/>
      <point x="896.56" y="1354.7066666666665" type="curve" smooth="yes"/>
      <point x="896.56" y="1381.9066666666665"/>
      <point x="882.7866666666665" y="1400.0"/>
      <point x="845.4266666666665" y="1400.0" type="curve" smooth="yes"/>
      <point x="391.12000000000006" y="1400.0" type="line" smooth="yes"/>
      <point x="347.11333333333334" y="1400.0"/>
      <point x="322.56" y="1379.3066666666666"/>
      <point x="322.56" y="1346.9133333333334" type="curve" smooth="yes"/>
      <point x="322.56" y="1323.6466666666663"/>
      <point x="333.62" y="1310.9533333333331"/>
      <point x="360.1866666666666" y="1300.44" type="curve" smooth="yes"/>
      <point x="416.1533333333333" y="1287.2199999999998" type="line" smooth="yes"/>
      <point x="445.91999999999996" y="1278.5000000000002"/>
      <point x="455.17999999999995" y="1261.4266666666667"/>
      <point x="447.4" y="1225.5466666666666" type="curve" smooth="yes"/>
      <point x="410.1000000000001" y="1059.7866666666669"/>
      <point x="215.5" y="348.9466666666666"/>
      <point x="168.62666666666667" y="185.45999999999998" type="curve" smooth="yes"/>
      <point x="155.7133333333333" y="143.4"/>
      <point x="137.99333333333334" y="122.77333333333331"/>
      <point x="103.82" y="114.19333333333333" type="curve" smooth="yes"/>
      <point x="46.44" y="102.0266666666667" type="line" smooth="yes"/>
      <point x="19.746666666666666" y="93.28666666666663"/>
      <point x="0.6000000000000019" y="74.3733333333333"/>
      <point x="0.920000000000001" y="46.60666666666667" type="curve" smooth="yes"/>
      <point x="0.920000000000001" y="19.373333333333335"/>
      <point x="13.013333333333335" y="0.0"/>
      <point x="56.64000000000001" y="0.0" type="curve" smooth="yes"/>
      <point x="507.43333333333334" y="0.0" type="line" smooth="yes"/>
      <point x="548.0933333333332" y="0.0"/>
      <point x="572.3266666666666" y="20.213333333333335"/>
      <point x="572.3266666666666" y="53.053333333333335" type="curve" smooth="yes"/>
      <point x="572.42" y="77.73333333333333"/>
      <point x="557.1266666666668" y="91.16"/>
      <point x="532.8533333333332" y="102.02" type="curve" smooth="yes"/>
      <point x="478.3866666666667" y="114.77333333333333" type="line" smooth="yes"/>
      <point x="449.88666666666666" y="123.2666666666667"/>
      <point x="439.15999999999997" y="142.46666666666664"/>
    </contour>
    <contour>
      <point x="695.8066666666667" y="709.1066666666666" type="line"/>
      <point x="907.0533333333334" y="132.59999999999997" type="line" smooth="yes"/>
      <point x="947.7380480343917" y="21.45353158888773"/>
      <point x="994.0976811594205" y="-25.35333333333333"/>
      <point x="1096.2266666666667" y="-25.35333333333333" type="curve" smooth="yes"/>
      <point x="1213.5039779005526" y="-25.35333333333333"/>
      <point x="1314.817442562381" y="44.501551791429186"/>
      <point x="1360.4466666666667" y="156.48" type="curve" smooth="yes"/>
      <point x="1375.7533333333336" y="195.95999999999998"/>
      <point x="1362.8733333333334" y="218.97999999999996"/>
      <point x="1343.7066666666667" y="224.59999999999997" type="curve" smooth="yes"/>
      <point x="1330.8933333333334" y="228.84666666666666"/>
      <point x="1313.3466666666668" y="223.64666666666662"/>
      <point x="1298.7199999999998" y="210.14" type="curve" smooth="yes"/>
      <point x="1278.3799999999999" y="185.22666666666663"/>
      <point x="1259.7266666666667" y="171.7733333333333"/>
      <point x="1234.5266666666666" y="171.7733333333333" type="curve" smooth="yes"/>
      <point x="1191.6333333333332" y="171.7733333333333"/>
      <point x="1169.3333333333333" y="207.65333333333334"/>
      <point x="1143.94" y="274.5" type="curve" smooth="yes"/>
      <point x="908.3533333333335" y="901.7333333333333" type="line"/>
    </contour>
    <contour>
      <point x="465.9133333333333" y="400.75333333333333" type="line"/>
      <point x="1130.2066666666667" y="1086.8333333333333" type="line" smooth="yes"/>
      <point x="1193.16" y="1152.9066666666668"/>
      <point x="1251.8066666666664" y="1180.6200000000003"/>
      <point x="1307.0" y="1180.6200000000003" type="curve" smooth="yes"/>
      <point x="1359.3666666666668" y="1180.6200000000003"/>
      <point x="1395.0133333333333" y="1156.7266666666667"/>
      <point x="1452.3800000000003" y="1156.7266666666667" type="curve" smooth="yes"/>
      <point x="1530.6133333333335" y="1156.7266666666667"/>
      <point x="1590.1466666666665" y="1199.48"/>
      <point x="1595.2933333333333" y="1290.6666666666667" type="curve" smooth="yes"/>
      <point x="1600.2799999999997" y="1368.5866666666668"/>
      <point x="1549.14" y="1427.2600000000002"/>
      <point x="1458.7133333333331" y="1427.2600000000002" type="curve" smooth="yes"/>
      <point x="1361.4799999999998" y="1427.2600000000002"/>
      <point x="1284.5733333333333" y="1382.706666666667"/>
      <point x="1173.1733333333336" y="1266.0800000000002" type="curve" smooth="yes"/>
      <point x="438.2466666666666" y="495.5666666666667" type="line"/>
    </contour>
  </outline>
</glyph>
<glyph name="L" format="2">
  <advance width="1122.7933333333333"/>
  <unicode hex="004C"/>
  <anchor x="938.5881780016792" y="1240.2" name="right"/>
  <outline>
    <contour>
      <point x="656.6200000000001" y="0.0" type="line" smooth="yes"/>
      <point x="729.82" y="0.0"/>
      <point x="758.8733333333332" y="-26.986666666666668"/>
      <point x="807.6466666666665" y="-26.986666666666668" type="curve" smooth="yes"/>
      <point x="946.3066666666667" y="-26.986666666666668"/>
      <point x="1058.96" y="135.65999999999997"/>
      <point x="1072.5933333333332" y="366.0" type="curve" smooth="yes"/>
      <point x="1073.7333333333333" y="405.735873015873"/>
      <point x="1060.5360439560438" y="430.76"/>
      <point x="1028.2133333333334" y="430.76" type="curve" smooth="yes"/>
      <point x="1003.9674686716791" y="430.76"/>
      <point x="983.5533333333333" y="414.08666666666664"/>
      <point x="961.4600000000002" y="368.7800000000001" type="curve" smooth="yes"/>
      <point x="860.1533333333334" y="163.92000000000002"/>
      <point x="785.0266666666666" y="95.50666666666667"/>
      <point x="659.6866666666667" y="95.50666666666667" type="curve" smooth="yes"/>
      <point x="540.3400000000001" y="95.50666666666667" type="line" smooth="yes"/>
      <point x="473.49333333333334" y="95.50666666666667"/>
      <point x="445.44" y="122.90666666666667"/>
      <point x="461.3666666666667" y="199.13999999999993" type="curve" smooth="yes"/>
      <point x="489.1673222258535" y="328.8296024317212"/>
      <point x="670.3328926381554" y="1003.0982739438863"/>
      <point x="732.16" y="1213.3066666666668" type="curve" smooth="yes"/>
      <point x="745.8466666666666" y="1259.4266666666667"/>
      <point x="761.5999999999999" y="1276.2266666666667"/>
      <point x="790.8066666666666" y="1283.6866666666667" type="curve" smooth="yes"/>
      <point x="856.7599999999999" y="1298.3133333333333" type="line" smooth="yes"/>
      <point x="881.5066666666667" y="1307.1066666666668"/>
      <point x="901.6533333333333" y="1326.1733333333332"/>
      <point x="901.6533333333333" y="1353.6466666666665" type="curve" smooth="yes"/>
      <point x="901.6533333333333" y="1380.4733333333334"/>
      <point x="889.0866666666667" y="1400.0"/>
      <point x="847.3466666666667" y="1400.0" type="curve" smooth="yes"/>
      <point x="385.93333333333334" y="1400.0" type="line"/>
      <point x="344.9466666666666" y="1400.0"/>
      <point x="322.09333333333336" y="1378.4533333333334"/>
      <point x="322.09333333333336" y="1346.4533333333334" type="curve" smooth="yes"/>
      <point x="322.09333333333336" y="1323.253333333333"/>
      <point x="335.6666666666667" y="1310.366666666667"/>
      <point x="359.6933333333333" y="1300.6533333333332" type="curve" smooth="yes"/>
      <point x="419.8866666666666" y="1285.7266666666665" type="line" smooth="yes"/>
      <point x="444.42" y="1278.0600000000002"/>
      <point x="454.6333333333333" y="1258.6666666666667"/>
      <point x="447.8733333333333" y="1226.5066666666664" type="curve" smooth="yes"/>
      <point x="414.0127868391696" y="1074.2245171229563"/>
      <point x="219.7808118928499" y="364.3899142380663"/>
      <point x="172.25333333333333" y="195.3533333333333" type="curve" smooth="yes"/>
      <point x="157.52666666666667" y="145.44"/>
      <point x="141.87333333333328" y="124.73333333333338"/>
      <point x="105.64666666666668" y="115.03333333333337" type="curve" smooth="yes"/>
      <point x="48.78666666666667" y="102.56000000000003" type="line" smooth="yes"/>
      <point x="22.040000000000003" y="93.16666666666667"/>
      <point x="2.346666666666667" y="74.30666666666666"/>
      <point x="2.133333333333334" y="47.34" type="curve" smooth="yes"/>
      <point x="0.9600000000000013" y="19.826666666666668"/>
      <point x="14.34666666666667" y="0.0"/>
      <point x="57.76" y="0.0" type="curve"/>
    </contour>
  </outline>
</glyph>
<glyph name="M" format="2">
  <advance width="1704.86"/>
  <unicode hex="004D"/>
  <anchor x="708.0733333333334" y="1455.1066666666668" name="center"/>
  <outline>
    <contour>
      <point x="889.4666666666667" y="402.9533333333334" type="line"/>
      <point x="840.0354217561048" y="685.0009257912345"/>
      <point x="791.7817636291343" y="1056.5943994727086"/>
      <point x="755.8533333333334" y="1286.76" type="curve" smooth="yes"/>
      <point x="740.8733333333333" y="1369.9533333333334"/>
      <point x="704.9133333333333" y="1400.0"/>
      <point x="644.5533333333334" y="1400.0" type="curve" smooth="yes"/>
      <point x="390.76666666666665" y="1400.0" type="line" smooth="yes"/>
      <point x="352.1066666666666" y="1400.0"/>
      <point x="327.58" y="1380.7866666666666"/>
      <point x="326.74" y="1347.4266666666667" type="curve" smooth="yes"/>
      <point x="325.7" y="1324.32"/>
      <point x="336.9666666666667" y="1311.08"/>
      <point x="360.79333333333335" y="1300.8133333333335" type="curve" smooth="yes"/>
      <point x="423.3066666666667" y="1284.8266666666668" type="line" smooth="yes"/>
      <point x="453.35333333333335" y="1274.8066666666668"/>
      <point x="462.7933333333333" y="1251.6799999999998"/>
      <point x="448.1666666666667" y="1201.5800000000002" type="curve" smooth="yes"/>
      <point x="183.95999999999998" y="303.5266666666667" type="line" smooth="yes"/>
      <point x="143.06666666666663" y="160.34666666666664"/>
      <point x="110.82666666666665" y="131.12666666666667"/>
      <point x="60.273333333333326" y="116.4133333333333" type="curve" smooth="yes"/>
      <point x="20.619999999999997" y="105.3" type="line" smooth="yes"/>
      <point x="-7.333333333333332" y="95.44666666666664"/>
      <point x="-26.77333333333333" y="77.98666666666665"/>
      <point x="-27.613333333333344" y="48.54666666666667" type="curve" smooth="yes"/>
      <point x="-28.453333333333333" y="20.699999999999996"/>
      <point x="-15.02666666666667" y="0.0"/>
      <point x="28.72" y="0.0" type="curve" smooth="yes"/>
      <point x="332.88000000000005" y="0.0" type="line" smooth="yes"/>
      <point x="374.3733333333333" y="0.0"/>
      <point x="398.28" y="21.34666666666667"/>
      <point x="399.73333333333335" y="55.026666666666664" type="curve" smooth="yes"/>
      <point x="400.76" y="75.56666666666666"/>
      <point x="389.6" y="88.8133333333333"/>
      <point x="366.1466666666666" y="100.05999999999997" type="curve" smooth="yes"/>
      <point x="319.5333333333334" y="114.30666666666664" type="line" smooth="yes"/>
      <point x="271.84000000000003" y="128.90666666666667"/>
      <point x="255.92666666666665" y="166.16"/>
      <point x="276.12" y="238.73333333333338" type="curve" smooth="yes"/>
      <point x="546.82" y="1158.3333333333333" type="line"/>
      <point x="512.3933333333333" y="1151.1133333333335" type="line"/>
      <point x="558.513177034636" y="861.2930771065785"/>
      <point x="609.1533333333333" y="458.1466666666667"/>
      <point x="644.7133333333333" y="221.04" type="curve" smooth="yes"/>
      <point x="655.0733333333334" y="164.44666666666666"/>
      <point x="683.1933333333334" y="132.77999999999997"/>
      <point x="718.5666666666668" y="132.77999999999997" type="curve" smooth="yes"/>
      <point x="761.0866666666666" y="132.77999999999997"/>
      <point x="783.9833345999652" y="152.3411078451485"/>
      <point x="822.7666666666667" y="213.65333333333336" type="curve" smooth="yes"/>
      <point x="1394.9799999999998" y="1145.6599999999999" type="line"/>
      <point x="1367.44" y="1143.1266666666668" type="line"/>
      <point x="1316.8239847860605" y="856.0673012726727"/>
      <point x="1221.8523146122407" y="409.7339613219778"/>
      <point x="1178.52" y="199.18666666666664" type="curve" smooth="yes"/>
      <point x="1168.2669125705468" y="146.86163438592217"/>
      <point x="1149.6200000000001" y="125.99333333333334"/>
      <point x="1117.006666666667" y="116.18" type="curve" smooth="yes"/>
      <point x="1055.5600000000002" y="102.44" type="line" smooth="yes"/>
      <point x="1032.4580495873463" y="93.550894398594"/>
      <point x="1012.3866666666665" y="76.72666666666665"/>
      <point x="1011.2533333333332" y="48.60666666666666" type="curve" smooth="yes"/>
      <point x="1010.7466666666666" y="19.046666666666663"/>
      <point x="1024.1466666666668" y="0.0"/>
      <point x="1065.9666666666667" y="0.0" type="curve" smooth="yes"/>
      <point x="1519.8533333333337" y="0.0" type="line" smooth="yes"/>
      <point x="1560.6768627450979" y="0.0"/>
      <point x="1583.0599999999997" y="20.506666666666668"/>
      <point x="1583.9933333333333" y="53.879999999999995" type="curve" smooth="yes"/>
      <point x="1585.0333333333333" y="77.06666666666666"/>
      <point x="1571.8038003607107" y="89.25688272442498"/>
      <point x="1548.9466666666667" y="99.31333333333335" type="curve" smooth="yes"/>
      <point x="1485.9999999999998" y="114.49999999999999" type="line" smooth="yes"/>
      <point x="1456.7466666666667" y="124.35999999999996"/>
      <point x="1447.9856189569564" y="150.6883531457155"/>
      <point x="1455.0800000000002" y="192.5533333333333" type="curve" smooth="yes"/>
      <point x="1478.6378368576295" y="339.7553213807313"/>
      <point x="1623.4406723198765" y="1037.9270310926536"/>
      <point x="1657.2466666666667" y="1211.7266666666667" type="curve" smooth="yes"/>
      <point x="1665.2466666666664" y="1252.8866666666665"/>
      <point x="1681.94" y="1275.3533333333337"/>
      <point x="1710.06" y="1283.3400000000001" type="curve" smooth="yes"/>
      <point x="1773.2933333333333" y="1297.5000000000002" type="line" smooth="yes"/>
      <point x="1797.4933333333333" y="1305.9733333333334"/>
      <point x="1817.7666666666667" y="1323.3866666666665"/>
      <point x="1818.7" y="1353.1799999999998" type="curve" smooth="yes"/>
      <point x="1819.22" y="1382.9066666666668"/>
      <point x="1805.2133333333331" y="1400.0"/>
      <point x="1765.1000000000001" y="1400.0" type="curve" smooth="yes"/>
      <point x="1509.1533333333334" y="1400.0" type="line" smooth="yes"/>
      <point x="1462.3933333333334" y="1400.0"/>
      <point x="1416.986666666667" y="1378.086666666667"/>
      <point x="1375.2800000000002" y="1310.2266666666665" type="curve" smooth="yes"/>
      <point x="781.5200000000001" y="346.36666666666673" type="line"/>
    </contour>
  </outline>
</glyph>
<glyph name="N" format="2">
  <advance width="1379.4533333333336"/>
  <unicode hex="004E"/>
  <anchor x="1006.0" y="1497.0" name="center"/>
  <outline>
    <contour>
      <point x="300.18" y="274.95333333333326" type="line" smooth="yes"/>
      <point x="278.76666666666677" y="191.05333333333337"/>
      <point x="290.0933333333333" y="132.3"/>
      <point x="359.82" y="107.39999999999998" type="curve" smooth="yes"/>
      <point x="396.8933333333333" y="97.69333333333331" type="line" smooth="yes"/>
      <point x="418.0866666666667" y="88.69999999999997"/>
      <point x="432.6066666666666" y="72.00666666666666"/>
      <point x="432.5133333333334" y="48.933333333333344" type="curve" smooth="yes"/>
      <point x="432.5133333333334" y="16.5"/>
      <point x="410.43333333333334" y="0.0"/>
      <point x="378.21333333333337" y="0.0" type="curve" smooth="yes"/>
      <point x="39.01333333333333" y="0.0" type="line" smooth="yes"/>
      <point x="-1.159999999999994" y="0.0"/>
      <point x="-17.65333333333333" y="19.439999999999998"/>
      <point x="-17.560000000000002" y="47.56666666666667" type="curve" smooth="yes"/>
      <point x="-17.46666666666667" y="70.47999999999999"/>
      <point x="-2.4533333333333376" y="91.65999999999998"/>
      <point x="26.46666666666666" y="102.68666666666667" type="curve" smooth="yes"/>
      <point x="68.63333333333334" y="115.56666666666669" type="line" smooth="yes"/>
      <point x="122.81333333333332" y="131.06000000000003"/>
      <point x="168.09333333333333" y="190.18"/>
      <point x="192.70000000000002" y="284.5066666666666" type="curve" smooth="yes"/>
      <point x="395.1533333333333" y="1035.3600000000001" type="line" smooth="yes"/>
      <point x="411.36" y="1093.0133333333333"/>
      <point x="406.6133333333333" y="1146.1599999999999"/>
      <point x="379.71999999999997" y="1183.0133333333333" type="curve" smooth="yes"/>
      <point x="324.17333333333335" y="1296.9733333333334" type="line" smooth="yes"/>
      <point x="287.96000000000004" y="1340.8599999999997"/>
      <point x="302.52666666666664" y="1400.0"/>
      <point x="364.22666666666663" y="1400.0" type="curve" smooth="yes"/>
      <point x="541.2066666666667" y="1400.0" type="line" smooth="yes"/>
      <point x="604.8533333333332" y="1400.0"/>
      <point x="631.7466666666666" y="1368.94"/>
      <point x="660.4333333333333" y="1308.0066666666667" type="curve" smooth="yes"/>
      <point x="786.1800000000002" y="987.8399999999998"/>
      <point x="976.0533333333333" y="557.32"/>
      <point x="1091.2266666666667" y="287.9733333333333" type="curve"/>
      <point x="994.9733333333334" y="245.3466666666666" type="line"/>
      <point x="1227.26" y="1178.1133333333332" type="line" smooth="yes"/>
      <point x="1272.1666666666665" y="1353.7733333333333"/>
      <point x="1355.0907511737091" y="1440.3999999999999"/>
      <point x="1458.98" y="1440.3999999999999" type="curve" smooth="yes"/>
      <point x="1525.1566666666668" y="1440.3999999999999"/>
      <point x="1574.1600013553548" y="1399.8667493433106"/>
      <point x="1573.3066666666666" y="1329.0866666666668" type="curve" smooth="yes"/>
      <point x="1572.2933333333335" y="1260.6266666666668"/>
      <point x="1533.0466666666666" y="1208.8933333333332"/>
      <point x="1446.32" y="1160.3999999999999" type="curve" smooth="yes"/>
      <point x="1352.0099450160744" y="1109.3894923901373"/>
      <point x="1305.6723294371034" y="1052.4971173477734"/>
      <point x="1276.1933333333334" y="935.2466666666667" type="curve" smooth="yes"/>
      <point x="1128.293333333333" y="339.62666666666667" type="line" smooth="yes"/>
      <point x="1117.2933333333333" y="296.22666666666663"/>
      <point x="1116.26" y="268.8066666666666"/>
      <point x="1133.5800000000002" y="225.01333333333335" type="curve" smooth="yes"/>
      <point x="1180.5933333333332" y="95.58666666666667" type="line" smooth="yes"/>
      <point x="1201.3266666666666" y="44.77333333333333"/>
      <point x="1180.253333333333" y="0.0"/>
      <point x="1131.506666666667" y="0.0" type="curve" smooth="yes"/>
      <point x="906.3133333333334" y="0.0" type="line" smooth="yes"/>
      <point x="861.1400000000001" y="0.0"/>
      <point x="837.3666666666668" y="28.97333333333333"/>
      <point x="838.3866666666667" y="81.12666666666667" type="curve" smooth="yes"/>
      <point x="839.6800000000001" y="132.69333333333333"/>
      <point x="831.1533333333333" y="171.58666666666664"/>
      <point x="807.7533333333333" y="220.6533333333333" type="curve" smooth="yes"/>
      <point x="739.0733333333334" y="397.4200000000001"/>
      <point x="573.2133333333334" y="795.2933333333334"/>
      <point x="438.4866666666667" y="1112.4800000000002" type="curve"/>
      <point x="528.8466666666665" y="1124.2333333333336" type="line"/>
    </contour>
  </outline>
</glyph>
<glyph name="O" format="2">
  <advance width="1482.7199999999998"/>
  <unicode hex="004F"/>
  <anchor x="1030.1466666666668" y="1546.0" name="center"/>
  <outline>
    <contour>
      <point x="989.34" y="1424.6933333333334" type="curve" smooth="yes"/>
      <point x="577.4999999999999" y="1431.36"/>
      <point x="239.60666666666665" y="1119.2266666666667"/>
      <point x="150.7866666666667" y="707.52" type="curve" smooth="yes"/>
      <point x="47.67333333333333" y="268.0"/>
      <point x="246.21333333333334" y="-17.333333333333332"/>
      <point x="609.5400000000001" y="-24.693333333333328" type="curve" smooth="yes"/>
      <point x="1014.0733333333332" y="-33.17333333333334"/>
      <point x="1366.5533333333335" y="249.14666666666662"/>
      <point x="1460.8866666666668" y="717.0533333333333" type="curve" smooth="yes"/>
      <point x="1548.6466666666665" y="1128.506666666667"/>
      <point x="1350.4399999999998" y="1418.2933333333333"/>
    </contour>
    <contour>
      <point x="640.3399999999998" y="76.00666666666669" type="curve" smooth="yes"/>
      <point x="506.8999999999999" y="80.16666666666667"/>
      <point x="420.37999999999994" y="173.96000000000004"/>
      <point x="420.37333333333333" y="376.0000000000001" type="curve" smooth="yes"/>
      <point x="420.4866666666667" y="463.95333333333326"/>
      <point x="436.76666666666665" y="578.4266666666666"/>
      <point x="473.5466666666666" y="727.14" type="curve" smooth="yes"/>
      <point x="576.0466666666666" y="1143.4066666666665"/>
      <point x="774.8333333333333" y="1332.7133333333334"/>
      <point x="964.7266666666666" y="1324.02" type="curve" smooth="yes"/>
      <point x="1094.0733333333335" y="1318.5266666666666"/>
      <point x="1184.6866666666665" y="1219.54"/>
      <point x="1185.4266666666665" y="1021.9866666666666" type="curve" smooth="yes"/>
      <point x="1185.9599999999998" y="937.9200000000001"/>
      <point x="1171.0133333333333" y="830.8933333333333"/>
      <point x="1137.1533333333334" y="695.6066666666666" type="curve" smooth="yes"/>
      <point x="1018.9533333333333" y="234.70000000000002"/>
      <point x="824.7266666666668" y="70.13999999999999"/>
    </contour>
  </outline>
</glyph>
<glyph name="P" format="2">
  <advance width="1311.96"/>
  <unicode hex="0050"/>
  <outline>
    <contour>
      <point x="1371.3133333333333" y="925.2466666666668" type="curve" smooth="yes"/>
      <point x="1416.0466666666666" y="1205.86"/>
      <point x="1225.8133333333335" y="1400.0"/>
      <point x="907.4733333333334" y="1400.0" type="curve" smooth="yes"/>
      <point x="388.7066666666667" y="1400.0" type="line" smooth="yes"/>
      <point x="345.6733333333333" y="1400.0"/>
      <point x="322.40000000000003" y="1379.3600000000001"/>
      <point x="322.40000000000003" y="1345.66" type="curve" smooth="yes"/>
      <point x="322.40000000000003" y="1323.2133333333334"/>
      <point x="334.26666666666665" y="1310.5399999999997"/>
      <point x="359.4266666666667" y="1300.3466666666668" type="curve" smooth="yes"/>
      <point x="415.8466666666667" y="1286.6333333333334" type="line" smooth="yes"/>
      <point x="443.12983259704055" y="1278.7698713125249"/>
      <point x="454.0733206881854" y="1259.875513405062"/>
      <point x="446.99999999999994" y="1225.386666666667" type="curve" smooth="yes"/>
      <point x="422.46000000000004" y="1113.6133333333332"/>
      <point x="208.36009967357344" y="319.4800205078524"/>
      <point x="167.45333333333332" y="183.86" type="curve" smooth="yes"/>
      <point x="153.9906446633937" y="139.92806276038843"/>
      <point x="137.96842681569163" y="122.88386779951058"/>
      <point x="100.55333333333334" y="113.87333333333338" type="curve" smooth="yes"/>
      <point x="48.586666666666666" y="102.44" type="line" smooth="yes"/>
      <point x="20.880000000000003" y="93.72666666666666"/>
      <point x="0.6933333333333347" y="75.09333333333333"/>
      <point x="0.7866666666666677" y="47.126666666666665" type="curve" smooth="yes"/>
      <point x="0.6933333333333347" y="18.96"/>
      <point x="13.186666666666664" y="0.0"/>
      <point x="55.08" y="0.0" type="curve" smooth="yes"/>
      <point x="541.5066666666665" y="0.0" type="line" smooth="yes"/>
      <point x="582.4133333333334" y="0.0"/>
      <point x="605.4399999999998" y="22.453333333333333"/>
      <point x="605.4399999999998" y="54.96666666666666" type="curve" smooth="yes"/>
      <point x="605.4399999999998" y="76.93333333333332"/>
      <point x="594.1933333333334" y="93.85333333333335"/>
      <point x="566.9266666666666" y="99.8" type="curve" smooth="yes"/>
      <point x="483.0666666666666" y="113.13333333333333" type="line" smooth="yes"/>
      <point x="455.7933333333333" y="118.24000000000002"/>
      <point x="445.38474964171337" y="139.38770079425493"/>
      <point x="458.11333333333346" y="190.55999999999997" type="curve" smooth="yes"/>
      <point x="491.93859819708723" y="328.77620207396023"/>
      <point x="706.24" y="1130.6133333333335"/>
      <point x="721.7266666666667" y="1186.7266666666665" type="curve" smooth="yes"/>
      <point x="744.8836240065523" y="1265.5426716561333"/>
      <point x="783.4066666666666" y="1299.6933333333336"/>
      <point x="860.0266666666666" y="1299.6933333333336" type="curve" smooth="yes"/>
      <point x="1024.2733333333333" y="1299.6933333333336"/>
      <point x="1129.3333333333333" y="1182.9425641025641"/>
      <point x="1091.4799999999998" y="943.9666666666668" type="curve" smooth="yes"/>
      <point x="1053.6933333333334" y="690.1453559870552"/>
      <point x="913.670243902439" y="557.96"/>
      <point x="714.4066666666669" y="557.96" type="curve" smooth="yes"/>
      <point x="633.02" y="557.96"/>
      <point x="560.4133333333333" y="579.8866666666668"/>
      <point x="494.3266666666666" y="623.4" type="curve"/>
      <point x="457.59333333333336" y="529.2800000000001" type="line"/>
      <point x="547.9066666666668" y="482.85333333333335"/>
      <point x="625.9666666666667" y="459.12666666666667"/>
      <point x="762.9466666666668" y="459.12666666666667" type="curve" smooth="yes"/>
      <point x="1074.8133067729082" y="459.12666666666667"/>
      <point x="1327.9133333333336" y="630.5570344424985"/>
    </contour>
  </outline>
</glyph>
<glyph name="Q" format="2">
  <advance width="1483.4933333333333"/>
  <unicode hex="0051"/>
  <outline>
    <contour>
      <point x="672.6800000000001" y="360.8133333333333" type="curve" smooth="yes"/>
      <point x="554.4902287124955" y="-100.68985264906414"/>
      <point x="675.9496960060246" y="-337.0366328895583"/>
      <point x="927.7733333333333" y="-355.68666666666667" type="curve" smooth="yes"/>
      <point x="1034.468735632184" y="-364.6933333333333"/>
      <point x="1077.623145723104" y="-341.4336192348008"/>
      <point x="1107.5866666666668" y="-300.68" type="curve" smooth="yes"/>
      <point x="1186.3666666666666" y="-190.67333333333332" type="line" smooth="yes"/>
      <point x="1202.2133333333331" y="-169.36666666666667"/>
      <point x="1195.7933333333335" y="-146.27333333333334"/>
      <point x="1180.9666666666665" y="-143.09333333333333" type="curve" smooth="yes"/>
      <point x="1155.4866666666667" y="-136.61333333333334"/>
      <point x="1105.9133333333332" y="-190.81333333333333"/>
      <point x="959.1266666666667" y="-172.35333333333335" type="curve" smooth="yes"/>
      <point x="759.7666666666667" y="-148.77333333333334"/>
      <point x="653.661788942963" y="-15.412139972724226"/>
      <point x="744.0333333333333" y="353.8066666666667" type="curve" smooth="yes"/>
      <point x="751.5866666666666" y="384.25333333333333"/>
      <point x="746.6600000000001" y="405.9800000000001"/>
      <point x="721.2733333333333" y="410.22666666666674" type="curve" smooth="yes"/>
      <point x="695.6133333333332" y="414.62"/>
      <point x="681.0266666666666" y="392.94"/>
    </contour>
    <contour>
      <point x="986.3533333333335" y="1424.6933333333334" type="curve" smooth="yes"/>
      <point x="575.8199999999999" y="1431.36"/>
      <point x="239.32666666666665" y="1120.0666666666666"/>
      <point x="150.69333333333333" y="709.4800000000001" type="curve" smooth="yes"/>
      <point x="47.580000000000005" y="267.9533333333334"/>
      <point x="248.1266666666667" y="-17.613333333333333"/>
      <point x="609.0266666666668" y="-24.973333333333336" type="curve" smooth="yes"/>
      <point x="1008.24" y="-33.82666666666666"/>
      <point x="1365.06" y="240.0"/>
      <point x="1459.8600000000001" y="716.1199999999999" type="curve" smooth="yes"/>
      <point x="1546.9666666666667" y="1124.4933333333336"/>
      <point x="1344.56" y="1418.2933333333333"/>
    </contour>
    <contour>
      <point x="640.2466666666666" y="75.02666666666667" type="curve" smooth="yes"/>
      <point x="509.51333333333343" y="79.18666666666665"/>
      <point x="419.91333333333324" y="171.25333333333336"/>
      <point x="420.37333333333333" y="377.44666666666666" type="curve" smooth="yes"/>
      <point x="420.58000000000004" y="465.11999999999995"/>
      <point x="436.58" y="579.6866666666667"/>
      <point x="473.4533333333334" y="729.0999999999999" type="curve" smooth="yes"/>
      <point x="575.2533333333332" y="1144.6666666666667"/>
      <point x="773.0599999999998" y="1333.4133333333334"/>
      <point x="961.7400000000001" y="1324.72" type="curve" smooth="yes"/>
      <point x="1090.7133333333331" y="1319.2266666666665"/>
      <point x="1183.2866666666666" y="1216.7866666666666"/>
      <point x="1183.9333333333334" y="1017.4599999999999" type="curve" smooth="yes"/>
      <point x="1184.4666666666667" y="934.1866666666667"/>
      <point x="1169.8466666666668" y="828.3266666666666"/>
      <point x="1136.3133333333333" y="694.6733333333333" type="curve" smooth="yes"/>
      <point x="1016.3866666666667" y="228.77333333333334"/>
      <point x="822.7666666666667" y="69.06666666666666"/>
    </contour>
  </outline>
</glyph>
<glyph name="R" format="2">
  <advance width="1375.7266666666665"/>
  <unicode hex="0052"/>
  <anchor x="939.2666666666667" y="1485.0" name="center"/>
  <outline>
    <contour>
      <point x="434.21333333333337" y="596.4133333333334" type="line"/>
      <point x="510.49333333333334" y="551.9533333333333"/>
      <point x="603.0266666666666" y="522.3333333333335"/>
      <point x="737.9266666666667" y="524.1733333333333" type="curve" smooth="yes"/>
      <point x="1087.8999999999999" y="527.88"/>
      <point x="1329.3933333333334" y="692.8933333333334"/>
      <point x="1370.12" y="943.2599999999999" type="curve" smooth="yes"/>
      <point x="1419.9000000000003" y="1224.38"/>
      <point x="1228.12" y="1400.0"/>
      <point x="901.5533333333335" y="1400.0" type="curve" smooth="yes"/>
      <point x="386.58666666666664" y="1400.0" type="line" smooth="yes"/>
      <point x="345.90666666666664" y="1400.0"/>
      <point x="322.9533333333333" y="1378.6533333333334"/>
      <point x="323.0" y="1346.1666666666665" type="curve" smooth="yes"/>
      <point x="322.86000000000007" y="1323.9733333333334"/>
      <point x="333.54" y="1310.4733333333336"/>
      <point x="359.72" y="1300.3466666666668" type="curve" smooth="yes"/>
      <point x="414.4866666666666" y="1287.5" type="line" smooth="yes"/>
      <point x="450.12000000000006" y="1275.3933333333334"/>
      <point x="453.44" y="1256.9466666666667"/>
      <point x="443.68" y="1210.7733333333333" type="curve" smooth="yes"/>
      <point x="409.41333333333336" y="1058.7200000000003"/>
      <point x="210.24" y="332.4266666666667"/>
      <point x="167.96" y="183.54000000000002" type="curve" smooth="yes"/>
      <point x="154.54666666666668" y="141.04"/>
      <point x="136.12" y="122.38666666666664"/>
      <point x="101.72666666666667" y="113.9666666666667" type="curve" smooth="yes"/>
      <point x="48.199999999999996" y="102.44" type="line" smooth="yes"/>
      <point x="20.139999999999993" y="93.71333333333331"/>
      <point x="0.793333333333333" y="75.49333333333333"/>
      <point x="0.9333333333333351" y="46.79333333333334" type="curve" smooth="yes"/>
      <point x="0.7000000000000008" y="19.186666666666667"/>
      <point x="13.019999999999998" y="0.0"/>
      <point x="54.44666666666666" y="0.0" type="curve" smooth="yes"/>
      <point x="510.2666666666667" y="0.0" type="line" smooth="yes"/>
      <point x="551.5666666666667" y="0.0"/>
      <point x="573.6466666666669" y="20.960000000000004"/>
      <point x="573.6466666666669" y="53.38000000000001" type="curve" smooth="yes"/>
      <point x="573.6466666666669" y="77.69333333333333"/>
      <point x="559.2666666666665" y="91.05999999999999"/>
      <point x="534.2066666666667" y="103.14" type="curve" smooth="yes"/>
      <point x="478.0999999999999" y="116.02666666666667" type="line" smooth="yes"/>
      <point x="453.86000000000007" y="124.58000000000001"/>
      <point x="440.3400000000001" y="138.26666666666668"/>
      <point x="451.5" y="185.48666666666665" type="curve" smooth="yes"/>
      <point x="486.76" y="342.64"/>
      <point x="681.34" y="1052.506666666667"/>
      <point x="723.1466666666665" y="1203.3200000000002" type="curve" smooth="yes"/>
      <point x="743.0811052482048" y="1269.4121439939527"/>
      <point x="776.3866666666668" y="1304.5733333333335"/>
      <point x="869.1866666666667" y="1304.5733333333335" type="curve" smooth="yes"/>
      <point x="1027.74" y="1304.5733333333335"/>
      <point x="1134.1533333333332" y="1195.499775280899"/>
      <point x="1095.58" y="973.0266666666666" type="curve" smooth="yes"/>
      <point x="1061.0133333333333" y="758.9506382978723"/>
      <point x="928.5333333333333" y="619.4600000000002"/>
      <point x="718.94" y="619.4600000000002" type="curve" smooth="yes"/>
      <point x="632.2933333333332" y="619.4600000000002"/>
      <point x="560.3466666666667" y="640.4733333333332"/>
      <point x="505.23333333333323" y="675.3599999999998" type="curve"/>
    </contour>
    <contour>
      <point x="721.84" y="543.2133333333334" type="line"/>
      <point x="824.4333333333333" y="151.56666666666666" type="line" smooth="yes"/>
      <point x="858.9599999999999" y="19.72"/>
      <point x="917.5999999999999" y="-25.35333333333333"/>
      <point x="1013.6333333333334" y="-25.35333333333333" type="curve" smooth="yes"/>
      <point x="1139.453333333333" y="-25.35333333333333"/>
      <point x="1248.3133333333335" y="45.33999999999999"/>
      <point x="1295.06" y="157.70000000000002" type="curve" smooth="yes"/>
      <point x="1308.4066666666665" y="190.23999999999995"/>
      <point x="1302.6266666666666" y="216.42000000000002"/>
      <point x="1281.6066666666668" y="224.57999999999998" type="curve" smooth="yes"/>
      <point x="1267.0866666666666" y="230.46"/>
      <point x="1248.9933333333333" y="223.4133333333333"/>
      <point x="1237.7466666666667" y="212.10666666666668" type="curve" smooth="yes"/>
      <point x="1215.1466666666668" y="185.22"/>
      <point x="1192.54" y="171.4933333333333"/>
      <point x="1165.12" y="171.4933333333333" type="curve" smooth="yes"/>
      <point x="1126.78" y="171.4933333333333"/>
      <point x="1100.2866666666666" y="201.29999999999998"/>
      <point x="1076.6000000000001" y="282.2266666666667" type="curve" smooth="yes"/>
      <point x="983.3800000000002" y="588.1533333333334" type="line"/>
    </contour>
  </outline>
</glyph>
<glyph name="S" format="2">
  <advance width="1148.2933333333333"/>
  <unicode hex="0053"/>
  <anchor x="854.7466666666667" y="1528.0" name="center"/>
  <outline>
    <contour>
      <point x="550.5133333333333" y="-22.56" type="curve" smooth="yes"/>
      <point x="811.6333333333332" y="-22.56"/>
      <point x="997.5266666666665" y="125.94666666666666"/>
      <point x="1017.6933333333334" y="338.72" type="curve" smooth="yes"/>
      <point x="1035.0666666666666" y="505.14000000000004"/>
      <point x="973.7313643045838" y="624.6258417939579"/>
      <point x="741.2" y="785.0133333333332" type="curve" smooth="yes"/>
      <point x="579.9558983283159" y="898.3986151663026"/>
      <point x="523.6733333333333" y="989.6933333333333"/>
      <point x="538.2066666666667" y="1108.08" type="curve" smooth="yes"/>
      <point x="551.9466666666666" y="1231.06"/>
      <point x="647.3266666666665" y="1328.1666666666667"/>
      <point x="796.7066666666667" y="1328.1666666666667" type="curve" smooth="yes"/>
      <point x="902.8133333333333" y="1328.1666666666667"/>
      <point x="973.8617175034536" y="1269.3129266390379"/>
      <point x="1004.3733333333334" y="1148.78" type="curve" smooth="yes"/>
      <point x="1023.3733333333336" y="1075.6533333333334" type="line" smooth="yes"/>
      <point x="1045.806666666667" y="1004.9133333333334"/>
      <point x="1077.8200000000002" y="974.7866666666667"/>
      <point x="1132.1066666666666" y="974.7866666666667" type="curve" smooth="yes"/>
      <point x="1198.9266666666667" y="974.7866666666667"/>
      <point x="1238.746666666667" y="1030.0066666666667"/>
      <point x="1241.1933333333334" y="1103.92" type="curve" smooth="yes"/>
      <point x="1246.5300252350203" y="1265.927423717269"/>
      <point x="1097.4666666666665" y="1424.6266666666666"/>
      <point x="812.86" y="1424.6266666666666" type="curve" smooth="yes"/>
      <point x="483.9000000000001" y="1424.6266666666666"/>
      <point x="294.0466666666667" y="1228.7866666666669"/>
      <point x="273.62" y="1005.4600000000002" type="curve" smooth="yes"/>
      <point x="256.48" y="831.36"/>
      <point x="335.8127896419181" y="711.1733354402435"/>
      <point x="526.92" y="585.3466666666666" type="curve" smooth="yes"/>
      <point x="695.660621920549" y="474.3236876912278"/>
      <point x="746.681816277701" y="384.3644580342521"/>
      <point x="729.42" y="272.0733333333333" type="curve" smooth="yes"/>
      <point x="713.6279703450648" y="155.9868050566699"/>
      <point x="627.3083606066056" y="83.59999999999998"/>
      <point x="497.19333333333327" y="83.59999999999998" type="curve" smooth="yes"/>
      <point x="358.77834196891195" y="83.59999999999998"/>
      <point x="257.3973062818477" y="161.35799607718266"/>
      <point x="232.87333333333336" y="304.4666666666667" type="curve" smooth="yes"/>
      <point x="213.21333333333334" y="402.65333333333336" type="line" smooth="yes"/>
      <point x="198.12054943848017" y="448.9577844440059"/>
      <point x="182.9005091159271" y="470.65333333333336"/>
      <point x="151.96" y="470.65333333333336" type="curve" smooth="yes"/>
      <point x="120.55945151258129" y="470.65333333333336"/>
      <point x="100.41679483039933" y="444.91414203563454"/>
      <point x="95.67999999999999" y="399.0733333333333" type="curve" smooth="yes"/>
      <point x="45.02666666666667" y="52.80000000000001" type="line" smooth="yes"/>
      <point x="39.86" y="5.473333333333332"/>
      <point x="60.07999999999999" y="-15.233333333333334"/>
      <point x="96.22000000000001" y="-15.233333333333334" type="curve" smooth="yes"/>
      <point x="143.1570731707317" y="-15.233333333333334"/>
      <point x="199.9333333333333" y="86.59333333333332"/>
      <point x="232.0533333333333" y="86.59333333333332" type="curve" smooth="yes"/>
      <point x="266.74085808580855" y="86.59333333333332"/>
      <point x="322.81520823125913" y="-22.56"/>
    </contour>
  </outline>
</glyph>
<glyph name="T" format="2">
  <advance width="1178.3733333333332"/>
  <unicode hex="0054"/>
  <anchor x="454.5666666666667" y="1520.2" name="center"/>
  <outline>
    <contour>
      <point x="518.8600000000001" y="1423.5" type="curve" smooth="yes"/>
      <point x="310.5133333333333" y="1423.5"/>
      <point x="195.65573827496857" y="1305.407320367548"/>
      <point x="190.39333333333337" y="1152.3600000000001" type="curve" smooth="yes"/>
      <point x="185.86666666666667" y="1054.573333333333"/>
      <point x="236.38000000000002" y="996.3666666666668"/>
      <point x="312.46000000000004" y="995.8866666666668" type="curve" smooth="yes"/>
      <point x="379.2733333333333" y="995.5933333333335"/>
      <point x="419.82666666666665" y="1040.84"/>
      <point x="420.5" y="1098.8933333333332" type="curve" smooth="yes"/>
      <point x="421.4466666666667" y="1145.8133333333333"/>
      <point x="396.09333333333336" y="1173.4466666666667"/>
      <point x="399.26666666666665" y="1218.4066666666668" type="curve" smooth="yes"/>
      <point x="401.38666666666666" y="1286.5200000000002"/>
      <point x="441.11333333333323" y="1325.9066666666663"/>
      <point x="534.8" y="1325.9066666666663" type="curve" smooth="yes"/>
      <point x="687.4409264305178" y="1325.9066666666663"/>
      <point x="1051.3213616268788" y="1199.4133333333334"/>
      <point x="1202.2933333333335" y="1199.4133333333334" type="curve" smooth="yes"/>
      <point x="1341.6399999999999" y="1199.4133333333334"/>
      <point x="1431.8866666666663" y="1282.9800000000002"/>
      <point x="1433.9666666666667" y="1412.2266666666667" type="curve" smooth="yes"/>
      <point x="1435.0066666666664" y="1496.4133333333334"/>
      <point x="1392.3599999999997" y="1541.0066666666667"/>
      <point x="1330.9333333333334" y="1541.0066666666667" type="curve" smooth="yes"/>
      <point x="1266.3733333333332" y="1541.0066666666667"/>
      <point x="1232.5666666666668" y="1502.5333333333335"/>
      <point x="1221.14" y="1442.1533333333334" type="curve" smooth="yes"/>
      <point x="1217.3533333333335" y="1414.0799999999997"/>
      <point x="1220.42" y="1390.1999999999998"/>
      <point x="1214.0333333333333" y="1366.22" type="curve" smooth="yes"/>
      <point x="1204.3533333333332" y="1332.9933333333336"/>
      <point x="1180.8799999999999" y="1316.0266666666664"/>
      <point x="1136.6" y="1316.0266666666664" type="curve" smooth="yes"/>
      <point x="1027.6462813102123" y="1316.0266666666664"/>
      <point x="716.6616666666667" y="1423.5"/>
    </contour>
    <contour>
      <point x="676.5733333333335" y="177.80666666666662" type="curve" smooth="yes"/>
      <point x="717.8666666666667" y="327.88"/>
      <point x="913.4933333333332" y="1047.3666666666666"/>
      <point x="989.8666666666667" y="1304.246666666667" type="curve"/>
      <point x="722.0200000000001" y="1355.9400000000003" type="line"/>
      <point x="668.66" y="1167.38"/>
      <point x="449.14462479251733" y="375.5618078015328"/>
      <point x="394.8133333333333" y="197.76" type="curve" smooth="yes"/>
      <point x="379.2733333333333" y="146.0533333333333"/>
      <point x="361.78000000000003" y="124.40666666666668"/>
      <point x="332.14000000000004" y="116.80000000000001" type="curve" smooth="yes"/>
      <point x="268.91999999999996" y="102.36666666666666" type="line" smooth="yes"/>
      <point x="240.23333333333335" y="91.45999999999997"/>
      <point x="221.98000000000002" y="74.66666666666666"/>
      <point x="221.3666666666667" y="45.64" type="curve" smooth="yes"/>
      <point x="220.7533333333334" y="18.839999999999993"/>
      <point x="237.12666666666667" y="0.0"/>
      <point x="275.82" y="0.0" type="curve" smooth="yes"/>
      <point x="737.7600000000001" y="0.0" type="line" smooth="yes"/>
      <point x="776.8066666666666" y="0.0"/>
      <point x="803.26" y="17.03333333333333"/>
      <point x="804.4333333333333" y="52.20666666666666" type="curve" smooth="yes"/>
      <point x="805.6066666666666" y="73.91999999999997"/>
      <point x="794.04" y="87.39999999999998"/>
      <point x="768.4533333333335" y="98.7" type="curve" smooth="yes"/>
      <point x="701.92" y="114.48666666666668" type="line" smooth="yes"/>
      <point x="676.2333333333332" y="121.85333333333331"/>
      <point x="665.6800000000001" y="137.65333333333334"/>
    </contour>
  </outline>
</glyph>
<glyph name="U" format="2">
  <advance width="1370.42"/>
  <unicode hex="0055"/>
  <anchor x="1013.5733333333334" y="1477.7399999999998" name="center"/>
  <outline>
    <contour>
      <point x="1043.2933333333333" y="436.32000000000005" type="line" smooth="yes"/>
      <point x="972.8423202089984" y="193.4324379314464"/>
      <point x="851.1900943396226" y="99.71999999999998"/>
      <point x="692.0333333333334" y="99.71999999999998" type="curve" smooth="yes"/>
      <point x="555.6474999999999" y="99.71999999999998"/>
      <point x="474.1365446159606" y="174.39653104594532"/>
      <point x="475.9999999999999" y="321.5466666666667" type="curve" smooth="yes"/>
      <point x="476.9266666666667" y="391.37333333333333"/>
      <point x="495.1066666666666" y="482.44000000000005"/>
      <point x="533.74" y="623.6333333333333" type="curve" smooth="yes"/>
      <point x="691.1999999999999" y="1187.1200000000001" type="line" smooth="yes"/>
      <point x="707.5599999999998" y="1245.8866666666668"/>
      <point x="723.0399999999998" y="1272.6733333333332"/>
      <point x="759.7800000000001" y="1284.4533333333334" type="curve" smooth="yes"/>
      <point x="817.3799999999999" y="1296.4533333333334" type="line" smooth="yes"/>
      <point x="852.336535049772" y="1308.4138018772023"/>
      <point x="866.3333333333334" y="1333.1933333333336"/>
      <point x="866.7933333333333" y="1357.8733333333332" type="curve" smooth="yes"/>
      <point x="867.0933333333334" y="1385.301960784314"/>
      <point x="849.8733333333333" y="1400.0"/>
      <point x="814.0200000000002" y="1400.0" type="curve" smooth="yes"/>
      <point x="343.8066666666666" y="1400.0" type="line" smooth="yes"/>
      <point x="310.65333333333336" y="1400.0"/>
      <point x="290.9396688292587" y="1379.2700216259211"/>
      <point x="290.38666666666666" y="1354.5466666666666" type="curve" smooth="yes"/>
      <point x="289.9266666666667" y="1328.2537634408604"/>
      <point x="299.84000000000003" y="1317.3533333333332"/>
      <point x="329.4866666666666" y="1300.3266666666668" type="curve" smooth="yes"/>
      <point x="379.24" y="1288.6866666666665" type="line" smooth="yes"/>
      <point x="407.64000000000004" y="1277.2"/>
      <point x="416.56" y="1235.6399999999996"/>
      <point x="403.2733333333333" y="1188.3533333333335" type="curve" smooth="yes"/>
      <point x="245.54000000000002" y="623.2466666666666" type="line" smooth="yes"/>
      <point x="217.88000000000002" y="524.3133333333333"/>
      <point x="185.06000000000003" y="394.15333333333336"/>
      <point x="184.02" y="313.0133333333333" type="curve" smooth="yes"/>
      <point x="181.91333333333333" y="123.41999999999997"/>
      <point x="311.0733333333334" y="-25.2"/>
      <point x="586.2666666666668" y="-25.2" type="curve"/>
      <point x="879.0866666666667" y="-25.2"/>
      <point x="1063.2533333333336" y="111.72666666666666"/>
      <point x="1153.706666666667" y="425.9866666666667" type="curve" smooth="yes"/>
      <point x="1352.3933333333332" y="1106.3000000000002" type="line" smooth="yes"/>
      <point x="1382.2666666666664" y="1212.8466666666666"/>
      <point x="1419.18" y="1259.1133333333335"/>
      <point x="1482.72" y="1282.18" type="curve" smooth="yes"/>
      <point x="1520.6133333333335" y="1292.3200000000002" type="line" smooth="yes"/>
      <point x="1558.9199999999998" y="1307.5"/>
      <point x="1576.2399999999998" y="1322.6133333333332"/>
      <point x="1576.2399999999998" y="1355.5799999999997" type="curve" smooth="yes"/>
      <point x="1576.2399999999998" y="1381.3733333333334"/>
      <point x="1559.2066666666667" y="1400.0"/>
      <point x="1524.9466666666667" y="1400.0" type="curve" smooth="yes"/>
      <point x="1172.2933333333335" y="1400.0" type="line" smooth="yes"/>
      <point x="1131.4133333333332" y="1400.0"/>
      <point x="1109.9399999999998" y="1378.0778947368422"/>
      <point x="1109.6399999999999" y="1349.9666666666665" type="curve" smooth="yes"/>
      <point x="1109.18" y="1323.8370666666665"/>
      <point x="1121.883712823162" y="1310.3089324005307"/>
      <point x="1158.8466666666668" y="1292.7866666666669" type="curve" smooth="yes"/>
      <point x="1194.3666666666668" y="1283.46" type="line" smooth="yes"/>
      <point x="1256.4533333333334" y="1262.3666666666668"/>
      <point x="1268.6795835797075" y="1208.6984789686173"/>
      <point x="1242.0533333333335" y="1113.7466666666667" type="curve" smooth="yes"/>
    </contour>
  </outline>
</glyph>
<glyph name="V" format="2">
  <advance width="1258.8666666666666"/>
  <unicode hex="0056"/>
  <outline>
    <contour>
      <point x="1042.9333333333334" y="1349.14" type="curve" smooth="yes"/>
      <point x="1042.9333333333334" y="1326.5933333333332"/>
      <point x="1056.8266666666666" y="1308.9733333333334"/>
      <point x="1081.4733333333334" y="1296.8333333333335" type="curve" smooth="yes"/>
      <point x="1124.3400000000001" y="1283.9266666666667" type="line" smooth="yes"/>
      <point x="1186.5933333333332" y="1258.6933333333336"/>
      <point x="1204.7399999999998" y="1199.0466666666669"/>
      <point x="1140.1866666666667" y="1094.7266666666667" type="curve" smooth="yes"/>
      <point x="535.5600000000001" y="125.76666666666668" type="line"/>
      <point x="623.3333333333334" y="157.04" type="line"/>
      <point x="624.6199917055569" y="470.77262415845274"/>
      <point x="618.2072151648036" y="1025.4091050690733"/>
      <point x="620.5066666666667" y="1173.3666666666666" type="curve" smooth="yes"/>
      <point x="620.0066666666667" y="1244.2733333333335"/>
      <point x="636.0266666666665" y="1274.186666666667"/>
      <point x="676.9999999999999" y="1284.0400000000002" type="curve" smooth="yes"/>
      <point x="743.0133333333331" y="1296.6666666666665" type="line" smooth="yes"/>
      <point x="771.2866666666666" y="1304.8200000000002"/>
      <point x="786.7533333333333" y="1323.0933333333332"/>
      <point x="786.7533333333333" y="1354.2666666666667" type="curve" smooth="yes"/>
      <point x="786.7533333333333" y="1383.2333333333333"/>
      <point x="768.2399999999999" y="1400.0"/>
      <point x="738.8066666666666" y="1400.0" type="curve" smooth="yes"/>
      <point x="284.23333333333335" y="1400.0" type="line" smooth="yes"/>
      <point x="250.15333333333336" y="1400.0"/>
      <point x="223.0533333333333" y="1377.9533333333334"/>
      <point x="223.0533333333333" y="1349.1266666666668" type="curve" smooth="yes"/>
      <point x="223.0533333333333" y="1324.5314285714285"/>
      <point x="235.20065002653777" y="1307.5401763734083"/>
      <point x="258.1533333333333" y="1297.8000000000002" type="curve" smooth="yes"/>
      <point x="296.85333333333335" y="1286.6066666666666" type="line" smooth="yes"/>
      <point x="326.5735644072075" y="1275.4409763180179"/>
      <point x="336.90000000000003" y="1250.5066666666667"/>
      <point x="337.37333333333333" y="1204.1000000000001" type="curve" smooth="yes"/>
      <point x="341.40000508793645" y="1019.0070686136507"/>
      <point x="347.34645532678803" y="361.6814888396401"/>
      <point x="346.40666666666664" y="262.89333333333326" type="curve" smooth="yes"/>
      <point x="347.0466666666667" y="231.01333333333335"/>
      <point x="351.2" y="188.98666666666665"/>
      <point x="341.2133333333333" y="156.30666666666667" type="curve" smooth="yes"/>
      <point x="320.11333333333334" y="81.74666666666666" type="line" smooth="yes"/>
      <point x="306.63999999999993" y="35.49333333333333"/>
      <point x="325.0466666666667" y="0.0"/>
      <point x="366.34000000000003" y="0.0" type="curve" smooth="yes"/>
      <point x="576.7866666666667" y="0.0" type="line" smooth="yes"/>
      <point x="621.2666666666667" y="0.0"/>
      <point x="641.5933333333332" y="30.200000000000003"/>
      <point x="652.6400000000001" y="69.31333333333333" type="curve" smooth="yes"/>
      <point x="669.0666666666666" y="128.11333333333332" type="line" smooth="yes"/>
      <point x="678.5333333333332" y="160.57333333333332"/>
      <point x="691.6199999999999" y="185.78666666666666"/>
      <point x="711.3266666666667" y="216.95999999999998" type="curve" smooth="yes"/>
      <point x="1254.1333333333334" y="1074.0400000000002" type="line" smooth="yes"/>
      <point x="1327.0713758124955" y="1190.0899687495817"/>
      <point x="1373.1266168910497" y="1256.1699751121917"/>
      <point x="1436.7666666666667" y="1281.7" type="curve" smooth="yes"/>
      <point x="1467.9799999999998" y="1292.2333333333333" type="line" smooth="yes"/>
      <point x="1498.637413869988" y="1304.9920402683274"/>
      <point x="1512.72" y="1322.7333333333336"/>
      <point x="1512.72" y="1353.073333333333" type="curve" smooth="yes"/>
      <point x="1512.72" y="1381.0133333333335"/>
      <point x="1494.0066666666667" y="1400.0"/>
      <point x="1455.4866666666665" y="1400.0" type="curve" smooth="yes"/>
      <point x="1095.0" y="1400.0" type="line" smooth="yes"/>
      <point x="1063.9799999999998" y="1400.0"/>
      <point x="1042.9333333333334" y="1379.5066666666667"/>
    </contour>
  </outline>
</glyph>
<glyph name="W" format="2">
  <advance width="1931.72"/>
  <unicode hex="0057"/>
  <anchor x="1289.5266666666666" y="1483.88" name="center"/>
  <outline>
    <contour>
      <point x="1116.5333333333335" y="1140.4466666666667" type="line"/>
      <point x="524.2933333333333" y="181.48" type="line"/>
      <point x="600.2133333333334" y="190.45999999999998" type="line"/>
      <point x="601.4559961007031" y="495.81170591392146"/>
      <point x="611.9964744540638" y="1028.9118613515934"/>
      <point x="616.2" y="1192.32" type="curve" smooth="yes"/>
      <point x="618.111348024804" y="1248.5969360102938"/>
      <point x="634.2733333333334" y="1273.2"/>
      <point x="675.5066666666668" y="1284.4866666666667" type="curve" smooth="yes"/>
      <point x="732.2733333333333" y="1296.9533333333334" type="line" smooth="yes"/>
      <point x="763.5200000000001" y="1308.2666666666667"/>
      <point x="780.3599999999999" y="1327.84"/>
      <point x="780.4533333333333" y="1354.1399999999996" type="curve" smooth="yes"/>
      <point x="780.5466666666666" y="1382.7533333333336"/>
      <point x="766.3666666666667" y="1400.0"/>
      <point x="724.3866666666668" y="1400.0" type="curve" smooth="yes"/>
      <point x="288.2466666666666" y="1400.0" type="line" smooth="yes"/>
      <point x="248.09333333333336" y="1400.0"/>
      <point x="225.88" y="1380.6733333333334"/>
      <point x="225.88" y="1349.7" type="curve" smooth="yes"/>
      <point x="225.88" y="1324.28"/>
      <point x="239.81333333333333" y="1309.2533333333333"/>
      <point x="269.30666666666673" y="1297.6000000000001" type="curve" smooth="yes"/>
      <point x="302.36" y="1288.1466666666665" type="line" smooth="yes"/>
      <point x="333.17333333333335" y="1278.293333333333"/>
      <point x="338.61273604300595" y="1250.578699720312"/>
      <point x="338.84" y="1210.3133333333333" type="curve" smooth="yes"/>
      <point x="342.5513275514623" y="983.1365221198906"/>
      <point x="336.5072125502426" y="365.50751270154996"/>
      <point x="335.7666666666667" y="243.1" type="curve" smooth="yes"/>
      <point x="336.1933333333333" y="202.75999999999996"/>
      <point x="332.90666666666664" y="175.68666666666667"/>
      <point x="323.63999999999993" y="147.23999999999995" type="curve" smooth="yes"/>
      <point x="302.47999999999996" y="72.98" type="line" smooth="yes"/>
      <point x="287.43333333333334" y="24.82"/>
      <point x="310.90000000000003" y="0.0"/>
      <point x="362.82666666666665" y="0.0" type="curve" smooth="yes"/>
      <point x="517.2599999999999" y="0.0" type="line" smooth="yes"/>
      <point x="571.0399999999998" y="0.0"/>
      <point x="593.8600000000001" y="23.21333333333333"/>
      <point x="607.6533333333333" y="65.79333333333332" type="curve" smooth="yes"/>
      <point x="625.5266666666666" y="123.2733333333333" type="line" smooth="yes"/>
      <point x="638.36" y="164.03333333333336"/>
      <point x="651.5533333333333" y="188.54666666666665"/>
      <point x="675.1666666666667" y="226.37333333333333" type="curve" smooth="yes"/>
      <point x="1167.8866666666668" y="1034.4266666666667" type="line"/>
    </contour>
    <contour>
      <point x="1713.8466666666668" y="1346.6466666666665" type="curve" smooth="yes"/>
      <point x="1713.8466666666668" y="1325.9266666666665"/>
      <point x="1724.5666666666666" y="1312.0866666666664"/>
      <point x="1747.0" y="1302.7933333333335" type="curve" smooth="yes"/>
      <point x="1794.7866666666666" y="1287.36" type="line" smooth="yes"/>
      <point x="1866.6066666666668" y="1259.0266666666666"/>
      <point x="1868.3266666666668" y="1193.7866666666666"/>
      <point x="1823.746666666667" y="1115.2133333333334" type="curve" smooth="yes"/>
      <point x="1292.9866666666667" y="195.2733333333333" type="line"/>
      <point x="1367.1666666666665" y="191.51999999999998" type="line"/>
      <point x="1356.4333321405206" y="405.81325261968556"/>
      <point x="1346.960254189192" y="1032.3628808108424"/>
      <point x="1345.3466666666666" y="1175.486666666667" type="curve" smooth="yes"/>
      <point x="1343.9933333333336" y="1239.9133333333334"/>
      <point x="1357.12" y="1268.7866666666669"/>
      <point x="1398.9666666666667" y="1282.04" type="curve" smooth="yes"/>
      <point x="1458.5200000000002" y="1296.746666666667" type="line" smooth="yes"/>
      <point x="1486.34" y="1308.76"/>
      <point x="1505.4400000000003" y="1326.6333333333334"/>
      <point x="1505.4400000000003" y="1353.5199999999995" type="curve" smooth="yes"/>
      <point x="1505.4400000000003" y="1385.1933333333334"/>
      <point x="1485.9666666666667" y="1400.0"/>
      <point x="1451.8400000000001" y="1400.0" type="curve" smooth="yes"/>
      <point x="1036.28" y="1400.0" type="line" smooth="yes"/>
      <point x="994.82" y="1400.0"/>
      <point x="971.44" y="1379.7666666666667"/>
      <point x="971.44" y="1345.5533333333335" type="curve" smooth="yes"/>
      <point x="971.44" y="1326.3866666666668"/>
      <point x="984.8066666666667" y="1310.5199999999998"/>
      <point x="1004.5066666666667" y="1301.8" type="curve" smooth="yes"/>
      <point x="1041.7599999999998" y="1289.3600000000001" type="line" smooth="yes"/>
      <point x="1071.52" y="1280.14"/>
      <point x="1078.6533333333332" y="1258.7266666666667"/>
      <point x="1082.3999999999999" y="1207.533333333333" type="curve" smooth="yes"/>
      <point x="1096.9133720012585" y="1010.2679117738506"/>
      <point x="1102.1529627239142" y="388.40118164726476"/>
      <point x="1106.46" y="225.09333333333333" type="curve" smooth="yes"/>
      <point x="1106.9133333333332" y="196.97999999999996"/>
      <point x="1103.0466666666666" y="171.53333333333333"/>
      <point x="1094.1200000000001" y="143.2133333333333" type="curve" smooth="yes"/>
      <point x="1075.88" y="80.89333333333333" type="line" smooth="yes"/>
      <point x="1061.8066666666666" y="33.63333333333334"/>
      <point x="1085.4066666666668" y="0.0"/>
      <point x="1127.14" y="0.0" type="curve" smooth="yes"/>
      <point x="1298.2333333333331" y="0.0" type="line" smooth="yes"/>
      <point x="1337.6466666666663" y="0.0"/>
      <point x="1367.3866666666665" y="23.74"/>
      <point x="1377.3666666666663" y="67.86666666666665" type="curve" smooth="yes"/>
      <point x="1392.2400000000002" y="125.49999999999999" type="line" smooth="yes"/>
      <point x="1403.073333333333" y="168.95999999999998"/>
      <point x="1413.206666666667" y="196.34"/>
      <point x="1433.0733333333333" y="229.6666666666666" type="curve" smooth="yes"/>
      <point x="1933.8066666666666" y="1097.2066666666667" type="line" smooth="yes"/>
      <point x="1989.1399999999999" y="1193.033333333333"/>
      <point x="2040.7733333333333" y="1261.1133333333335"/>
      <point x="2093.4733333333334" y="1283.7333333333333" type="curve" smooth="yes"/>
      <point x="2125.9066666666668" y="1297.1933333333332" type="line" smooth="yes"/>
      <point x="2158.1285302740293" y="1310.8514180189818"/>
      <point x="2174.6066666666666" y="1331.2199999999998"/>
      <point x="2174.7" y="1353.6399999999999" type="curve" smooth="yes"/>
      <point x="2174.7933333333335" y="1381.8"/>
      <point x="2161.02" y="1400.0"/>
      <point x="2119.9" y="1400.0" type="curve" smooth="yes"/>
      <point x="1776.96" y="1400.0" type="line" smooth="yes"/>
      <point x="1737.1933333333334" y="1400.0"/>
      <point x="1713.8466666666668" y="1377.96"/>
    </contour>
  </outline>
</glyph>
<glyph name="X" format="2">
  <advance width="1300.0600000000002"/>
  <unicode hex="0058"/>
  <outline>
    <contour>
      <point x="609.98" y="728.7333333333335" type="line"/>
      <point x="213.92666666666668" y="244.9933333333333" type="line" smooth="yes"/>
      <point x="148.36666666666667" y="164.0733333333333"/>
      <point x="75.72" y="123.14666666666668"/>
      <point x="13.886666666666654" y="107.16000000000003" type="curve" smooth="yes"/>
      <point x="-24.55333333333333" y="90.82"/>
      <point x="-38.04666666666666" y="73.96"/>
      <point x="-38.13999999999999" y="46.713333333333345" type="curve" smooth="yes"/>
      <point x="-38.13999999999999" y="17.813333333333325"/>
      <point x="-21.44666666666667" y="0.0"/>
      <point x="15.213333333333333" y="0.0" type="curve" smooth="yes"/>
      <point x="352.49999999999994" y="0.0" type="line" smooth="yes"/>
      <point x="387.7" y="0.0"/>
      <point x="414.3066666666667" y="22.140000000000004"/>
      <point x="414.3066666666667" y="53.91333333333334" type="curve" smooth="yes"/>
      <point x="414.4" y="76.51333333333332"/>
      <point x="401.1933333333333" y="90.08"/>
      <point x="380.6066666666666" y="98.25999999999999" type="curve" smooth="yes"/>
      <point x="346.84000000000003" y="106.76666666666667" type="line" smooth="yes"/>
      <point x="297.0" y="121.26666666666667"/>
      <point x="288.3933333333334" y="164.94000000000003"/>
      <point x="355.1933333333333" y="247.03333333333336" type="curve" smooth="yes"/>
      <point x="673.3933333333333" y="647.44" type="line"/>
    </contour>
    <contour>
      <point x="693.0533333333333" y="1207.5466666666666" type="curve" smooth="yes"/>
      <point x="679.7950946360355" y="1248.9721372285308"/>
      <point x="689.5508732166908" y="1276.0123809932254"/>
      <point x="723.0066666666667" y="1285.0133333333335" type="curve" smooth="yes"/>
      <point x="771.8666666666667" y="1295.9866666666667" type="line" smooth="yes"/>
      <point x="803.1066666666667" y="1308.9466666666667"/>
      <point x="820.6866666666666" y="1326.9066666666665"/>
      <point x="820.6866666666666" y="1354.6666666666665" type="curve" smooth="yes"/>
      <point x="820.9933333333333" y="1383.2066666666667"/>
      <point x="803.9666666666667" y="1400.0"/>
      <point x="763.3733333333332" y="1400.0" type="curve" smooth="yes"/>
      <point x="308.5733333333334" y="1400.0" type="line" smooth="yes"/>
      <point x="270.3066666666667" y="1400.0"/>
      <point x="244.46" y="1380.506666666667"/>
      <point x="244.24666666666667" y="1350.7066666666665" type="curve" smooth="yes"/>
      <point x="244.24666666666667" y="1327.1133333333335"/>
      <point x="257.13333333333344" y="1312.0600000000002"/>
      <point x="290.12" y="1298.1399999999999" type="curve" smooth="yes"/>
      <point x="346.81333333333333" y="1282.6"/>
      <point x="368.03999999999996" y="1267.7666666666667"/>
      <point x="388.9666666666666" y="1214.1066666666666" type="curve" smooth="yes"/>
      <point x="459.09782585252555" y="1045.5376816282826"/>
      <point x="719.4260887945939" y="321.24162686671804"/>
      <point x="758.12" y="205.42666666666662" type="curve" smooth="yes"/>
      <point x="776.9866666666668" y="149.6266666666666"/>
      <point x="773.74" y="122.13333333333335"/>
      <point x="734.5666666666667" y="110.13333333333333" type="curve" smooth="yes"/>
      <point x="693.0733333333334" y="102.24000000000001" type="line" smooth="yes"/>
      <point x="660.3133333333334" y="89.07333333333332"/>
      <point x="646.5666666666666" y="70.81333333333332"/>
      <point x="646.2600000000001" y="46.433333333333344" type="curve" smooth="yes"/>
      <point x="646.2600000000001" y="19.813333333333333"/>
      <point x="660.0" y="0.0"/>
      <point x="703.84" y="0.0" type="curve" smooth="yes"/>
      <point x="1147.3200000000002" y="0.0" type="line" smooth="yes"/>
      <point x="1185.533333333333" y="0.0"/>
      <point x="1209.4866666666667" y="21.87333333333334"/>
      <point x="1209.5933333333335" y="51.60000000000001" type="curve" smooth="yes"/>
      <point x="1209.5933333333335" y="74.98666666666665"/>
      <point x="1196.5399999999997" y="90.32666666666665"/>
      <point x="1165.6733333333332" y="102.74000000000004" type="curve" smooth="yes"/>
      <point x="1106.08" y="117.09333333333335"/>
      <point x="1080.6" y="136.4066666666667"/>
      <point x="1059.1666666666667" y="196.7266666666667" type="curve" smooth="yes"/>
      <point x="981.62576491134" y="396.41090710319105"/>
      <point x="737.4374300617546" y="1076.0408138976159"/>
    </contour>
    <contour>
      <point x="808.4666666666667" y="698.6933333333334" type="line"/>
      <point x="1059.24" y="1034.5266666666666" type="line" smooth="yes"/>
      <point x="1132.1800990835939" y="1130.2702555359297"/>
      <point x="1181.901251628998" y="1164.74005234163"/>
      <point x="1246.0733333333335" y="1176.4066666666665" type="curve" smooth="yes"/>
      <point x="1283.0197111069315" y="1185.5419069894529"/>
      <point x="1307.2961456461853" y="1184.46"/>
      <point x="1345.92" y="1188.56" type="curve" smooth="yes"/>
      <point x="1426.8732858691783" y="1196.8215959931906"/>
      <point x="1478.9175705992523" y="1248.4520487383995"/>
      <point x="1479.0066666666667" y="1327.1" type="curve" smooth="yes"/>
      <point x="1479.1000000000001" y="1387.779664921466"/>
      <point x="1440.8164238410595" y="1435.7866666666664"/>
      <point x="1365.16" y="1435.7866666666664" type="curve" smooth="yes"/>
      <point x="1270.0762519176658" y="1435.7866666666664"/>
      <point x="1199.8784750871496" y="1381.081485861293"/>
      <point x="1092.9666666666665" y="1240.3733333333337" type="curve" smooth="yes"/>
      <point x="738.26" y="763.3666666666667" type="line"/>
    </contour>
  </outline>
</glyph>
<glyph name="Y" format="2">
  <advance width="1159.5533333333333"/>
  <unicode hex="0059"/>
  <anchor x="868.72" y="1499.96" name="center"/>
  <outline>
    <contour>
      <point x="641.6066666666667" y="515.9466666666666" type="line"/>
      <point x="714.8533333333335" y="512.5466666666666" type="line"/>
      <point x="691.0162302866647" y="637.2698435639052"/>
      <point x="615.2601752188381" y="1197.8458890290576"/>
      <point x="595.7800000000001" y="1305.8133333333335" type="curve" smooth="yes"/>
      <point x="584.1599999999999" y="1372.0533333333333"/>
      <point x="551.2800000000001" y="1400.0"/>
      <point x="481.5933333333334" y="1400.0" type="curve" smooth="yes"/>
      <point x="267.24000000000007" y="1400.0" type="line" smooth="yes"/>
      <point x="227.21333333333334" y="1400.0"/>
      <point x="203.16000000000003" y="1377.8266666666666"/>
      <point x="203.46666666666664" y="1346.4733333333334" type="curve" smooth="yes"/>
      <point x="203.67999999999998" y="1322.4799999999998"/>
      <point x="218.96" y="1306.2133333333334"/>
      <point x="247.30666666666667" y="1297.4533333333334" type="curve" smooth="yes"/>
      <point x="299.46666666666664" y="1288.1666666666663"/>
      <point x="323.0" y="1267.1866666666667"/>
      <point x="332.7866666666667" y="1221.9333333333332" type="curve" smooth="yes"/>
      <point x="351.99620140828364" y="1133.5503929851004"/>
      <point x="415.00712433486336" y="644.5870251567213"/>
      <point x="430.8266666666667" y="549.1733333333333" type="curve" smooth="yes"/>
      <point x="438.26" y="502.94000000000005"/>
      <point x="443.67333333333335" y="464.97333333333336"/>
      <point x="430.82666666666665" y="420.0666666666667" type="curve" smooth="yes"/>
      <point x="367.47333333333336" y="189.35333333333338" type="line" smooth="yes"/>
      <point x="354.47830880177554" y="144.21801274086025"/>
      <point x="337.28" y="123.62666666666665"/>
      <point x="298.30666666666673" y="114.11333333333336" type="curve" smooth="yes"/>
      <point x="243.3266666666667" y="102.42666666666669" type="line" smooth="yes"/>
      <point x="213.52517175188223" y="91.51624512247317"/>
      <point x="196.8732908882905" y="71.23949065948666"/>
      <point x="196.78" y="47.1" type="curve" smooth="yes"/>
      <point x="196.78" y="17.92"/>
      <point x="210.8907246376812" y="0.0"/>
      <point x="250.95333333333332" y="0.0" type="curve" smooth="yes"/>
      <point x="708.0400000000001" y="0.0" type="line" smooth="yes"/>
      <point x="749.8066666666667" y="0.0"/>
      <point x="775.4933333333332" y="19.373333333333335"/>
      <point x="775.5866666666667" y="54.839999999999996" type="curve" smooth="yes"/>
      <point x="775.6800000000001" y="73.19333333333333"/>
      <point x="766.9816600413837" y="87.75121078033828"/>
      <point x="737.6866666666666" y="99.96666666666667" type="curve" smooth="yes"/>
      <point x="683.4866666666666" y="112.4" type="line" smooth="yes"/>
      <point x="652.4133333333335" y="121.08666666666666"/>
      <point x="643.1533333333333" y="141.30666666666664"/>
      <point x="653.0666666666667" y="179.34666666666666" type="curve" smooth="yes"/>
      <point x="711.9333333333333" y="410.6333333333333" type="line" smooth="yes"/>
      <point x="720.6494919155236" y="444.5208575309201"/>
      <point x="732.4399999999999" y="476.04"/>
      <point x="757.8800000000001" y="520.9866666666666" type="curve" smooth="yes"/>
      <point x="1021.0733333333333" y="983.0866666666666" type="line" smooth="yes"/>
      <point x="1089.6399999999999" y="1103.4733333333334"/>
      <point x="1153.1000000000001" y="1142.1800000000003"/>
      <point x="1243.22" y="1166.74" type="curve" smooth="yes"/>
      <point x="1351.7599999999998" y="1196.9799999999998"/>
      <point x="1408.22" y="1248.0799999999997"/>
      <point x="1408.3133333333335" y="1326.7466666666667" type="curve" smooth="yes"/>
      <point x="1408.406666666667" y="1389.2933333333335"/>
      <point x="1366.5666666666668" y="1436.0200000000002"/>
      <point x="1287.3466666666666" y="1436.0200000000002" type="curve" smooth="yes"/>
      <point x="1188.8690780141844" y="1436.0200000000002"/>
      <point x="1113.533333333333" y="1373.6266666666666"/>
      <point x="1006.5666666666667" y="1180.2733333333335" type="curve" smooth="yes"/>
    </contour>
  </outline>
</glyph>
<glyph name="Z" format="2">
  <advance width="1210.1133333333337"/>
  <unicode hex="005A"/>
  <anchor x="919.6533333333333" y="1504.0" name="center"/>
  <outline>
    <contour>
      <point x="695.7466666666667" y="0.0" type="line" smooth="yes"/>
      <point x="773.16" y="0.0"/>
      <point x="799.5466666666666" y="-27.733333333333334"/>
      <point x="854.4133333333333" y="-27.733333333333334" type="curve" smooth="yes"/>
      <point x="995.4733333333332" y="-27.733333333333334"/>
      <point x="1107.36" y="138.0533333333333"/>
      <point x="1114.4066666666665" y="354.79333333333335" type="curve" smooth="yes"/>
      <point x="1114.6399999999999" y="394.06"/>
      <point x="1100.78" y="418.44"/>
      <point x="1068.9733333333336" y="418.44" type="curve" smooth="yes"/>
      <point x="1044.6933333333334" y="418.53333333333336"/>
      <point x="1027.9733333333331" y="403.0533333333333"/>
      <point x="1005.3533333333332" y="359.12666666666667" type="curve" smooth="yes"/>
      <point x="895.0466666666666" y="136.76666666666668"/>
      <point x="789.2866666666667" y="94.83999999999999"/>
      <point x="643.52" y="94.83999999999999" type="curve" smooth="yes"/>
      <point x="307.37999999999994" y="94.83999999999999" type="line"/>
      <point x="334.61333333333334" y="76.34666666666666" type="line"/>
      <point x="518.7733333333333" y="292.86"/>
      <point x="1163.5533333333335" y="1081.7866666666666"/>
      <point x="1294.0466666666666" y="1244.8933333333334" type="curve" smooth="yes"/>
      <point x="1330.0133333333335" y="1284.8000000000002"/>
      <point x="1355.7600000000002" y="1318.3733333333334"/>
      <point x="1355.8533333333332" y="1348.8933333333332" type="curve" smooth="yes"/>
      <point x="1355.946666666667" y="1385.06"/>
      <point x="1335.8000000000002" y="1399.6933333333334"/>
      <point x="1286.4933333333333" y="1399.6933333333334" type="curve" smooth="yes"/>
      <point x="610.7333333333332" y="1399.6933333333334" type="line" smooth="yes"/>
      <point x="540.8533333333335" y="1399.6933333333334"/>
      <point x="516.2133333333334" y="1433.513333333333"/>
      <point x="477.14" y="1433.513333333333" type="curve" smooth="yes"/>
      <point x="442.8066666666667" y="1433.513333333333"/>
      <point x="425.4733333333333" y="1417.66"/>
      <point x="399.34000000000003" y="1363.8333333333333" type="curve" smooth="yes"/>
      <point x="289.49333333333334" y="1136.9066666666665" type="line" smooth="yes"/>
      <point x="266.28" y="1091.7466666666662"/>
      <point x="268.4066666666667" y="1061.1333333333334"/>
      <point x="297.94" y="1048.3066666666668" type="curve" smooth="yes"/>
      <point x="326.8666666666667" y="1035.5333333333338"/>
      <point x="357.9533333333334" y="1042.9133333333332"/>
      <point x="390.90666666666664" y="1089.48" type="curve" smooth="yes"/>
      <point x="500.87333333333333" y="1243.1800000000003"/>
      <point x="594.0866666666666" y="1307.8533333333335"/>
      <point x="711.9599999999999" y="1307.8533333333335" type="curve" smooth="yes"/>
      <point x="1068.0" y="1307.8533333333335" type="line"/>
      <point x="1039.7400000000002" y="1350.5800000000002" type="line"/>
      <point x="916.2599999999999" y="1206.8866666666668"/>
      <point x="199.16" y="324.78666666666663"/>
      <point x="56.39333333333333" y="163.82" type="curve" smooth="yes"/>
      <point x="26.173333333333332" y="129.68666666666667"/>
      <point x="2.3800000000000043" y="93.45333333333333"/>
      <point x="2.286666666666668" y="60.15999999999998" type="curve" smooth="yes"/>
      <point x="2.286666666666668" y="20.519999999999996"/>
      <point x="24.28000000000001" y="0.0"/>
      <point x="70.42666666666665" y="0.0" type="curve" smooth="yes"/>
    </contour>
  </outline>
</glyph>
